<?xml version="1.0" encoding="UTF-8"?>
<svg xmlns="http://www.w3.org/2000/svg" width="190" height="71" viewBox="0 0 190 71" fill="none">
  <path d="M5.2194 34.4964L5.20101 34.4945C5.20101 34.4945 5.20101 34.4945 5.20101 34.4945L5.2194 34.4965M5.2194 34.4964L5.21467 34.4774L5.21466 34.4774L5.21198 34.4666C5.2217 34.4494 5.23611 34.4349 5.25472 34.4245C5.25495 34.4243 5.25519 34.4242 5.25542 34.4241C5.25748 34.4229 5.25959 34.4218 5.26175 34.4208C5.26178 34.4208 5.26181 34.4208 5.26184 34.4207L5.26184 34.421V34.421L5.2619 34.4294L5.2619 34.4304L5.26205 34.4549C5.25168 34.4619 5.24278 34.4709 5.23589 34.4816C5.23589 34.4816 5.23588 34.4816 5.23588 34.4816C5.23272 34.4865 5.22998 34.4918 5.22772 34.4973L5.2194 34.4964ZM5.2194 34.4964L5.2194 34.4965M5.2194 34.4965L5.22771 34.4974C5.22587 34.5019 5.22435 34.5066 5.22317 34.5116L5.2194 34.4965ZM5.35294 34.4404L5.35084 34.4453C5.35084 34.4453 5.35084 34.4453 5.35084 34.4453L5.35294 34.4404M5.35294 34.4404L5.35294 34.4404M5.35294 34.4404L5.36484 34.4128C5.36633 34.4133 5.36783 34.4138 5.36932 34.4144L5.41074 34.4532L5.41083 34.4533L5.42033 34.4622L5.43227 34.4734L5.41343 34.4895M5.35294 34.4404L5.36426 34.4507C5.376 34.4562 5.38659 34.4635 5.39627 34.472C5.39635 34.4721 5.39643 34.4721 5.39651 34.4722C5.39947 34.4748 5.40234 34.4776 5.40513 34.4804C5.40798 34.4833 5.41074 34.4864 5.41343 34.4895M5.35294 34.4404L5.36483 34.4128C5.36273 34.4121 5.36062 34.4114 5.35851 34.4108C5.3585 34.4108 5.3585 34.4108 5.3585 34.4108C5.34435 34.4068 5.32989 34.4051 5.3151 34.4061L5.35011 34.4379L5.35011 34.4379L5.35294 34.4404ZM5.41343 34.4895C5.41637 34.493 5.41923 34.4965 5.42216 34.5001L5.43228 34.4734L5.41343 34.4895ZM5.25945 34.6574C5.25951 34.6574 5.25957 34.6574 5.25963 34.6574M5.25945 34.6574L5.25989 34.6528L5.26064 34.654L5.26091 34.6545L5.26328 34.6582C5.26202 34.6582 5.26078 34.6579 5.25963 34.6574M5.25945 34.6574L5.25909 34.6559L5.25872 34.6544L5.25849 34.6535L5.25945 34.6574ZM5.25963 34.6574L5.26008 34.6564L5.25963 34.6574ZM5.3092 34.4394L5.27538 34.4149C5.27543 34.4149 5.27548 34.4149 5.27553 34.4148L5.30938 34.4394C5.30932 34.4394 5.30926 34.4394 5.3092 34.4394ZM5.25658 34.6553L5.25659 34.6553L5.25658 34.6553ZM5.42052 34.462L5.43241 34.4733L5.43888 34.4677L5.49738 34.4176L5.49738 34.4176L5.50611 34.4101C5.5027 34.4112 5.49929 34.4124 5.49587 34.4137C5.48029 34.4197 5.46584 34.4288 5.45079 34.4382C5.44384 34.4426 5.43676 34.447 5.42939 34.4513C5.42895 34.4509 5.42839 34.4505 5.42773 34.4499C5.42555 34.448 5.42228 34.4452 5.41886 34.4427C5.4034 34.4307 5.38753 34.4214 5.37124 34.4151L5.41098 34.4529L5.41106 34.453L5.42052 34.462ZM5.50628 34.4101L5.4974 34.4177L5.4974 34.4177L5.43889 34.4677L5.43242 34.4733L5.44155 34.4819L5.44514 34.4786L5.50078 34.4264L5.50079 34.4264L5.5173 34.411L5.51655 34.4073C5.51314 34.4081 5.50971 34.409 5.50628 34.4101ZM5.52288 34.406L5.51734 34.4111L5.56456 34.4044C5.55119 34.4028 5.53718 34.4033 5.52288 34.406ZM5.51734 34.4111L5.50085 34.4266L5.50084 34.4266L5.4452 34.4787L5.44163 34.482L5.45066 34.4906C5.45096 34.4903 5.45126 34.49 5.45155 34.4897C5.46751 34.4728 5.48549 34.4591 5.5067 34.4511L5.51734 34.4111ZM5.34865 34.8447C5.3413 34.848 5.33388 34.8513 5.32647 34.8545C5.32107 34.8568 5.31567 34.8592 5.31029 34.8616C5.3256 34.8578 5.3407 34.8536 5.35557 34.849C5.35325 34.8476 5.35094 34.8462 5.34865 34.8447ZM5.36749 34.8453L5.36386 34.8376L5.36752 34.8452C5.36751 34.8453 5.3675 34.8453 5.36749 34.8453Z" fill="white" stroke="white"></path>
  <path d="M80.474 30.1273C81.5708 30.3562 82.4517 30.8932 83.117 31.7384C83.7822 32.566 84.1148 33.5169 84.1148 34.591C84.1148 36.1405 83.5575 37.3731 82.4428 38.2888C81.346 39.1868 79.8088 39.6358 77.8311 39.6358H69.0123V21.0942H77.5344C79.4582 21.0942 80.9595 21.5256 82.0382 22.3884C83.135 23.2512 83.6833 24.4222 83.6833 25.9013C83.6833 26.993 83.3867 27.8998 82.7934 28.6218C82.218 29.3437 81.4449 29.8455 80.474 30.1273ZM73.6239 28.5954H76.6445C77.3996 28.5954 77.9749 28.4369 78.3705 28.1199C78.784 27.7854 78.9907 27.3011 78.9907 26.6672C78.9907 26.0333 78.784 25.5491 78.3705 25.2145C77.9749 24.88 77.3996 24.7127 76.6445 24.7127H73.6239V28.5954ZM77.022 35.9909C77.7951 35.9909 78.3884 35.8236 78.802 35.489C79.2335 35.1369 79.4492 34.635 79.4492 33.9835C79.4492 33.332 79.2245 32.8214 78.775 32.4516C78.3435 32.0818 77.7412 31.8969 76.9681 31.8969H73.6239V35.9909H77.022Z" fill="white"></path>
  <path d="M101.649 24.8976V39.6358H97.0378V37.6284C96.5703 38.28 95.932 38.8082 95.123 39.2132C94.3319 39.6006 93.4509 39.7943 92.48 39.7943C91.3293 39.7943 90.3135 39.5478 89.4325 39.0547C88.5516 38.5441 87.8683 37.8133 87.3829 36.8625C86.8975 35.9116 86.6547 34.7935 86.6547 33.5081V24.8976H91.2394V32.9006C91.2394 33.8867 91.5001 34.6526 92.0215 35.1985C92.5429 35.7444 93.2441 36.0173 94.1251 36.0173C95.0241 36.0173 95.7343 35.7444 96.2557 35.1985C96.7771 34.6526 97.0378 33.8867 97.0378 32.9006V24.8976H101.649Z" fill="white"></path>
  <path d="M111.084 39.8471C109.771 39.8471 108.603 39.627 107.578 39.1868C106.553 38.7466 105.744 38.1479 105.151 37.3907C104.557 36.616 104.225 35.7532 104.153 34.8023H108.711C108.765 35.3129 109.007 35.7267 109.439 36.0437C109.87 36.3606 110.401 36.5191 111.03 36.5191C111.605 36.5191 112.046 36.4135 112.351 36.2022C112.675 35.9733 112.837 35.6827 112.837 35.3306C112.837 34.908 112.612 34.5998 112.163 34.4061C111.713 34.1948 110.985 33.9659 109.978 33.7194C108.899 33.4729 108 33.2176 107.281 32.9534C106.562 32.6717 105.942 32.2403 105.42 31.6592C104.899 31.0605 104.638 30.2593 104.638 29.2557C104.638 28.4105 104.872 27.6445 105.34 26.9578C105.825 26.2534 106.526 25.6988 107.443 25.2938C108.378 24.8888 109.484 24.6863 110.76 24.6863C112.648 24.6863 114.131 25.1441 115.21 26.0597C116.307 26.9754 116.936 28.1904 117.098 29.7047H112.837C112.765 29.194 112.531 28.789 112.136 28.4897C111.758 28.1904 111.255 28.0407 110.625 28.0407C110.086 28.0407 109.673 28.1463 109.385 28.3576C109.097 28.5513 108.953 28.8243 108.953 29.1764C108.953 29.599 109.178 29.916 109.628 30.1273C110.095 30.3386 110.814 30.5499 111.785 30.7612C112.9 31.0429 113.808 31.3246 114.509 31.6064C115.21 31.8705 115.821 32.3107 116.343 32.927C116.882 33.5257 117.161 34.3357 117.179 35.357C117.179 36.2198 116.927 36.9945 116.424 37.6813C115.938 38.3504 115.228 38.8786 114.293 39.266C113.376 39.6534 112.306 39.8471 111.084 39.8471Z" fill="white"></path>
  <path d="M122.32 23.3657C121.511 23.3657 120.845 23.1368 120.324 22.6789C119.82 22.2035 119.569 21.6224 119.569 20.9357C119.569 20.2314 119.82 19.6503 120.324 19.1925C120.845 18.7171 121.511 18.4793 122.32 18.4793C123.111 18.4793 123.758 18.7171 124.261 19.1925C124.783 19.6503 125.043 20.2314 125.043 20.9357C125.043 21.6224 124.783 22.2035 124.261 22.6789C123.758 23.1368 123.111 23.3657 122.32 23.3657ZM124.612 24.8976V39.6358H120V24.8976H124.612Z" fill="white"></path>
  <path d="M137.123 24.7391C138.885 24.7391 140.288 25.3026 141.331 26.4295C142.391 27.5388 142.922 29.0708 142.922 31.0253V39.6358H138.337V31.6328C138.337 30.6467 138.076 29.8808 137.555 29.3349C137.033 28.789 136.332 28.5161 135.451 28.5161C134.57 28.5161 133.869 28.789 133.348 29.3349C132.826 29.8808 132.566 30.6467 132.566 31.6328V39.6358H127.954V24.8976H132.566V26.8521C133.033 26.2006 133.662 25.69 134.453 25.3202C135.245 24.9328 136.135 24.7391 137.123 24.7391Z" fill="white"></path>
  <path d="M160.312 32.029C160.312 32.4516 160.285 32.8918 160.231 33.3496H149.794C149.866 34.2652 150.163 34.9696 150.684 35.4626C151.223 35.938 151.88 36.1758 152.653 36.1758C153.803 36.1758 154.604 35.7003 155.053 34.7495H159.961C159.71 35.7179 159.251 36.5896 158.586 37.3643C157.939 38.1391 157.121 38.7466 156.132 39.1868C155.143 39.627 154.037 39.8471 152.815 39.8471C151.34 39.8471 150.028 39.539 148.877 38.9227C147.726 38.3064 146.828 37.426 146.18 36.2814C145.533 35.1369 145.209 33.7986 145.209 32.2667C145.209 30.7348 145.524 29.3965 146.153 28.252C146.801 27.1074 147.7 26.227 148.85 25.6107C150.001 24.9944 151.322 24.6863 152.815 24.6863C154.271 24.6863 155.565 24.9856 156.698 25.5843C157.831 26.183 158.712 27.037 159.341 28.1463C159.988 29.2557 160.312 30.5499 160.312 32.029ZM155.592 30.8404C155.592 30.0657 155.323 29.4494 154.783 28.9915C154.244 28.5337 153.57 28.3048 152.761 28.3048C151.988 28.3048 151.331 28.5249 150.792 28.9651C150.271 29.4053 149.947 30.0304 149.821 30.8404H155.592Z" fill="white"></path>
  <path d="M168.867 39.8471C167.554 39.8471 166.386 39.627 165.361 39.1868C164.336 38.7466 163.527 38.1479 162.934 37.3907C162.34 36.616 162.008 35.7532 161.936 34.8023H166.494C166.547 35.3129 166.79 35.7267 167.222 36.0437C167.653 36.3606 168.184 36.5191 168.813 36.5191C169.388 36.5191 169.829 36.4135 170.134 36.2022C170.458 35.9733 170.62 35.6827 170.62 35.3306C170.62 34.908 170.395 34.5998 169.946 34.4061C169.496 34.1948 168.768 33.9659 167.761 33.7194C166.682 33.4729 165.783 33.2176 165.064 32.9534C164.345 32.6717 163.725 32.2403 163.203 31.6592C162.682 31.0605 162.421 30.2593 162.421 29.2557C162.421 28.4105 162.655 27.6445 163.122 26.9578C163.608 26.2534 164.309 25.6988 165.226 25.2938C166.161 24.8888 167.267 24.6863 168.543 24.6863C170.431 24.6863 171.914 25.1441 172.993 26.0597C174.09 26.9754 174.719 28.1904 174.881 29.7047H170.62C170.548 29.194 170.314 28.789 169.919 28.4897C169.541 28.1904 169.038 28.0407 168.408 28.0407C167.869 28.0407 167.455 28.1463 167.168 28.3576C166.88 28.5513 166.736 28.8243 166.736 29.1764C166.736 29.599 166.961 29.916 167.41 30.1273C167.878 30.3386 168.597 30.5499 169.568 30.7612C170.683 31.0429 171.591 31.3246 172.292 31.6064C172.993 31.8705 173.604 32.3107 174.126 32.927C174.665 33.5257 174.944 34.3357 174.962 35.357C174.962 36.2198 174.71 36.9945 174.207 37.6813C173.721 38.3504 173.011 38.8786 172.076 39.266C171.159 39.6534 170.089 39.8471 168.867 39.8471Z" fill="white"></path>
  <path d="M183.905 39.8471C182.593 39.8471 181.424 39.627 180.399 39.1868C179.374 38.7466 178.565 38.1479 177.972 37.3907C177.379 36.616 177.046 35.7532 176.974 34.8023H181.532C181.586 35.3129 181.828 35.7267 182.26 36.0437C182.691 36.3606 183.222 36.5191 183.851 36.5191C184.426 36.5191 184.867 36.4135 185.173 36.2022C185.496 35.9733 185.658 35.6827 185.658 35.3306C185.658 34.908 185.433 34.5998 184.984 34.4061C184.534 34.1948 183.806 33.9659 182.799 33.7194C181.721 33.4729 180.822 33.2176 180.102 32.9534C179.383 32.6717 178.763 32.2403 178.242 31.6592C177.72 31.0605 177.46 30.2593 177.46 29.2557C177.46 28.4105 177.693 27.6445 178.161 26.9578C178.646 26.2534 179.347 25.6988 180.264 25.2938C181.199 24.8888 182.305 24.6863 183.581 24.6863C185.469 24.6863 186.953 25.1441 188.031 26.0597C189.128 26.9754 189.757 28.1904 189.919 29.7047H185.658C185.586 29.194 185.352 28.789 184.957 28.4897C184.579 28.1904 184.076 28.0407 183.447 28.0407C182.907 28.0407 182.494 28.1463 182.206 28.3576C181.918 28.5513 181.775 28.8243 181.775 29.1764C181.775 29.599 181.999 29.916 182.449 30.1273C182.916 30.3386 183.635 30.5499 184.606 30.7612C185.721 31.0429 186.629 31.3246 187.33 31.6064C188.031 31.8705 188.643 32.3107 189.164 32.927C189.703 33.5257 189.982 34.3357 190 35.357C190 36.2198 189.748 36.9945 189.245 37.6813C188.759 38.3504 188.049 38.8786 187.114 39.266C186.197 39.6534 185.128 39.8471 183.905 39.8471Z" fill="white"></path>
  <path d="M46.7755 44.9013V57.8443H45.4625V47.5086L40.848 57.8443H39.8913L35.2768 47.5461V57.8443H33.9638V44.9013H35.3519L40.3603 56.1186L45.3687 44.9013H46.7755Z" fill="white"></path>
  <path d="M49.154 52.7046C49.154 51.6542 49.3603 50.735 49.773 49.9472C50.1982 49.1468 50.7797 48.5341 51.5175 48.1089C52.2678 47.6712 53.1119 47.4523 54.0498 47.4523C55.0253 47.4523 55.8631 47.6774 56.5634 48.1276C57.2762 48.5778 57.7889 49.1531 58.1016 49.8534V47.6024H59.4146V57.8443H58.1016V55.5746C57.7764 56.2749 57.2575 56.8564 56.5447 57.3191C55.8444 57.7693 55.0065 57.9944 54.0311 57.9944C53.1057 57.9944 52.2678 57.7755 51.5175 57.3378C50.7797 56.9002 50.1982 56.2811 49.773 55.4808C49.3603 54.6805 49.154 53.7551 49.154 52.7046ZM58.1016 52.7234C58.1016 51.898 57.9328 51.1727 57.5951 50.5474C57.2575 49.9222 56.7948 49.4407 56.207 49.1031C55.6318 48.7654 54.994 48.5966 54.2937 48.5966C53.5684 48.5966 52.9181 48.7592 52.3429 49.0843C51.7676 49.4094 51.3112 49.8846 50.9735 50.5099C50.6484 51.1227 50.4858 51.8542 50.4858 52.7046C50.4858 53.5425 50.6484 54.2803 50.9735 54.9181C51.3112 55.5433 51.7676 56.0248 52.3429 56.3624C52.9181 56.6876 53.5684 56.8501 54.2937 56.8501C54.994 56.8501 55.6318 56.6813 56.207 56.3437C56.7948 56.006 57.2575 55.5246 57.5951 54.8993C57.9328 54.274 58.1016 53.5487 58.1016 52.7234Z" fill="white"></path>
  <path d="M63.7253 49.4219C64.013 48.7842 64.4507 48.2902 65.0384 47.9401C65.6387 47.5899 66.3702 47.4148 67.2331 47.4148V48.7842H66.8767C65.9263 48.7842 65.1635 49.0405 64.5882 49.5533C64.013 50.066 63.7253 50.9226 63.7253 52.1231V57.8443H62.4123V47.6024H63.7253V49.4219Z" fill="white"></path>
  <path d="M74.742 57.8443L70.5215 53.2486V57.8443H69.2084V43.9633H70.5215V52.1794L74.6483 47.6024H76.4865L71.6282 52.7046L76.5241 57.8443H74.742Z" fill="white"></path>
  <path d="M87.4876 52.1981C87.4876 52.6483 87.4751 52.9922 87.4501 53.2298H78.9526C78.9902 54.0052 79.1777 54.668 79.5154 55.2182C79.853 55.7684 80.297 56.1874 80.8472 56.475C81.3974 56.7501 81.9977 56.8877 82.648 56.8877C83.4983 56.8877 84.2112 56.6813 84.7864 56.2686C85.3742 55.856 85.7618 55.2995 85.9494 54.5992H87.3375C87.0874 55.5996 86.5497 56.4187 85.7243 57.0565C84.9115 57.6817 83.886 57.9944 82.648 57.9944C81.6851 57.9944 80.8222 57.7818 80.0594 57.3566C79.2965 56.9189 78.6963 56.3062 78.2586 55.5183C77.8334 54.718 77.6208 53.7863 77.6208 52.7234C77.6208 51.6604 77.8334 50.7288 78.2586 49.9284C78.6838 49.1281 79.2778 48.5153 80.0406 48.0901C80.8034 47.6649 81.6726 47.4523 82.648 47.4523C83.6234 47.4523 84.4738 47.6649 85.1991 48.0901C85.9369 48.5153 86.4996 49.0906 86.8873 49.8159C87.2875 50.5287 87.4876 51.3228 87.4876 52.1981ZM86.1557 52.1606C86.1682 51.3978 86.0119 50.7475 85.6868 50.2098C85.3742 49.6721 84.9427 49.2656 84.3925 48.9905C83.8422 48.7154 83.242 48.5778 82.5917 48.5778C81.6163 48.5778 80.7847 48.8905 80.0969 49.5157C79.4091 50.141 79.0277 51.0226 78.9526 52.1606H86.1557Z" fill="white"></path>
  <path d="M91.5969 48.7091V55.0681C91.5969 55.6934 91.7157 56.1248 91.9533 56.3624C92.1909 56.6 92.6098 56.7188 93.2101 56.7188H94.4106V57.8443H93.0038C92.0784 57.8443 91.3906 57.6317 90.9404 57.2065C90.4902 56.7689 90.2651 56.056 90.2651 55.0681V48.7091H88.8395V47.6024H90.2651V45.0326H91.5969V47.6024H94.4106V48.7091H91.5969Z" fill="white"></path>
  <path d="M97.2327 45.6703C96.9701 45.6703 96.745 45.5765 96.5574 45.389C96.3698 45.2014 96.276 44.97 96.276 44.6949C96.276 44.4198 96.3698 44.1947 96.5574 44.0196C96.745 43.832 96.9701 43.7383 97.2327 43.7383C97.4953 43.7383 97.7204 43.832 97.908 44.0196C98.0955 44.1947 98.1893 44.4198 98.1893 44.6949C98.1893 44.97 98.0955 45.2014 97.908 45.389C97.7204 45.5765 97.4953 45.6703 97.2327 45.6703ZM97.8892 47.6024V57.8443H96.5761V47.6024H97.8892Z" fill="white"></path>
  <path d="M105.665 47.4148C106.89 47.4148 107.891 47.7962 108.666 48.5591C109.441 49.3094 109.829 50.4036 109.829 51.8417V57.8443H108.535V51.9918C108.535 50.8788 108.253 50.0285 107.691 49.4407C107.14 48.853 106.384 48.5591 105.421 48.5591C104.433 48.5591 103.645 48.8717 103.057 49.497C102.47 50.1222 102.176 51.0414 102.176 52.2544V57.8443H100.863V47.6024H102.176V49.3469C102.501 48.7216 102.97 48.2464 103.583 47.9213C104.195 47.5837 104.889 47.4148 105.665 47.4148Z" fill="white"></path>
  <path d="M117.029 47.4523C117.992 47.4523 118.829 47.6774 119.542 48.1276C120.255 48.5778 120.768 49.1468 121.08 49.8346V47.6024H122.393V58.1069C122.393 59.0448 122.187 59.8764 121.774 60.6018C121.374 61.3271 120.811 61.8836 120.086 62.2712C119.361 62.6714 118.535 62.8715 117.61 62.8715C116.297 62.8715 115.203 62.5588 114.327 61.9336C113.465 61.3083 112.927 60.4579 112.714 59.3825H114.009C114.234 60.0953 114.659 60.6643 115.284 61.0895C115.922 61.5146 116.697 61.7272 117.61 61.7272C118.273 61.7272 118.867 61.5834 119.392 61.2958C119.917 61.0207 120.33 60.608 120.63 60.0578C120.93 59.5075 121.08 58.8573 121.08 58.1069V55.5746C120.755 56.2749 120.236 56.8564 119.523 57.3191C118.823 57.7693 117.992 57.9944 117.029 57.9944C116.091 57.9944 115.247 57.7755 114.496 57.3378C113.758 56.9002 113.177 56.2811 112.752 55.4808C112.339 54.6805 112.133 53.7551 112.133 52.7046C112.133 51.6542 112.339 50.735 112.752 49.9472C113.177 49.1468 113.758 48.5341 114.496 48.1089C115.247 47.6712 116.091 47.4523 117.029 47.4523ZM121.08 52.7234C121.08 51.898 120.912 51.1727 120.574 50.5474C120.236 49.9222 119.774 49.4407 119.186 49.1031C118.611 48.7654 117.973 48.5966 117.272 48.5966C116.547 48.5966 115.897 48.7592 115.322 49.0843C114.746 49.4094 114.29 49.8846 113.952 50.5099C113.627 51.1227 113.465 51.8542 113.465 52.7046C113.465 53.5425 113.627 54.2803 113.952 54.9181C114.29 55.5433 114.746 56.0248 115.322 56.3624C115.897 56.6876 116.547 56.8501 117.272 56.8501C117.973 56.8501 118.611 56.6813 119.186 56.3437C119.774 56.006 120.236 55.5246 120.574 54.8993C120.912 54.274 121.08 53.5487 121.08 52.7234Z" fill="white"></path>
  <path d="M131.851 45.8014V50.6972H136.822V51.7852H131.851V56.7561H137.385V57.8441H130.538V44.7134H137.385V45.8014H131.851Z" fill="white"></path>
  <path d="M144.774 47.4146C146 47.4146 147 47.796 147.776 48.5588C148.551 49.3092 148.939 50.4034 148.939 51.8415V57.8441H147.644V51.9916C147.644 50.8786 147.363 50.0282 146.8 49.4405C146.25 48.8527 145.493 48.5588 144.53 48.5588C143.543 48.5588 142.755 48.8715 142.167 49.4967C141.579 50.122 141.285 51.0411 141.285 52.2542V57.8441H139.972V47.6022H141.285V49.3467C141.61 48.7214 142.079 48.2462 142.692 47.9211C143.305 47.5834 143.999 47.4146 144.774 47.4146Z" fill="white"></path>
  <path d="M156.138 47.4521C157.101 47.4521 157.939 47.6772 158.652 48.1274C159.365 48.5776 159.877 49.1466 160.19 49.8344V47.6022H161.503V58.1067C161.503 59.0446 161.297 59.8762 160.884 60.6015C160.484 61.3268 159.921 61.8833 159.196 62.271C158.47 62.6711 157.645 62.8712 156.72 62.8712C155.407 62.8712 154.312 62.5586 153.437 61.9333C152.574 61.3081 152.036 60.4577 151.824 59.3822H153.118C153.343 60.095 153.768 60.664 154.394 61.0892C155.031 61.5144 155.807 61.727 156.72 61.727C157.382 61.727 157.976 61.5832 158.502 61.2956C159.027 61.0204 159.44 60.6078 159.74 60.0575C160.04 59.5073 160.19 58.857 160.19 58.1067V55.5743C159.865 56.2746 159.346 56.8561 158.633 57.3188C157.933 57.769 157.101 57.9941 156.138 57.9941C155.2 57.9941 154.356 57.7753 153.606 57.3376C152.868 56.8999 152.287 56.2809 151.861 55.4806C151.449 54.6802 151.242 53.7548 151.242 52.7044C151.242 51.6539 151.449 50.7348 151.861 49.9469C152.287 49.1466 152.868 48.5338 153.606 48.1086C154.356 47.6709 155.2 47.4521 156.138 47.4521ZM160.19 52.7231C160.19 51.8978 160.021 51.1725 159.683 50.5472C159.346 49.9219 158.883 49.4405 158.295 49.1028C157.72 48.7652 157.082 48.5963 156.382 48.5963C155.657 48.5963 155.006 48.7589 154.431 49.0841C153.856 49.4092 153.4 49.8844 153.062 50.5097C152.737 51.1224 152.574 51.854 152.574 52.7044C152.574 53.5422 152.737 54.28 153.062 54.9178C153.4 55.5431 153.856 56.0245 154.431 56.3622C155.006 56.6873 155.657 56.8499 156.382 56.8499C157.082 56.8499 157.72 56.6811 158.295 56.3434C158.883 56.0058 159.346 55.5243 159.683 54.8991C160.021 54.2738 160.19 53.5485 160.19 52.7231Z" fill="white"></path>
  <path d="M165.157 45.6701C164.895 45.6701 164.669 45.5763 164.482 45.3887C164.294 45.2011 164.2 44.9698 164.2 44.6947C164.2 44.4195 164.294 44.1945 164.482 44.0194C164.669 43.8318 164.895 43.738 165.157 43.738C165.42 43.738 165.645 43.8318 165.832 44.0194C166.02 44.1945 166.114 44.4195 166.114 44.6947C166.114 44.9698 166.02 45.2011 165.832 45.3887C165.645 45.5763 165.42 45.6701 165.157 45.6701ZM165.814 47.6022V57.8441H164.501V47.6022H165.814Z" fill="white"></path>
  <path d="M173.589 47.4146C174.815 47.4146 175.815 47.796 176.59 48.5588C177.366 49.3092 177.753 50.4034 177.753 51.8415V57.8441H176.459V51.9916C176.459 50.8786 176.178 50.0282 175.615 49.4405C175.065 48.8527 174.308 48.5588 173.345 48.5588C172.357 48.5588 171.57 48.8715 170.982 49.4967C170.394 50.122 170.1 51.0411 170.1 52.2542V57.8441H168.787V47.6022H170.1V49.3467C170.425 48.7214 170.894 48.2462 171.507 47.9211C172.12 47.5834 172.814 47.4146 173.589 47.4146Z" fill="white"></path>
  <path d="M189.924 52.1979C189.924 52.6481 189.911 52.992 189.886 53.2296H181.389C181.427 54.0049 181.614 54.6677 181.952 55.2179C182.289 55.7682 182.733 56.1871 183.284 56.4747C183.834 56.7499 184.434 56.8874 185.084 56.8874C185.935 56.8874 186.648 56.6811 187.223 56.2684C187.811 55.8557 188.198 55.2992 188.386 54.5989H189.774C189.524 55.5994 188.986 56.4185 188.161 57.0562C187.348 57.6815 186.322 57.9941 185.084 57.9941C184.121 57.9941 183.259 57.7815 182.496 57.3564C181.733 56.9187 181.133 56.3059 180.695 55.5181C180.27 54.7177 180.057 53.7861 180.057 52.7231C180.057 51.6602 180.27 50.7285 180.695 49.9282C181.12 49.1278 181.714 48.5151 182.477 48.0899C183.24 47.6647 184.109 47.4521 185.084 47.4521C186.06 47.4521 186.91 47.6647 187.635 48.0899C188.373 48.5151 188.936 49.0903 189.324 49.8156C189.724 50.5284 189.924 51.3225 189.924 52.1979ZM188.592 52.1604C188.605 51.3976 188.448 50.7473 188.123 50.2095C187.811 49.6718 187.379 49.2654 186.829 48.9903C186.279 48.7151 185.678 48.5776 185.028 48.5776C184.053 48.5776 183.221 48.8902 182.533 49.5155C181.845 50.1408 181.464 51.0224 181.389 52.1604H188.592Z" fill="white"></path>
  <path d="M35.4474 65.165C35.9311 65.165 36.3537 65.2587 36.7154 65.446C37.0814 65.629 37.3624 65.8948 37.5585 66.2434C37.759 66.5877 37.8592 66.9907 37.8592 67.4526C37.8592 67.9145 37.759 68.3153 37.5585 68.6552C37.3624 68.9951 37.0814 69.2565 36.7154 69.4395C36.3537 69.6182 35.9311 69.7075 35.4474 69.7075H33.9637V65.165H35.4474ZM35.4474 69.0996C35.979 69.0996 36.3864 68.9559 36.6696 68.6683C36.9529 68.3807 37.0945 67.9755 37.0945 67.4526C37.0945 66.9253 36.9529 66.5136 36.6696 66.2173C36.3864 65.921 35.979 65.7728 35.4474 65.7728H34.7088V69.0996H35.4474Z" fill="white"></path>
  <path d="M41.1532 69.7075L40.1074 67.8905H39.5388V69.7075H38.7937V65.165H40.3623C40.7109 65.165 41.005 65.226 41.2447 65.348C41.4887 65.47 41.6695 65.6334 41.7872 65.8382C41.9092 66.043 41.9702 66.2717 41.9702 66.5245C41.9702 66.8208 41.883 67.0909 41.7088 67.3349C41.5388 67.5746 41.2752 67.738 40.9179 67.8251L42.0421 69.7075H41.1532ZM39.5388 67.2957H40.3623C40.6412 67.2957 40.8504 67.226 40.9898 67.0866C41.1336 66.9471 41.2055 66.7598 41.2055 66.5245C41.2055 66.2892 41.1358 66.1062 40.9963 65.9755C40.8569 65.8404 40.6456 65.7728 40.3623 65.7728H39.5388V67.2957Z" fill="white"></path>
  <path d="M43.8645 65.165V69.7075H43.1194V65.165H43.8645Z" fill="white"></path>
  <path d="M48.9539 65.165L47.248 69.7075H46.3853L44.6729 65.165H45.4702L46.8167 68.9428L48.1696 65.165H48.9539Z" fill="white"></path>
  <path d="M50.5182 65.7663V67.0996H52.0868V67.7075H50.5182V69.0996H52.2829V69.7075H49.7731V65.1585H52.2829V65.7663H50.5182Z" fill="white"></path>
  <path d="M57.1288 69.7075H56.3837L54.1418 66.3153V69.7075H53.3967V65.1585H54.1418L56.3837 68.5441V65.1585H57.1288V69.7075Z" fill="white"></path>
  <path d="M66.1122 65.165L64.7658 69.7075H63.9227L62.9684 66.2696L61.9554 69.7075L61.1188 69.714L59.8312 65.165H60.622L61.5632 68.8643L62.5828 65.165H63.4194L64.3671 68.8447L65.3148 65.165H66.1122Z" fill="white"></path>
  <path d="M67.6679 65.165V69.7075H66.9228V65.165H67.6679Z" fill="white"></path>
  <path d="M71.7769 65.165V65.7728H70.5678V69.7075H69.8227V65.7728H68.607V65.165H71.7769Z" fill="white"></path>
  <path d="M76.355 65.165V69.7075H75.61V67.7206H73.4727V69.7075H72.7276V65.165H73.4727V67.1127H75.61V65.165H76.355Z" fill="white"></path>
  <path d="M83.0534 65.165V69.7075H82.3083V67.7206H80.171V69.7075H79.4259V65.165H80.171V67.1127H82.3083V65.165H83.0534Z" fill="white"></path>
  <path d="M84.9755 65.7663V67.0996H86.5441V67.7075H84.9755V69.0996H86.7402V69.7075H84.2304V65.1585H86.7402V65.7663H84.9755Z" fill="white"></path>
  <path d="M90.5926 68.7794H88.6906L88.3638 69.7075H87.586L89.2135 65.1585H90.0762L91.7037 69.7075H90.9194L90.5926 68.7794ZM90.3834 68.1715L89.6448 66.0604L88.8997 68.1715H90.3834Z" fill="white"></path>
  <path d="M94.9669 69.7075L93.9211 67.8905H93.3525V69.7075H92.6074V65.165H94.176C94.5246 65.165 94.8187 65.226 95.0584 65.348C95.3024 65.47 95.4832 65.6334 95.6008 65.8382C95.7228 66.043 95.7838 66.2717 95.7838 66.5245C95.7838 66.8208 95.6967 67.0909 95.5224 67.3349C95.3525 67.5746 95.0889 67.738 94.7316 67.8251L95.8557 69.7075H94.9669ZM93.3525 67.2957H94.176C94.4549 67.2957 94.664 67.226 94.8035 67.0866C94.9472 66.9471 95.0191 66.7598 95.0191 66.5245C95.0191 66.2892 94.9494 66.1062 94.81 65.9755C94.6706 65.8404 94.4592 65.7728 94.176 65.7728H93.3525V67.2957Z" fill="white"></path>
  <path d="M99.8677 65.165V65.7728H98.6586V69.7075H97.9135V65.7728H96.6978V65.165H99.8677Z" fill="white"></path>
  <path d="M101.635 68.8121L100.845 70.616H100.361L100.825 68.8121H101.635Z" fill="white"></path>
  <path d="M107.05 65.165V65.7728H105.122V67.1127H106.625V67.7206H105.122V69.7075H104.376V65.165H107.05Z" fill="white"></path>
  <path d="M108.675 65.165V68.0604C108.675 68.4047 108.764 68.6639 108.943 68.8382C109.126 69.0125 109.379 69.0996 109.701 69.0996C110.028 69.0996 110.28 69.0125 110.459 68.8382C110.642 68.6639 110.734 68.4047 110.734 68.0604V65.165H111.479V68.0474C111.479 68.4177 111.398 68.7314 111.237 68.9885C111.076 69.2456 110.86 69.4373 110.59 69.5637C110.32 69.6901 110.021 69.7532 109.694 69.7532C109.368 69.7532 109.069 69.6901 108.799 69.5637C108.533 69.4373 108.322 69.2456 108.165 68.9885C108.008 68.7314 107.93 68.4177 107.93 68.0474V65.165H108.675Z" fill="white"></path>
  <path d="M113.39 65.7663V67.0996H114.959V67.7075H113.39V69.0996H115.155V69.7075H112.645V65.1585H115.155V65.7663H113.39Z" fill="white"></path>
  <path d="M117.014 69.1062H118.55V69.7075H116.269V65.165H117.014V69.1062Z" fill="white"></path>
  <path d="M120.114 65.7663V67.0996H121.683V67.7075H120.114V69.0996H121.879V69.7075H119.369V65.1585H121.879V65.7663H120.114Z" fill="white"></path>
  <path d="M124.476 65.165C124.96 65.165 125.382 65.2587 125.744 65.446C126.11 65.629 126.391 65.8948 126.587 66.2434C126.788 66.5877 126.888 66.9907 126.888 67.4526C126.888 67.9145 126.788 68.3153 126.587 68.6552C126.391 68.9951 126.11 69.2565 125.744 69.4395C125.382 69.6182 124.96 69.7075 124.476 69.7075H122.992V65.165H124.476ZM124.476 69.0996C125.008 69.0996 125.415 68.9559 125.698 68.6683C125.982 68.3807 126.123 67.9755 126.123 67.4526C126.123 66.9253 125.982 66.5136 125.698 66.2173C125.415 65.921 125.008 65.7728 124.476 65.7728H123.738V69.0996H124.476Z" fill="white"></path>
  <path d="M132.148 67.3741C132.392 67.4177 132.599 67.5463 132.769 67.7598C132.939 67.9733 133.023 68.2151 133.023 68.4853C133.023 68.7162 132.962 68.9253 132.84 69.1127C132.723 69.2957 132.551 69.4417 132.324 69.5506C132.098 69.6552 131.834 69.7075 131.533 69.7075H129.716V65.165H131.448C131.758 65.165 132.023 65.2173 132.246 65.3219C132.468 65.4264 132.636 65.568 132.749 65.7467C132.862 65.921 132.919 66.1171 132.919 66.3349C132.919 66.5964 132.849 66.8142 132.71 66.9885C132.57 67.1628 132.383 67.2914 132.148 67.3741ZM130.461 67.0735H131.383C131.627 67.0735 131.817 67.019 131.952 66.9101C132.091 66.7968 132.161 66.6356 132.161 66.4264C132.161 66.2216 132.091 66.0626 131.952 65.9493C131.817 65.8317 131.627 65.7728 131.383 65.7728H130.461V67.0735ZM131.468 69.0996C131.721 69.0996 131.919 69.0386 132.063 68.9166C132.206 68.7946 132.278 68.6247 132.278 68.4068C132.278 68.1846 132.202 68.0081 132.05 67.8774C131.897 67.7467 131.695 67.6813 131.442 67.6813H130.461V69.0996H131.468Z" fill="white"></path>
  <path d="M137.395 65.165L135.892 68.0604V69.7075H135.147V68.0604L133.637 65.165H134.467L135.519 67.3938L136.572 65.165H137.395Z" fill="white"></path>
  <path d="M142.436 69.7075L141.39 67.8905H140.822V69.7075H140.077V65.165H141.645C141.994 65.165 142.288 65.226 142.528 65.348C142.772 65.47 142.952 65.6334 143.07 65.8382C143.192 66.043 143.253 66.2717 143.253 66.5245C143.253 66.8208 143.166 67.0909 142.992 67.3349C142.822 67.5746 142.558 67.738 142.201 67.8251L143.325 69.7075H142.436ZM140.822 67.2957H141.645C141.924 67.2957 142.133 67.226 142.273 67.0866C142.416 66.9471 142.488 66.7598 142.488 66.5245C142.488 66.2892 142.419 66.1062 142.279 65.9755C142.14 65.8404 141.928 65.7728 141.645 65.7728H140.822V67.2957Z" fill="white"></path>
  <path d="M145.147 65.7663V67.0996H146.716V67.7075H145.147V69.0996H146.912V69.7075H144.402V65.1585H146.912V65.7663H145.147Z" fill="white"></path>
  <path d="M148.771 69.1062H150.307V69.7075H148.026V65.165H148.771V69.1062Z" fill="white"></path>
  <path d="M153.865 68.7794H151.963L151.636 69.7075H150.858L152.486 65.1585H153.348L154.976 69.7075H154.192L153.865 68.7794ZM153.656 68.1715L152.917 66.0604L152.172 68.1715H153.656Z" fill="white"></path>
  <path d="M158.814 65.165V65.7728H157.605V69.7075H156.86V65.7728H155.644V65.165H158.814Z" fill="white"></path>
  <path d="M160.51 65.165V69.7075H159.765V65.165H160.51Z" fill="white"></path>
  <path d="M163.756 69.7532C163.334 69.7532 162.944 69.6552 162.586 69.4591C162.233 69.2587 161.952 68.982 161.743 68.6291C161.538 68.2718 161.436 67.8709 161.436 67.4264C161.436 66.982 161.538 66.5833 161.743 66.2304C161.952 65.8774 162.233 65.6029 162.586 65.4068C162.944 65.2064 163.334 65.1062 163.756 65.1062C164.183 65.1062 164.573 65.2064 164.926 65.4068C165.283 65.6029 165.564 65.8774 165.769 66.2304C165.974 66.5833 166.076 66.982 166.076 67.4264C166.076 67.8709 165.974 68.2718 165.769 68.6291C165.564 68.982 165.283 69.2587 164.926 69.4591C164.573 69.6552 164.183 69.7532 163.756 69.7532ZM163.756 69.1062C164.057 69.1062 164.325 69.0386 164.56 68.9036C164.795 68.7641 164.978 68.5681 165.109 68.3153C165.244 68.0582 165.312 67.7619 165.312 67.4264C165.312 67.0909 165.244 66.7968 165.109 66.5441C164.978 66.2914 164.795 66.0975 164.56 65.9624C164.325 65.8273 164.057 65.7598 163.756 65.7598C163.456 65.7598 163.188 65.8273 162.952 65.9624C162.717 66.0975 162.532 66.2914 162.397 66.5441C162.266 66.7968 162.201 67.0909 162.201 67.4264C162.201 67.7619 162.266 68.0582 162.397 68.3153C162.532 68.5681 162.717 68.7641 162.952 68.9036C163.188 69.0386 163.456 69.1062 163.756 69.1062Z" fill="white"></path>
  <path d="M170.738 69.7075H169.993L167.751 66.3153V69.7075H167.006V65.1585H167.751L169.993 68.5441V65.1585H170.738V69.7075Z" fill="white"></path>
  <path d="M173.409 69.7532C173.104 69.7532 172.829 69.7009 172.585 69.5964C172.341 69.4874 172.15 69.3349 172.01 69.1389C171.871 68.9428 171.801 68.714 171.801 68.4526H172.599C172.616 68.6487 172.692 68.8099 172.827 68.9362C172.967 69.0626 173.161 69.1258 173.409 69.1258C173.666 69.1258 173.867 69.0648 174.01 68.9428C174.154 68.8164 174.226 68.6552 174.226 68.4591C174.226 68.3066 174.18 68.1824 174.089 68.0866C174.002 67.9907 173.891 67.9166 173.755 67.8643C173.625 67.8121 173.442 67.7554 173.206 67.6944C172.91 67.616 172.668 67.5375 172.481 67.4591C172.298 67.3763 172.141 67.25 172.01 67.08C171.88 66.9101 171.814 66.6835 171.814 66.4003C171.814 66.1389 171.88 65.9101 172.01 65.714C172.141 65.5179 172.324 65.3676 172.559 65.263C172.795 65.1585 173.067 65.1062 173.376 65.1062C173.816 65.1062 174.176 65.2173 174.455 65.4395C174.738 65.6574 174.895 65.958 174.925 66.3415H174.102C174.089 66.1759 174.01 66.0343 173.867 65.9166C173.723 65.799 173.533 65.7402 173.298 65.7402C173.084 65.7402 172.91 65.7946 172.775 65.9036C172.64 66.0125 172.572 66.1694 172.572 66.3741C172.572 66.5136 172.614 66.629 172.697 66.7206C172.784 66.8077 172.893 66.8774 173.023 66.9297C173.154 66.982 173.333 67.0386 173.559 67.0996C173.86 67.1824 174.104 67.2652 174.291 67.348C174.483 67.4308 174.644 67.5593 174.775 67.7336C174.91 67.9036 174.978 68.1323 174.978 68.4199C174.978 68.6508 174.914 68.8687 174.788 69.0735C174.666 69.2783 174.485 69.4439 174.246 69.5702C174.01 69.6922 173.731 69.7532 173.409 69.7532Z" fill="white"></path>
  <path d="M179.68 65.165V69.7075H178.935V67.7206H176.798V69.7075H176.053V65.165H176.798V67.1127H178.935V65.165H179.68Z" fill="white"></path>
  <path d="M181.602 65.165V69.7075H180.857V65.165H181.602Z" fill="white"></path>
  <path d="M185.953 66.5179C185.953 66.7489 185.899 66.9667 185.79 67.1715C185.681 67.3763 185.507 67.5441 185.267 67.6748C185.027 67.8012 184.72 67.8643 184.345 67.8643H183.522V69.7075H182.777V65.165H184.345C184.694 65.165 184.988 65.226 185.228 65.348C185.472 65.4656 185.653 65.6269 185.77 65.8317C185.892 66.0365 185.953 66.2652 185.953 66.5179ZM184.345 67.2565C184.629 67.2565 184.84 67.1933 184.979 67.067C185.119 66.9362 185.189 66.7532 185.189 66.5179C185.189 66.0212 184.908 65.7728 184.345 65.7728H183.522V67.2565H184.345Z" fill="white"></path>
  <path d="M188.357 69.7532C188.052 69.7532 187.777 69.7009 187.533 69.5964C187.289 69.4874 187.097 69.3349 186.958 69.1389C186.819 68.9428 186.749 68.714 186.749 68.4526H187.546C187.564 68.6487 187.64 68.8099 187.775 68.9362C187.914 69.0626 188.108 69.1258 188.357 69.1258C188.614 69.1258 188.814 69.0648 188.958 68.9428C189.102 68.8164 189.174 68.6552 189.174 68.4591C189.174 68.3066 189.128 68.1824 189.036 68.0866C188.949 67.9907 188.838 67.9166 188.703 67.8643C188.572 67.8121 188.389 67.7554 188.154 67.6944C187.858 67.616 187.616 67.5375 187.429 67.4591C187.246 67.3763 187.089 67.25 186.958 67.08C186.827 66.9101 186.762 66.6835 186.762 66.4003C186.762 66.1389 186.827 65.9101 186.958 65.714C187.089 65.5179 187.272 65.3676 187.507 65.263C187.742 65.1585 188.015 65.1062 188.324 65.1062C188.764 65.1062 189.124 65.2173 189.402 65.4395C189.686 65.6574 189.843 65.958 189.873 66.3415H189.05C189.036 66.1759 188.958 66.0343 188.814 65.9166C188.67 65.799 188.481 65.7402 188.246 65.7402C188.032 65.7402 187.858 65.7946 187.723 65.9036C187.588 66.0125 187.52 66.1694 187.52 66.3741C187.52 66.5136 187.561 66.629 187.644 66.7206C187.731 66.8077 187.84 66.8774 187.971 66.9297C188.102 66.982 188.28 67.0386 188.507 67.0996C188.808 67.1824 189.052 67.2652 189.239 67.348C189.431 67.4308 189.592 67.5593 189.723 67.7336C189.858 67.9036 189.925 68.1323 189.925 68.4199C189.925 68.6508 189.862 68.8687 189.736 69.0735C189.614 69.2783 189.433 69.4439 189.193 69.5702C188.958 69.6922 188.679 69.7532 188.357 69.7532Z" fill="white"></path>
  <path d="M43.9434 39.3819L48.1951 39.8926C48.8488 39.9707 49.3786 40.5672 49.3767 41.2266V41.7525H37.1894C36.0142 36.41 31.2525 32.4127 25.5565 32.4127C18.9777 32.4127 13.6454 37.7449 13.6454 44.3233C13.6454 50.9018 18.9777 56.2339 25.5565 56.2339C26.9255 56.2339 28.2404 56.0032 29.4645 55.5784V67.8605C29.2344 68.0387 28.9499 68.1465 28.6534 68.1465H22.4558C21.8002 68.1465 21.2018 67.6167 21.1236 66.9649L20.6129 62.7152C18.993 62.2845 17.4607 61.6461 16.0428 60.8267L12.6772 63.4756C12.1627 63.8796 11.3623 63.8281 10.8992 63.367L6.52351 58.9819C6.0585 58.517 6.01276 57.7185 6.41488 57.202L9.05628 53.8366C8.2368 52.4187 7.60217 50.8866 7.16766 49.2705L2.91588 48.7598C2.2641 48.6798 1.73239 48.0833 1.73239 47.4277V41.2304C1.73239 40.5729 2.26601 39.9726 2.91588 39.8964L7.16575 39.3876C7.59836 37.7658 8.23489 36.2317 9.05437 34.8139L6.41297 31.4522C6.00704 30.9339 6.05469 30.1335 6.51588 29.6723L10.8992 25.2873C11.3623 24.8242 12.1627 24.7766 12.6772 25.1806L16.0409 27.8238C17.4569 27.0063 18.9911 26.3678 20.611 25.9353L21.1217 21.6836C21.198 21.0338 21.7983 20.5021 22.4539 20.5021H28.6514C29.307 20.5021 29.9073 21.0338 29.9855 21.6836L30.4943 25.9353C32.1123 26.3659 33.6446 27.0024 35.0606 27.8219L38.4262 25.1749C38.9445 24.7709 39.7449 24.8204 40.2061 25.2835L44.5875 29.6666C45.0544 30.1316 45.1002 30.9301 44.6962 31.4465L42.0528 34.8063C42.8723 36.2279 43.5089 37.7601 43.9434 39.3819Z" fill="white"></path>
  <path d="M56.2813 25.1773L61.9503 25.8584C62.8219 25.9625 63.5283 26.758 63.5258 27.6373V35.9018C63.5258 36.7811 62.8168 37.574 61.9478 37.6782L56.2813 38.3593C55.9292 39.6707 55.4785 40.9397 54.9333 42.158H50.8206V41.2301L50.8206 41.2284C50.8238 39.8352 49.7455 38.6237 48.3675 38.4585L48.3666 38.4584L46.2871 38.2086C47.1612 36.2399 47.6469 34.0602 47.6469 31.767C47.6469 22.9942 40.5371 15.8835 31.7654 15.8835C25.158 15.8835 19.4935 19.9183 17.1006 25.6589C16.7913 25.7987 16.4862 25.946 16.1855 26.1005L13.569 24.0444C12.4799 23.1894 10.8583 23.2859 9.87842 24.2658L5.49491 28.651C4.51367 29.6325 4.42405 31.2534 5.27641 32.3418L7.33167 34.9575C6.82161 35.9497 6.392 36.9888 6.04831 38.0667L5.40765 38.1434L1.57798 37.6833C0.708948 37.5766 0 36.7811 0 35.9069V27.6424C0 26.7656 0.71149 25.9651 1.57798 25.8634L7.24448 25.1849C7.82129 23.0222 8.67 20.9764 9.76264 19.0856L6.24077 14.6027C5.69953 13.9114 5.76306 12.844 6.37799 12.229L12.2224 6.38136C12.8398 5.76381 13.9071 5.70027 14.5931 6.23904L19.0781 9.76391C20.9661 8.67367 23.0116 7.82231 25.1715 7.24542L25.8525 1.57565C25.9541 0.70904 26.7545 0 27.6286 0H35.8921C36.7662 0 37.5666 0.70904 37.6708 1.57565L38.3492 7.24542C40.5066 7.81977 42.5496 8.66858 44.4376 9.76137L48.925 6.23142C49.6162 5.69265 50.6834 5.75873 51.2983 6.37628L57.1402 12.2214C57.7627 12.8415 57.8237 13.9063 57.285 14.595L53.7606 19.0755C54.8532 20.9713 55.702 23.0146 56.2813 25.1773Z" fill="white"></path>
</svg>
