<?xml version="1.0" encoding="UTF-8"?><svg id="Layer_1" xmlns="http://www.w3.org/2000/svg" viewBox="0 0 6000 945"><defs><style>.cls-1{fill:#780002;}.cls-2{fill:#414450;}</style></defs><path class="cls-2" d="M3620.33,683.07h23.84v86.58c10.82-14.7,29.75-25.43,55.56-25.43,41.26,0,72.63,30.01,72.63,71.15s-31.37,71.73-72.63,71.73c-25.81,0-44.74-10.59-55.56-25.15v22.28h-23.84v-201.16ZM3643.88,815.36c0,28.3,22.69,51.16,53.47,51.16s51.33-22.86,51.33-51.16-21.35-50.58-51.33-50.58-53.47,22.17-53.47,50.58Z"/><path class="cls-2" d="M3796.03,747.07h25.98l49.08,114.88,48.15-114.88h26.27l-68,154.58c-11.98,27.43-25.81,42.59-54.92,42.59-11.57,0-20.54-2.72-24.6-4.72l2.84-19.3c4.98,2.14,12.91,3.73,20.43,3.73,16.32,0,26.68-9.72,34.49-29.46l2.55-6.42-62.27-141.01Z"/><path class="cls-2" d="M4334.73,688.83v-2.41h-52.38v2.41c3.01,1.61,4.91,4.12,5.72,7.52.8,3.42-.1,8.03-2.71,13.85l-57.35,121.38-56.43-123.79c-2.41-5.22-3.06-9.33-1.96-12.34,1.1-3.01,2.96-5.22,5.57-6.62v-2.41h-52.37v2.41c1.81,1.01,3.81,2.82,6.02,5.42,2.21,2.61,4.31,6.32,6.32,11.14l19.37,42.05-45.41,85.87-60.05-126.11c-2.01-4.41-2.51-8.23-1.51-11.44,1-3.21,2.91-5.52,5.72-6.92v-2.41h-54.18v2.41c2,1.21,4.16,3.11,6.47,5.72,2.3,2.61,4.46,5.92,6.47,9.94l92.11,193.24h3.31l63.22-117.05,55.98,117.05h3.01l92.11-192.64c2.21-5.01,4.41-8.68,6.62-10.99,2.21-2.3,4.31-4.06,6.32-5.27Z"/><path class="cls-2" d="M4517.35,711.71c-9.83-9.63-21.47-17.1-34.92-22.42-13.44-5.31-28.29-7.98-44.55-7.98s-31.41,2.66-44.85,7.98c-13.44,5.32-25.09,12.79-34.92,22.42-9.83,9.63-17.41,21.13-22.73,34.47-5.32,13.35-7.98,28.04-7.98,44.09s2.66,30.76,7.98,44.1c5.31,13.35,12.89,24.83,22.73,34.47,9.83,9.63,21.47,17.11,34.92,22.42,13.44,5.31,28.4,7.98,44.85,7.98s31.1-2.66,44.55-7.98c13.44-5.31,25.08-12.8,34.92-22.42,9.83-9.63,17.41-21.12,22.73-34.47,5.31-13.34,7.98-28.04,7.98-44.1s-2.66-30.75-7.98-44.09c-5.32-13.34-12.89-24.83-22.73-34.47ZM4505.01,830.91c-6.62,11.84-15.65,21.07-27.09,27.69-11.44,6.62-24.78,9.93-40.03,9.93s-28.64-3.31-40.19-9.93c-11.54-6.62-20.62-15.85-27.24-27.69-6.62-11.84-9.93-25.39-9.93-40.64s3.31-29.05,9.93-40.79c6.62-11.74,15.7-20.92,27.24-27.54,11.54-6.62,24.93-9.93,40.19-9.93s28.6,3.31,40.03,9.93c11.44,6.62,20.47,15.81,27.09,27.54,6.62,11.74,9.94,25.34,9.94,40.79s-3.31,28.8-9.94,40.64Z"/><path class="cls-2" d="M4708.05,861.31c-4.82,2.01-11.34,3.01-19.56,3.01h-68.63v-146.28c0-8.63.9-15.15,2.71-19.57,1.81-4.41,4.51-7.62,8.13-9.63v-2.41h-52.38v2.41c3.01,2.01,5.31,5.32,6.92,9.93,1.61,4.62,2.41,11.04,2.41,19.27v143.58c0,8.43-.9,15-2.71,19.71-1.81,4.72-4.42,8.18-7.83,10.39v2.41h120.7c4.21,0,8.32.15,12.34.45,4.01.3,7.52.95,10.54,1.95v-43.65h-2.11c-2.21,3.62-5.72,6.43-10.54,8.43Z"/><path class="cls-2" d="M4868.41,686.43h-118.6v2.41c3.21,2.21,5.72,5.67,7.52,10.38,1.81,4.72,2.71,11.29,2.71,19.72v143.58c0,8.23-.8,14.65-2.41,19.27-1.61,4.62-3.91,7.93-6.92,9.93v2.41h52.38v-2.41c-3.62-2.01-6.32-5.27-8.13-9.78-1.81-4.51-2.71-10.99-2.71-19.42v-67.72h34.32c7.02,0,12.24.65,15.65,1.96,3.41,1.31,6.02,3.06,7.83,5.27h2.41v-44.25h-2.41c-1.81,2.21-4.42,3.96-7.83,5.27-3.41,1.31-8.63,1.96-15.65,1.96h-34.32v-48.76h67.12c8.02,0,14.45.96,19.27,2.86,4.82,1.91,8.32,4.77,10.54,8.58h2.41v-43.65c-3.21.8-6.82,1.41-10.83,1.81-4.02.4-8.13.6-12.34.6Z"/><path class="cls-2" d="M5341.72,874.56l-95.12-192.04h-3.01l-95.42,192.04c-2.41,5.02-4.77,8.93-7.08,11.74-2.31,2.82-4.57,4.62-6.77,5.42v2.41h54.18v-2.41c-3.01-1.81-4.97-4.41-5.87-7.83-.9-3.41.05-7.83,2.86-13.24l7.83-15.95h103.47l7.6,15.95c2.41,5.22,3.21,9.58,2.41,13.09-.8,3.51-2.71,6.17-5.72,7.98v2.41h54.48v-2.41c-2.01-1.01-4.21-2.86-6.62-5.57-2.41-2.71-4.82-6.57-7.22-11.58ZM5282.86,825.49h-75.49l37.43-79.67,38.06,79.67Z"/><path class="cls-2" d="M5503.21,688.83c3.01,2.01,5.31,5.32,6.92,9.93,1.61,4.62,2.41,11.04,2.41,19.27v102.44l-80.07-110.27c-3.81-3.41-6.17-7.02-7.07-10.84-.9-3.81-.25-7.62,1.96-11.44v-1.5h-42.74v2.41c3.21,2.21,5.72,5.87,7.52,10.99,1.81,5.11,2.71,11.79,2.71,20.02v142.67c0,8.23-.8,14.65-2.41,19.27-1.61,4.62-3.91,7.93-6.92,9.93v2.41h50.87v-2.41c-3.01-2.01-5.32-5.31-6.92-9.93-1.61-4.61-2.41-11.03-2.41-19.27v-108.89l85.01,118.44c-.39,3.8-1.02,7.09-1.93,9.71-1.61,4.62-3.91,7.93-6.92,9.93v2.41h50.87v-2.41c-3.01-2.01-5.37-5.31-7.07-9.93-1.71-4.61-2.56-11.03-2.56-19.27v-144.48c0-8.23.85-14.65,2.56-19.27,1.7-4.62,4.06-7.92,7.07-9.93v-2.41h-50.87v2.41Z"/><path class="cls-2" d="M5141.28,790.27c0-4.79-.27-9.44-.74-13.99h-113.34v41.23h2.41c2.01-3.01,5.32-5.32,9.93-6.92,4.62-1.61,11.04-2.41,19.27-2.41h47.66c-1.6,8.16-4.33,15.75-8.23,22.73-6.62,11.84-15.65,21.07-27.09,27.69-11.44,6.62-24.78,9.93-40.03,9.93s-28.64-3.31-40.19-9.93c-11.54-6.62-20.62-15.85-27.24-27.69-6.62-11.84-9.93-25.39-9.93-40.64s3.31-29.05,9.93-40.79c6.62-11.74,15.7-20.92,27.24-27.54,11.54-6.62,24.93-9.93,40.19-9.93s28.6,3.31,40.03,9.93c5.72,3.31,10.84,7.26,15.35,11.85l24.08-22.09c-9.83-9.63-21.47-17.1-34.92-22.42-13.44-5.31-28.29-7.98-44.55-7.98s-31.41,2.66-44.85,7.98c-13.44,5.32-25.09,12.79-34.92,22.42-9.83,9.63-17.41,21.12-22.73,34.47-5.32,13.35-7.98,28.04-7.98,44.09s2.66,30.76,7.98,44.1c5.31,13.35,12.89,24.83,22.73,34.47,9.83,9.63,21.47,17.11,34.92,22.42,13.44,5.31,28.4,7.98,44.85,7.98s31.1-2.66,44.55-7.98c13.44-5.31,25.08-12.8,34.92-22.42,9.83-9.63,17.41-21.12,22.73-34.47,3.27-8.21,5.53-16.95,6.79-26.19.79-5.77,1.19-11.74,1.19-17.91Z"/><path class="cls-2" d="M5803.03,776.28h-113.34v41.23h2.41c2.01-3.01,5.32-5.32,9.93-6.92,4.62-1.61,11.04-2.41,19.27-2.41h47.66c-1.6,8.16-4.33,15.75-8.23,22.73-6.62,11.84-15.65,21.07-27.09,27.69-11.44,6.62-24.78,9.93-40.03,9.93s-28.64-3.31-40.19-9.93c-11.54-6.62-20.62-15.85-27.24-27.69-6.62-11.84-9.93-25.39-9.93-40.64s3.31-29.05,9.93-40.79c6.62-11.74,15.7-20.92,27.24-27.54,11.54-6.62,24.93-9.93,40.19-9.93s28.6,3.31,40.03,9.93c5.72,3.31,10.84,7.26,15.35,11.85l24.08-22.09c-9.83-9.63-21.47-17.1-34.92-22.42-13.44-5.31-28.29-7.98-44.55-7.98s-31.41,2.66-44.85,7.98c-13.44,5.32-25.09,12.79-34.92,22.42-9.83,9.63-17.41,21.12-22.73,34.47-5.32,13.35-7.98,28.04-7.98,44.09s2.66,30.76,7.98,44.1c5.31,13.35,12.89,24.83,22.73,34.47,9.83,9.63,21.47,17.11,34.92,22.42,13.44,5.31,28.4,7.98,44.85,7.98s31.1-2.66,44.55-7.98c13.44-5.31,25.08-12.8,34.92-22.42,9.83-9.63,17.41-21.12,22.73-34.47,3.27-8.21,5.53-16.95,6.79-26.19.79-5.77,1.19-11.74,1.19-17.91,0-4.79-.27-9.44-.74-13.99Z"/><polygon class="cls-1" points="0 495.62 0 7.6 457.81 7.6 457.81 116.97 128.35 116.97 128.35 212.51 404.23 212.51 404.23 315.9 128.35 315.9 128.35 495.62 0 495.62"/><polygon class="cls-1" points="868.05 495.62 868.05 308.21 635.5 308.21 635.5 495.62 507.15 495.62 507.15 7.6 635.5 7.6 635.5 205.16 868.05 205.16 868.05 7.6 996.01 7.6 996.01 495.62 868.05 495.62"/><path class="cls-2" d="M1271.17,495.45V7.6h272.5c130.02,0,217.39,71.95,217.39,179.05s-89.4,177.19-217.39,177.19h-144.36v131.61h-128.15ZM1546.21,258.25c54.62,0,89.9-28.08,89.9-71.54,0-46.03-33.6-73.52-89.9-73.52h-146.9v145.06h146.9Z"/><path class="cls-2" d="M2150.14,495.62l-38.73-91.03h-228.11l-39.1,91.03h-137.8L1929.28,7.6h135.45l223.24,488.03h-137.82ZM2070.9,307.71l-73.56-163.2-74.17,163.2h147.73Z"/><polygon class="cls-2" points="3166.02 495.62 3008.65 287.33 2943.83 348.28 2943.83 495.62 2815.48 495.62 2815.48 7.6 2943.83 7.6 2943.83 202.45 3148.2 7.6 3316.76 7.6 3100.42 209.39 3323.05 495.62 3166.02 495.62"/><path class="cls-2" d="M3756.31,495.62l-38.73-91.03h-228.11l-39.11,91.03h-137.8L3535.43,7.6h135.45l223.26,488.03h-137.82ZM3677.06,307.71l-73.54-163.2-74.19,163.2h147.73Z"/><rect class="cls-2" x="4487.71" y="7.6" width="128.37" height="488.03"/><polygon class="cls-2" points="5100.84 495.62 4828.79 198.87 4828.79 495.62 4700.43 495.62 4700.43 7.6 4812.54 7.6 5086.11 307.63 5086.11 7.6 5214.46 7.6 5214.46 495.62 5100.84 495.62"/><path class="cls-2" d="M5819.17,219.08h-257.8v103.05h125.19c-15.55,36.18-57.05,71.48-132.29,71.48-88.9,0-153.43-59.71-153.43-141.99s61.97-141.99,150.71-141.99c45.33,0,85.43,16.21,117.52,47.19l102.69-64.8c-56.1-58.29-134.74-91.26-220.21-91.26-160.65,0-281.78,107.84-281.78,250.85s124.96,250.85,284.5,250.85c133.3,0,268.26-80.53,268.26-234.43,0-15.29-.68-28.33-2.04-38.76l-1.31-10.2Z"/><path class="cls-2" d="M4417.59,219.08h-257.8v103.05h125.19c-15.55,36.18-57.05,71.48-132.29,71.48-88.9,0-153.43-59.71-153.43-141.99s61.97-141.99,150.71-141.99c45.33,0,85.43,16.21,117.52,47.19l102.69-64.8c-56.1-58.29-134.74-91.26-220.21-91.26-160.65,0-281.78,107.84-281.78,250.85s124.96,250.85,284.5,250.85c133.3,0,268.26-80.53,268.26-234.43,0-15.29-.68-28.33-2.04-38.76l-1.31-10.2Z"/><path class="cls-2" d="M2658.54,355.32c-32.67,25.91-69.33,38.28-112.56,38.28-88.92,0-153.44-59.71-153.44-141.99s61.97-141.99,150.72-141.99c41.15,0,76.81,12.36,106.53,36.84l103.3-65.18C2698.79,30.19,2623.67.76,2543.26.76c-160.65,0-281.8,107.84-281.8,250.85s124.98,250.85,284.52,250.85c85.91,0,163.95-32.02,217.31-86.86l-104.75-60.28Z"/><path class="cls-2" d="M5851.46,71.77c0-40,32.12-71.01,73.79-71.01s74.75,31.01,74.75,71.01-32.81,71.16-74.75,71.16-73.79-31.15-73.79-71.16ZM5863.92,71.77c0,33.36,27,59.53,61.33,59.53s62.29-26.17,62.29-59.53-27.55-59.94-62.29-59.94-61.33,26.31-61.33,59.94ZM5898.94,36.33h29.9c14.81,0,24.23,8.31,24.23,21.46,0,9.68-5.27,16.89-13.56,19.38l17.02,29.21h-13.7l-15.23-27.27h-16.88v27.27h-11.77V36.33ZM5928.57,68.58c8.16,0,12.32-4.28,12.32-10.79s-4.16-10.94-12.32-10.94h-17.85v21.73h17.85Z"/></svg>