<svg width="1620" height="298" viewBox="0 0 1620 298" fill="none" xmlns="http://www.w3.org/2000/svg">
<path d="M208.222 184.754C208.222 215.191 199.261 240.934 181.34 261.982C161.713 285.309 135.401 296.97 102.404 296.97C69.4072 296.97 43.6638 285.734 25.1743 263.265C8.39158 242.782 0 216.613 0 184.754V0H39.2551V189.021C39.2551 210.924 44.8019 228.418 55.8955 241.503C66.9895 254.587 82.4922 261.132 102.404 261.132C123.454 261.132 140.094 253.449 152.326 238.089C162.851 224.72 168.114 209.36 168.114 192.008C168.114 168.967 161.429 151.188 148.059 138.672C136.681 127.863 122.601 122.458 105.818 122.458C95.5772 122.458 85.7637 124.307 76.3764 128.005C65.8518 133.125 57.8869 136.681 52.4821 138.672V102.831C60.7313 97.9953 69.1229 94.1548 77.6564 91.3105C86.4746 88.4657 95.2929 87.0437 104.111 87.0437C131.418 87.0437 155.17 95.7196 175.367 113.071C197.27 131.846 208.222 155.739 208.222 184.754Z" fill="#282828"/>
<path d="M441.477 189.008C441.477 214.893 433.228 238.077 416.73 258.556C397.67 282.167 372.924 293.973 342.487 293.973C306.076 293.973 278.342 283.306 259.284 261.972C241.932 242.628 233.256 216.885 233.256 184.741C233.256 154.589 243.638 129.841 264.404 110.498C284.031 92.293 307.783 83.1904 335.661 83.1904C364.105 83.1904 387.857 91.1553 406.917 107.085C429.956 126.143 441.477 153.451 441.477 189.008ZM401.367 184.741C401.367 164.829 395.681 148.899 384.3 136.953C372.924 125.005 356.711 119.032 335.661 119.032C314.324 119.032 297.97 126.285 286.591 140.793C277.204 152.74 272.511 167.389 272.511 184.741C272.511 203.515 276.777 219.445 285.311 232.529C296.405 249.313 313.189 257.706 335.661 257.706C355.856 257.706 371.36 252.725 382.167 242.768C394.967 230.823 401.367 211.48 401.367 184.741Z" fill="#282828"/>
<path d="M675.438 184.934C675.438 215.37 666.48 241.114 648.558 262.162C628.929 285.489 602.619 297.15 569.623 297.15C536.624 297.15 510.883 285.914 492.392 263.445C475.61 242.961 467.217 216.793 467.217 184.934V0.179688H506.472V189.201C506.472 211.104 512.018 228.598 523.114 241.683C534.206 254.767 549.709 261.312 569.623 261.312C590.672 261.312 607.31 253.628 619.545 238.269C630.068 224.9 635.329 209.539 635.329 192.188C635.329 169.147 628.644 151.368 615.275 138.852C603.898 128.043 589.818 122.638 573.036 122.638C562.794 122.638 552.981 124.487 543.594 128.185C533.067 133.305 525.103 136.861 519.697 138.852V103.01C527.95 98.175 536.339 94.3345 544.873 91.4902C553.691 88.6454 562.509 87.2234 571.328 87.2234C598.636 87.2234 622.388 95.8993 642.583 113.251C664.487 132.025 675.438 155.919 675.438 184.934Z" fill="#282828"/>
<path d="M838.608 290.519H795.94C762.941 290.519 737.765 278.718 720.413 255.106C706.763 236.617 699.934 215.567 699.934 191.957C699.934 169.485 707.757 148.436 723.401 128.808C742.461 104.914 767.777 92.9668 799.352 92.9668H838.608V128.808H809.165C793.237 128.808 779.154 133.075 766.923 141.609C750.71 152.987 742.601 169.77 742.601 191.957C742.601 207.603 747.582 221.256 757.535 232.919C769.77 247.142 786.977 254.252 809.165 254.252H838.608V290.519Z" fill="#282828"/>
<path d="M1075.7 290.556H1035.6V174.926C1035.6 159.85 1030.9 147.76 1021.52 138.658C1010.14 127.849 992.927 122.444 969.889 122.444C955.095 122.444 941.585 126.853 929.354 135.671C912.287 147.903 903.754 165.681 903.754 189.007C903.754 211.478 911.149 228.973 925.938 241.489C938.742 252.299 954.526 257.701 973.301 257.701C982.404 257.701 990.513 255.712 997.623 251.73C1005.02 247.463 1013.27 240.778 1022.37 231.675V277.33C1015.26 282.736 1007.72 286.858 999.756 289.705C991.792 292.549 980.84 293.972 966.901 293.972C940.162 293.972 917.264 284.725 898.204 266.238C877.724 246.324 867.482 220.581 867.482 189.007C867.482 159.423 876.445 135.244 894.366 116.471C913.707 96.2741 940.021 86.1758 973.301 86.1758C1004.59 86.1758 1029.91 94.994 1049.25 112.63C1066.89 128.844 1075.7 148.472 1075.7 171.512V290.556Z" fill="#282828"/>
<path d="M1209.97 119.032H1200.15C1182.23 121.307 1168.86 128.846 1160.05 141.646C1151.23 154.447 1146.82 173.505 1146.82 198.821V290.557H1110.55V89.5906H1146.82V109.218C1151.08 102.676 1156.77 97.1288 1163.88 92.5773C1173.56 86.3195 1184.22 83.1904 1195.89 83.1904H1209.97V119.032Z" fill="#282828"/>
<path d="M1431.82 201.807C1431.82 223.71 1424.14 243.906 1408.78 262.397C1389.72 285.439 1363.13 296.956 1328.99 296.956C1299.12 296.956 1273.95 287.428 1253.47 268.372C1233.27 249.027 1223.17 224.706 1223.17 195.407C1223.17 160.419 1234.98 132.684 1258.59 112.203C1278.78 94.8521 1302.25 86.1758 1328.99 86.1758C1350.61 86.1758 1370.38 92.5763 1388.3 105.377C1403.94 116.471 1417.31 131.973 1428.41 151.885L1288.88 228.262L1272.67 198.82L1371.66 142.071C1363.13 133.538 1357.29 128.56 1354.16 127.138C1347.34 124.008 1338.94 122.444 1328.99 122.444C1308.22 122.444 1291.72 129.982 1279.49 145.058C1268.4 158.712 1262.85 175.495 1262.85 195.407C1262.85 213.043 1268.4 228.119 1279.49 240.635C1291.72 254.288 1308.22 261.117 1328.99 261.117C1350.32 261.117 1365.83 255.712 1375.5 244.9C1382.61 236.937 1389.01 221.577 1394.7 198.82L1431.82 201.807Z" fill="#282828"/>
<path d="M1620 238.084C1620 259.134 1612.18 273.927 1596.53 282.46C1585.72 288.432 1571.07 291.419 1552.58 291.419L1537.22 290.565H1454.87V254.297H1540.21L1553.44 255.151C1561.97 255.151 1568.08 254.297 1571.78 252.589C1577.47 250.031 1580.32 245.194 1580.32 238.083C1580.32 227.843 1570.65 219.309 1551.3 212.483C1545.33 210.491 1532.81 206.935 1513.76 201.815C1494.7 196.695 1480.47 189.726 1471.09 180.908C1460.28 170.952 1454.87 158.009 1454.87 142.08C1454.87 121.03 1462.69 106.523 1478.34 98.5579C1490 92.5844 1508.49 89.5977 1533.81 89.5977H1610.18V122.452H1530.39C1519.02 122.452 1510.2 123.59 1503.94 125.866C1497.68 128.141 1494.56 132.408 1494.56 138.666C1494.56 149.76 1505.08 158.294 1526.13 164.267C1535.51 166.827 1544.9 169.245 1554.29 171.521C1579.32 180.339 1596.53 189.442 1605.92 198.829C1615.3 208.216 1620 221.301 1620 238.084Z" fill="#282828"/>
</svg>
