<svg width="244" height="381" viewBox="0 0 244 381" fill="none" xmlns="http://www.w3.org/2000/svg">
<g opacity="0.2">
<path d="M299.91 265.793C300.001 264.081 300.103 262.357 300.19 260.597C304.883 165.02 270.439 97.6194 206.373 91.8616C199.025 91.1963 193.641 91.0121 185.473 90.652C179.801 90.0171 174.084 90.193 168.253 89.6692C125.011 85.779 98.8225 119.648 77.9794 167.063C77.801 166.905 62.9331 153.69 46.7601 188.528C46.7601 188.528 37.1163 218.46 58.9573 216.75C56.0436 225.152 53.1679 233.695 50.2846 242.288C23.2651 322.79 89.7705 363.05 139.693 394.258C156.041 404.482 193.85 406.093 210.182 399.444C254.995 387.618 279.597 370.3 291.571 325.477C295.945 329.008 308.848 334.9 324.194 300.336C324.194 300.336 343.459 257.596 299.91 265.793Z" fill="url(#paint0_linear_767_2421)"/>
<path d="M228.311 311.119C172.375 397.945 110.199 310.162 110.199 310.162C99.4432 330.674 77.4353 323.773 77.4353 323.773C37.8887 313.093 49.3535 260.651 49.3535 260.651C48.8034 258.171 50.9165 248.615 52.2064 236.784C22.9258 316.42 80.3755 356.078 136.805 392.632C146.088 398.646 162.079 402.826 177.459 403.958C265.51 403.919 278.204 321.36 278.204 321.36C258.066 372.851 228.311 311.119 228.311 311.119Z" fill="url(#paint1_radial_767_2421)"/>
<path opacity="0.8" d="M148.895 263.424C148.895 263.424 152.078 257.154 168.331 272.651C168.331 272.651 169.553 275.83 174.879 274.966C174.879 274.966 183.59 283.334 159.529 279.472C159.529 279.472 147.545 274.467 148.895 263.424Z" fill="#E3AE75"/>
<path d="M164.599 237.932C164.599 237.932 159.004 256.294 146.605 261.554C146.605 261.554 148.085 291.794 176.459 278.755C176.459 278.755 151.351 287.857 148.897 263.395C148.897 263.395 167.054 251.039 164.599 237.932Z" fill="#B57C5E"/>
<path opacity="0.6" d="M165.559 265.958C165.559 265.958 167.979 261.164 176.53 267.195C176.53 267.195 177.096 277.816 165.559 265.958Z" fill="#FFF4EF"/>
<path opacity="0.5" d="M241.016 287.875C241.016 287.875 247.932 281.246 254.871 288.675C261.821 296.093 234.764 289.949 241.016 287.875Z" fill="white"/>
<path opacity="0.64" d="M79.1174 237.15C79.1174 237.15 60.983 233.587 56.1876 248.433C51.3922 263.285 65.0879 246.333 79.1174 237.15Z" fill="white"/>
<path d="M63.5768 212.569C63.5768 212.569 47.2558 207.439 54.0353 187.648C54.0353 187.648 64.4607 169.773 75.8194 176.096L72.7996 183.043C72.7996 183.043 63.9106 177.518 58.2009 191.896C58.2009 191.896 52.4647 204.012 65.8645 205.906L63.5768 212.569Z" fill="#EDC69E"/>
<path d="M55.4782 188.866C55.4782 188.866 61.8139 175.354 74.2348 175.792C63.5135 171.842 54.0442 188.064 54.0442 188.064C47.2684 207.85 63.4566 213.426 63.4566 213.426L63.4073 212.038C59.5262 209.973 50.3073 203.959 55.4782 188.866Z" fill="#E3AE75"/>
<path d="M86.4338 158.824C86.4338 158.824 57.4681 217.321 47.957 261.669C70.5985 193.093 70.625 193.036 86.4338 158.824Z" fill="white"/>
<path d="M299.839 265.858C299.934 264.146 300.032 262.426 300.12 260.67C301.948 223.509 297.855 190.608 288.408 163.936C265.323 151.993 269.287 129.359 237.165 151.295C237.165 151.295 294.084 196.447 224.179 242.399L237.344 279.444C237.344 279.444 308.572 275.995 263.069 358.015C242.416 395.241 202.073 400.949 190.023 403.305C197.93 402.839 205.054 401.576 210.115 399.516C254.928 387.686 279.531 370.368 291.5 325.54C295.882 329.076 308.785 334.972 324.127 300.408C324.127 300.408 343.384 257.662 299.839 265.858Z" fill="url(#paint2_linear_767_2421)"/>
<path d="M265.76 177.973C265.76 177.973 309.977 205.252 291.839 291.959C291.839 291.959 290.648 380.557 216.812 396.516C216.812 396.516 271.887 392.967 291.251 327.53C291.251 327.53 325.422 194.926 265.76 177.973Z" fill="#CC8E66"/>
<path d="M168.467 215.362C168.467 215.362 170.812 162.967 99.8182 164.752C99.8182 164.752 40.8814 173.446 83.8083 233.361C83.8083 233.361 115.786 277.045 155.041 245.761C155.041 245.761 169.389 233.784 168.467 215.362Z" fill="#120F11"/>
<path d="M98.7724 221.964C102.244 190.553 113.204 174.596 123.535 167.573C116.596 166.284 111.622 164.832 96.7732 167.272C96.7732 167.272 45.3214 177.687 83.4644 230.342C83.4644 230.342 91.6325 242.778 102.684 248.582C99.5995 238.575 98.7724 221.964 98.7724 221.964Z" fill="url(#paint3_linear_767_2421)"/>
<path d="M165.227 215.843C165.227 215.843 164.483 164.975 102.91 169.903C102.91 169.903 49.4133 177.796 88.3795 232.183C88.3795 232.183 117.463 270.748 153.045 243.441C153.045 243.441 166.062 232.566 165.227 215.843Z" fill="#FFF1E8"/>
<path d="M163.016 213.323C163.612 232.47 150.576 248.539 133.902 249.221C117.221 249.908 98.8286 230.867 98.2368 211.728C97.6412 192.58 111.864 179.436 128.538 178.751C145.219 178.067 162.42 194.186 163.016 213.323Z" fill="#6B6B6B"/>
<path d="M159.226 213.985C159.757 230.98 148.189 245.248 133.382 245.855C118.571 246.462 102.246 229.557 101.719 212.563C101.192 195.568 113.821 183.898 128.621 183.288C143.428 182.685 158.694 196.991 159.226 213.985Z" fill="white"/>
<path d="M141.234 218.236C141.45 225.126 136.518 230.924 130.232 231.18C123.942 231.442 118.668 226.06 118.452 219.168C118.239 212.282 123.164 206.483 129.458 206.226C135.74 205.97 141.018 211.344 141.234 218.236Z" fill="url(#paint4_linear_767_2421)"/>
<path d="M122.367 209.34C122.367 209.34 123.589 213.345 127.66 217.7C127.66 217.7 126.062 208.175 126.305 206.873C126.305 206.873 124.04 207.613 122.367 209.34Z" fill="white"/>
<path d="M268.605 247.393C268.605 247.393 271.992 193.289 205.035 200.528C205.035 200.528 150.458 208.584 190.217 264.064C190.217 264.064 218.477 301.486 256.172 275.54C256.172 275.54 269.443 264.454 268.605 247.393Z" fill="#080808"/>
<path d="M207.388 257.689C211.004 224.972 221.509 209.251 232.264 201.939C225.037 200.594 216.425 200.262 206.148 201.366C206.148 201.366 151.566 209.357 191.306 264.21C191.306 264.21 198.196 273.233 209.71 279.279C206.497 268.857 207.388 257.689 207.388 257.689Z" fill="url(#paint5_linear_767_2421)"/>
<path d="M262.915 247.236C262.915 247.236 266.257 202.609 209.058 203.658C209.058 203.658 157.8 212.712 193.166 262.068C193.166 262.068 221.248 294.571 251.852 272.284C251.852 272.284 263.674 262.414 262.915 247.236Z" fill="#FFF1E8"/>
<path d="M251.414 242.717C251.983 261.08 239.479 276.491 223.484 277.143C207.493 277.798 189.856 259.538 189.283 241.179C188.71 222.825 202.349 210.216 218.34 209.559C234.346 208.91 250.845 224.358 251.414 242.717Z" fill="#6B6B6B"/>
<path d="M247.807 243.39C248.319 259.69 237.222 273.377 223.014 273.951C208.821 274.54 193.164 258.322 192.652 242.021C192.144 225.728 204.261 214.538 218.458 213.956C232.658 213.373 247.306 227.094 247.807 243.39Z" fill="white"/>
<path d="M227.504 243.135C227.72 250.032 222.795 255.823 216.505 256.086C210.215 256.341 204.942 250.96 204.726 244.074C204.509 237.182 209.441 231.387 215.728 231.131C222.018 230.869 227.291 236.249 227.504 243.135Z" fill="url(#paint6_linear_767_2421)"/>
<path d="M208.629 234.238C208.629 234.238 209.843 238.245 213.921 242.598C213.921 242.598 212.32 233.08 212.563 231.775C212.563 231.775 210.298 232.513 208.629 234.238Z" fill="white"/>
<path d="M168.408 219.222C168.408 219.222 173.564 217.717 177.126 221.21C177.126 221.21 175.677 226.765 175.787 230.309C175.787 230.309 174.296 225.36 166.492 227.942C166.492 227.942 168.397 221.324 168.408 219.222Z" fill="#120F11"/>
<path d="M176.479 221.62C176.479 221.62 169.058 218.529 167.07 226.852L168.262 220.017C168.262 220.017 171.577 217.941 176.479 221.62Z" fill="white"/>
<path d="M116.258 150.974L125.378 155.123C125.378 155.123 135.637 146.944 152.162 147.131L166.245 141.384C166.245 141.384 154.814 158.554 141.001 161.54C141.001 161.54 154.12 161.705 158.005 165.849C158.005 165.849 206.937 145.747 217.112 159.119C217.112 159.119 220.299 165.02 215.159 168.681C210.018 172.336 205.507 173.838 205.507 173.838C205.507 173.838 209.453 174.642 215.177 177.641C215.177 177.641 224.973 169.446 230.19 172.861C230.19 172.861 246.302 131.642 221.745 121.005C197.199 110.387 151.229 116.361 116.258 150.974Z" fill="#EDC3A4"/>
<path d="M371.459 245.471C364.327 203.986 322.591 195.048 322.591 195.048C364.388 185.367 378.197 210.709 378.197 210.709C373.277 164.083 324.913 158.088 324.913 158.088C338.188 138.118 359.949 154.165 359.949 154.165C332.755 89.4029 301.653 93.7912 301.653 93.7912C317.299 73.9689 345.149 69.0934 345.149 69.0934C309.017 48.1568 248.384 83.5206 248.384 83.5206C248.381 55.8688 267.41 50.2373 267.41 50.2373C240.93 35.8802 216.524 49.9543 216.524 49.9543C221.824 34.5573 219.464 5.128 203.671 -8.23636C203.629 -8.23985 201.853 -6.35571 203.234 -3.92337C206.398 31.6856 193.48 59.2404 193.48 59.2404C180.464 7.09617 158.092 -14.4043 158.092 -14.4043C161.066 11.3761 153.118 59.4024 153.118 59.4024C119.061 -20.6506 59.3769 -3.26326 59.3769 -3.26326C95.6837 12.8091 98.787 74.2015 98.787 74.2015C48.6518 38.9003 0 76.1326 0 76.1326C69.0625 77.7838 86.5709 117.422 86.5709 117.422C56.4784 123.135 43.257 153.376 43.257 153.376C78.179 145.974 82.0031 158.143 82.0031 158.143C119.163 102.075 116.257 150.948 116.257 150.948C178.464 131.213 141.001 161.515 141.001 161.515C257.569 131.336 205.503 173.817 205.503 173.817C315.326 156.988 299.98 261.275 299.98 261.275C303.254 255.034 312.595 252.369 312.595 252.369C330.202 247.914 340.115 263.197 340.115 263.197C341.557 242.089 327.99 229.205 327.99 229.205C346.272 216.991 371.459 245.471 371.459 245.471Z" fill="url(#paint7_linear_767_2421)"/>
<path d="M252.17 117.033C249.791 80.0249 303.989 67.6364 303.989 67.6364C247.177 76.0002 242.708 101.174 242.708 101.174C226.691 93.2129 226.93 76.8288 226.93 76.8288C225.294 48.4533 253.156 50.7633 253.156 50.7633C215.988 47.0612 209.133 58.905 207.957 62.1569C214.975 38.1605 204.193 21.742 204.193 21.742C198.73 87.4656 171.066 67.0546 171.066 67.0546C179.822 34.8081 159.199 -0.543579 159.199 -0.543579C163.087 27.7375 149.506 73.9672 149.506 73.9672C126.128 -1.77586 66.7967 -1.93262 66.7967 -1.93262C107.296 20.5476 107.8 85.1605 107.8 85.1605C47.4142 44.9062 13.5469 72.6456 13.5469 72.6456C60.4459 59.522 117.767 115.768 117.767 115.768C58.6287 121.634 51.8454 145.193 51.8454 145.193C68.4281 122.968 129.197 121.34 129.197 121.34C118.112 126.967 120.122 143.256 120.122 143.256C135.844 117.621 178.452 135.695 178.452 135.695C158.956 136.499 156.414 151.25 156.414 151.25C168.251 145.595 191.936 137.42 214.748 143.693C251.9 153.907 231.444 145.944 249.142 132.426C294.201 102.587 324.552 122.673 324.552 122.673C301.558 100.153 259.131 113.387 252.17 117.033Z" fill="#4498C2"/>
<path d="M43.2383 153.388C43.2383 153.388 64.0663 118.818 105.874 118.706C105.874 118.706 67.9511 106.526 43.2383 153.388Z" fill="#A4DCF3"/>
<path d="M100.891 91.035C100.891 91.035 134.31 57.1507 150.119 106.087C150.119 106.087 137.061 66.0885 100.891 91.035Z" fill="#A4DCF3"/>
<path d="M228.998 57.8027C228.998 57.8027 180.304 68.8828 171.852 110.816L177.557 114.848C177.557 114.848 176.446 76.9849 228.998 57.8027Z" fill="#A4DCF3"/>
<path d="M158.102 -14.3916C158.102 -14.3916 167.996 31.7932 149.282 79.7389L146.922 71.042C146.922 71.042 162.401 34.2151 158.102 -14.3916Z" fill="#A4DCF3"/>
<path d="M100.879 91.026C100.879 91.026 130.41 62.6674 152.145 109.609L143.146 109.98C143.146 109.98 136.393 74.0588 100.879 91.026Z" fill="url(#paint8_linear_767_2421)"/>
<path d="M101.32 8.71289C101.32 8.71289 154.752 36.6891 152.339 104.013C152.339 104.013 155.579 63.3739 101.32 8.71289Z" fill="#2A6782"/>
<path d="M228.997 57.7949C228.997 57.7949 194.716 66.0912 192.652 120.469C192.652 120.469 193.054 85.1211 228.997 57.7949Z" fill="url(#paint9_linear_767_2421)"/>
<path d="M26.0234 74.7012C26.0234 74.7012 79.353 79.3934 98.6559 116.54L90.4044 116.876C90.4044 116.876 78.1617 85.8318 26.0234 74.7012Z" fill="#164A61"/>
<path d="M260.314 50.4531C260.314 50.4531 222.145 54.6037 239.661 86.6317C239.661 86.6317 235.947 63.5188 260.314 50.4531Z" fill="#164A61"/>
<path d="M179.855 23.6064C179.855 23.6064 194.105 47.153 177.469 67.6533C177.469 67.6533 205.535 76.8492 179.855 23.6064Z" fill="#164A61"/>
<path d="M184.017 119.99C184.017 119.99 152.248 88.5407 129.238 121.369C129.238 121.369 140.586 99.7897 184.017 119.99Z" fill="#164A61"/>
<path d="M211.162 120.917C211.162 120.917 222.995 112.968 221.898 137.535C221.898 137.535 240.253 100.53 219.907 103.496C219.907 103.496 209.109 114.603 211.162 120.917Z" fill="url(#paint10_linear_767_2421)"/>
<path d="M6.1875 73.5919C6.1875 73.5919 33.0856 45.802 88.8128 68.5117C88.8128 68.5117 51.4325 50.2622 6.1875 73.5919Z" fill="#A4DCF3"/>
<path d="M44.0205 152.816C44.0205 152.816 74.629 128.9 94.5199 141.15L82.0155 158.144C82.0155 158.144 70.4103 147.205 43.2656 153.377" fill="#164A61"/>
<path d="M110.148 310.184C110.148 310.184 164.87 361.215 227.017 309.789L227.02 311.312C227.02 311.312 171.039 373.002 109.75 311.003L110.148 310.184Z" fill="#5C3A09"/>
<path d="M226.319 295.332C226.319 295.332 226.979 313.151 237.31 317.923C237.31 317.923 220.966 320.326 226.319 295.332Z" fill="#885241"/>
<path d="M110.907 299.697C110.907 299.697 112.429 322.987 100.266 319.631C100.266 319.631 108.696 312.602 110.907 299.697Z" fill="#CC7D65"/>
<path d="M158.656 348.377C158.656 348.377 203.37 360.569 198.195 342.93C198.195 342.93 189.959 353.676 158.656 348.377Z" fill="#CB896A"/>
</g>
<defs>
<linearGradient id="paint0_linear_767_2421" x1="186.68" y1="235.845" x2="175.732" y2="596.346" gradientUnits="userSpaceOnUse">
<stop stop-color="#F5E2BF"/>
<stop offset="1" stop-color="#F09D68"/>
</linearGradient>
<radialGradient id="paint1_radial_767_2421" cx="0" cy="0" r="1" gradientTransform="matrix(231.931 1.99652 -1.7395 266.199 129.888 218.642)" gradientUnits="userSpaceOnUse">
<stop stop-color="#E9D1A7"/>
<stop offset="0.2929" stop-color="#E9CEA4"/>
<stop offset="0.5248" stop-color="#EAC69A"/>
<stop offset="0.7356" stop-color="#ECB889"/>
<stop offset="0.9329" stop-color="#EFA572"/>
<stop offset="1" stop-color="#F09D68"/>
</radialGradient>
<linearGradient id="paint2_linear_767_2421" x1="250.686" y1="284.796" x2="308.486" y2="305.898" gradientUnits="userSpaceOnUse">
<stop stop-color="#F0C49A"/>
<stop offset="1" stop-color="#CA9C6A"/>
</linearGradient>
<linearGradient id="paint3_linear_767_2421" x1="69.7612" y1="208.752" x2="124.766" y2="207.041" gradientUnits="userSpaceOnUse">
<stop stop-color="#6E6C6C"/>
<stop offset="1" stop-color="#231F20"/>
</linearGradient>
<linearGradient id="paint4_linear_767_2421" x1="118.456" y1="219.169" x2="141.241" y2="218.461" gradientUnits="userSpaceOnUse">
<stop stop-color="#4D4D4F"/>
<stop offset="0.522" stop-color="#171600"/>
</linearGradient>
<linearGradient id="paint5_linear_767_2421" x1="177.167" y1="241.449" x2="233.439" y2="239.699" gradientUnits="userSpaceOnUse">
<stop stop-color="#6E6C6C"/>
<stop offset="1" stop-color="#231F20"/>
</linearGradient>
<linearGradient id="paint6_linear_767_2421" x1="204.726" y1="244.073" x2="227.511" y2="243.364" gradientUnits="userSpaceOnUse">
<stop stop-color="#4D4D4F"/>
<stop offset="0.6044" stop-color="#171600"/>
</linearGradient>
<linearGradient id="paint7_linear_767_2421" x1="1.81344" y1="134.524" x2="375.466" y2="122.906" gradientUnits="userSpaceOnUse">
<stop stop-color="#0085A8"/>
<stop offset="1" stop-color="#006280"/>
</linearGradient>
<linearGradient id="paint8_linear_767_2421" x1="101.084" y1="97.5209" x2="151.724" y2="95.9464" gradientUnits="userSpaceOnUse">
<stop stop-color="#0085A8"/>
<stop offset="1" stop-color="#006280"/>
</linearGradient>
<linearGradient id="paint9_linear_767_2421" x1="191.704" y1="89.9139" x2="229.957" y2="88.7242" gradientUnits="userSpaceOnUse">
<stop stop-color="#0085A8"/>
<stop offset="1" stop-color="#006280"/>
</linearGradient>
<linearGradient id="paint10_linear_767_2421" x1="210.953" y1="120.878" x2="229.765" y2="120.293" gradientUnits="userSpaceOnUse">
<stop stop-color="#0085A8"/>
<stop offset="1" stop-color="#006280"/>
</linearGradient>
</defs>
</svg>
