<svg width="1560" height="287" viewBox="0 0 1560 287" fill="none" xmlns="http://www.w3.org/2000/svg">
<path d="M200.51 177.911C200.51 207.221 191.881 232.011 174.624 252.279C155.724 274.742 130.386 285.971 98.6113 285.971C66.8365 285.971 42.0466 275.151 24.242 253.515C8.08078 233.79 0 208.59 0 177.911V0H37.8012V182.02C37.8012 203.112 43.1425 219.958 53.8253 232.559C64.5084 245.158 79.4369 251.46 98.6113 251.46C118.882 251.46 134.906 244.061 146.684 229.271C156.819 216.397 161.887 201.605 161.887 184.896C161.887 162.709 155.45 145.589 142.576 133.536C131.619 123.127 118.06 117.923 101.899 117.923C92.0373 117.923 82.5872 119.703 73.5476 123.264C63.4128 128.195 55.7429 131.619 50.5383 133.536V99.0222C58.482 94.3659 66.5627 90.6676 74.7802 87.9286C83.2719 85.1892 91.7635 83.8198 100.255 83.8198C126.551 83.8198 149.423 92.1744 168.872 108.884C189.964 126.962 200.51 149.971 200.51 177.911Z" fill="#282828"/>
<path d="M425.125 182.01C425.125 206.936 417.182 229.261 401.295 248.982C382.941 271.719 359.111 283.087 329.801 283.087C294.74 283.087 268.033 272.815 249.68 252.272C232.971 233.643 224.616 208.854 224.616 177.901C224.616 148.865 234.614 125.034 254.61 106.408C273.511 88.8768 296.383 80.1113 323.229 80.1113C350.619 80.1113 373.492 87.7812 391.846 103.121C414.031 121.473 425.125 147.77 425.125 182.01ZM386.501 177.901C386.501 158.727 381.026 143.387 370.066 131.882C359.111 120.377 343.499 114.625 323.229 114.625C302.682 114.625 286.933 121.61 275.976 135.58C266.937 147.085 262.417 161.192 262.417 177.901C262.417 195.979 266.526 211.319 274.744 223.919C285.426 240.081 301.589 248.163 323.229 248.163C342.676 248.163 357.605 243.367 368.012 233.779C380.338 222.276 386.501 203.649 386.501 177.901Z" fill="#282828"/>
<path d="M650.422 178.084C650.422 207.394 641.795 232.183 624.537 252.452C605.635 274.915 580.299 286.144 548.526 286.144C516.749 286.144 491.961 275.324 474.155 253.687C457.994 233.962 449.912 208.763 449.912 178.084V0.172852H487.713V182.193C487.713 203.285 493.054 220.131 503.739 232.731C514.42 245.331 529.349 251.633 548.526 251.633C568.795 251.633 584.817 244.234 596.599 229.444C606.732 216.57 611.798 201.778 611.798 185.069C611.798 162.882 605.361 145.762 592.486 133.709C581.531 123.3 567.973 118.096 551.812 118.096C541.949 118.096 532.5 119.876 523.46 123.437C513.323 128.367 505.654 131.792 500.449 133.709V99.195C508.396 94.5387 516.475 90.8405 524.692 88.1014C533.184 85.362 541.675 83.9927 550.167 83.9927C576.464 83.9927 599.337 92.3473 618.784 109.056C639.876 127.135 650.422 150.144 650.422 178.084Z" fill="#282828"/>
<path d="M807.548 279.759H766.46C734.683 279.759 710.44 268.395 693.731 245.658C680.586 227.853 674.01 207.583 674.01 184.848C674.01 163.208 681.544 142.938 696.608 124.037C714.962 101.028 739.34 89.5234 769.746 89.5234H807.548V124.037H779.196C763.857 124.037 750.296 128.146 738.518 136.364C722.905 147.32 715.097 163.482 715.097 184.848C715.097 199.913 719.893 213.061 729.478 224.292C741.259 237.988 757.83 244.835 779.196 244.835H807.548V279.759Z" fill="#282828"/>
<path d="M1035.86 279.794H997.243V168.447C997.243 153.929 992.721 142.287 983.681 133.522C972.726 123.113 956.152 117.908 933.967 117.908C919.722 117.908 906.712 122.154 894.934 130.646C878.499 142.424 870.282 159.544 870.282 182.006C870.282 203.645 877.402 220.491 891.644 232.544C903.974 242.954 919.173 248.156 937.253 248.156C946.019 248.156 953.827 246.24 960.674 242.406C967.795 238.297 975.738 231.859 984.504 223.094V267.058C977.657 272.263 970.397 276.233 962.728 278.975C955.059 281.713 944.513 283.084 931.09 283.084C905.341 283.084 883.291 274.179 864.937 256.377C845.216 237.2 835.354 212.411 835.354 182.006C835.354 153.518 843.984 130.235 861.242 112.156C879.866 92.7077 905.206 82.9834 937.253 82.9834C967.385 82.9834 991.764 91.475 1010.39 108.458C1027.37 124.072 1035.86 142.972 1035.86 165.159V279.794Z" fill="#282828"/>
<path d="M1165.15 114.625H1155.7C1138.45 116.817 1125.57 124.076 1117.08 136.402C1108.59 148.728 1104.34 167.081 1104.34 191.46V279.797H1069.42V86.2744H1104.34V105.175C1108.45 98.8748 1113.93 93.5335 1120.78 89.1506C1130.09 83.1245 1140.36 80.1113 1151.6 80.1113H1165.15V114.625Z" fill="#282828"/>
<path d="M1378.79 194.332C1378.79 215.424 1371.39 234.872 1356.6 252.677C1338.25 274.866 1312.64 285.957 1279.77 285.957C1251.01 285.957 1226.76 276.782 1207.04 258.431C1187.59 239.803 1177.87 216.383 1177.87 188.169C1177.87 154.477 1189.24 127.769 1211.97 108.047C1231.42 91.3383 1254.02 82.9834 1279.77 82.9834C1300.59 82.9834 1319.62 89.1469 1336.88 101.473C1351.95 112.156 1364.82 127.085 1375.5 146.259L1241.15 219.807L1225.53 191.456L1320.86 136.809C1312.64 128.591 1307.02 123.798 1304.01 122.428C1297.44 119.415 1289.35 117.908 1279.77 117.908C1259.77 117.908 1243.88 125.167 1232.11 139.685C1221.42 152.833 1216.08 168.994 1216.08 188.169C1216.08 205.152 1221.42 219.67 1232.11 231.722C1243.88 244.869 1259.77 251.446 1279.77 251.446C1300.31 251.446 1315.24 246.24 1324.55 235.829C1331.4 228.161 1337.57 213.369 1343.05 191.456L1378.79 194.332Z" fill="#282828"/>
<path d="M1560 229.265C1560 249.535 1552.47 263.78 1537.4 271.998C1526.99 277.748 1512.88 280.625 1495.08 280.625L1480.29 279.802H1400.99V244.878H1483.17L1495.9 245.701C1504.12 245.701 1510.01 244.878 1513.57 243.233C1519.05 240.769 1521.79 236.112 1521.79 229.264C1521.79 219.403 1512.48 211.186 1493.85 204.612C1488.09 202.694 1476.04 199.27 1457.69 194.34C1439.34 189.409 1425.64 182.698 1416.6 174.207C1406.19 164.619 1400.99 152.156 1400.99 136.817C1400.99 116.546 1408.52 102.577 1423.59 94.9067C1434.82 89.1544 1452.62 86.2783 1477 86.2783H1550.55V117.916H1473.71C1462.76 117.916 1454.27 119.012 1448.24 121.203C1442.21 123.394 1439.2 127.504 1439.2 133.53C1439.2 144.212 1449.33 152.43 1469.6 158.182C1478.64 160.648 1487.68 162.976 1496.72 165.167C1520.83 173.659 1537.4 182.424 1546.44 191.464C1555.48 200.503 1560 213.104 1560 229.265Z" fill="#282828"/>
</svg>
