<svg width="64" height="64" viewBox="0 0 64 64" fill="none" xmlns="http://www.w3.org/2000/svg">
<circle cx="32" cy="32" r="32" fill="#141414"/>
<circle cx="32" cy="32" r="31.5068" stroke="white" stroke-opacity="0.1" stroke-width="0.986487"/>
<path d="M42.3823 31.6411C42.1145 31.6411 41.8774 31.5453 41.671 31.3538C41.4643 31.162 41.3445 30.9244 41.3116 30.6411C41.0227 28.4889 40.1163 26.6509 38.5923 25.1271C37.0683 23.6031 35.2303 22.6967 33.0783 22.4078C32.795 22.3744 32.5574 22.2578 32.3656 22.0578C32.1741 21.8578 32.0783 21.6161 32.0783 21.3328C32.0783 21.0494 32.1774 20.8121 32.3756 20.6208C32.5739 20.4292 32.8081 20.3514 33.0783 20.3874C35.7927 20.6814 38.1069 21.7852 40.0206 23.6988C41.9342 25.6126 43.038 27.9267 43.332 30.6411C43.368 30.9111 43.2897 31.1453 43.0973 31.3438C42.9049 31.542 42.6665 31.6411 42.3823 31.6411ZM36.8656 31.6411C36.6483 31.6411 36.456 31.5668 36.2886 31.4181C36.1211 31.2695 35.9954 31.0711 35.9116 30.8231C35.7081 30.1018 35.335 29.4654 34.7923 28.9141C34.2496 28.3628 33.6176 27.9898 32.8963 27.7951C32.6483 27.7113 32.45 27.5859 32.3013 27.4188C32.1526 27.2517 32.0783 27.0511 32.0783 26.8171C32.0783 26.4827 32.1932 26.2129 32.423 26.0078C32.653 25.8027 32.9141 25.736 33.2063 25.8078C34.3739 26.0789 35.3799 26.6369 36.2243 27.4818C37.0687 28.3265 37.6312 29.3368 37.9116 30.5128C37.9834 30.8052 37.9106 31.0663 37.6933 31.2961C37.476 31.5261 37.2001 31.6411 36.8656 31.6411ZM41.9216 43.3335C39.409 43.3335 36.8846 42.7492 34.3486 41.5808C31.8129 40.4123 29.483 38.7641 27.359 36.6361C25.2352 34.5079 23.5891 32.1779 22.4206 29.6461C21.2522 27.1146 20.668 24.5925 20.668 22.0798C20.668 21.676 20.8013 21.3396 21.068 21.0704C21.3346 20.8013 21.668 20.6668 22.068 20.6668H26.4166C26.7533 20.6668 27.0503 20.7767 27.3076 20.9964C27.565 21.216 27.7286 21.4873 27.7986 21.8104L28.563 25.7334C28.6159 26.0974 28.6047 26.4102 28.5296 26.6718C28.4543 26.9333 28.3192 27.153 28.1243 27.3308L25.045 30.3284C25.5405 31.236 26.1067 32.0946 26.7436 32.9041C27.3803 33.7134 28.0696 34.4865 28.8116 35.2231C29.5432 35.9549 30.321 36.6345 31.145 37.2618C31.969 37.8891 32.8587 38.4729 33.8143 39.0131L36.8063 35.9951C37.015 35.778 37.2676 35.6258 37.5643 35.5385C37.8607 35.4513 38.1689 35.43 38.4886 35.4745L42.191 36.2285C42.5276 36.3173 42.8024 36.4891 43.0153 36.7438C43.2282 36.9984 43.3346 37.2873 43.3346 37.6105V41.9335C43.3346 42.3335 43.2001 42.6668 42.931 42.9335C42.6619 43.2001 42.3254 43.3335 41.9216 43.3335ZM24.0986 28.4361L26.4783 26.1591C26.521 26.1249 26.5487 26.0779 26.5616 26.0181C26.5745 25.9583 26.5724 25.9028 26.5553 25.8514L25.9756 22.8718C25.9585 22.8036 25.9286 22.7523 25.886 22.7181C25.8433 22.6839 25.7877 22.6668 25.7193 22.6668H22.868C22.8166 22.6668 22.7739 22.6839 22.7396 22.7181C22.7056 22.7523 22.6886 22.7951 22.6886 22.8464C22.7569 23.7576 22.906 24.6831 23.136 25.6231C23.3657 26.5633 23.6866 27.501 24.0986 28.4361ZM35.6986 39.9591C36.5824 40.3711 37.5042 40.6861 38.464 40.9041C39.424 41.1219 40.321 41.2513 41.155 41.2925C41.2063 41.2925 41.2491 41.2753 41.2833 41.2411C41.3175 41.2069 41.3346 41.1641 41.3346 41.1128V38.3078C41.3346 38.2393 41.3175 38.1838 41.2833 38.1411C41.2491 38.0985 41.1979 38.0686 41.1296 38.0515L38.3296 37.4821C38.2783 37.465 38.2334 37.4629 38.195 37.4758C38.1565 37.4887 38.1159 37.5165 38.073 37.5591L35.6986 39.9591Z" fill="#E8EAED"/>
</svg>
