<svg width="23" height="23" viewBox="0 0 23 23" fill="none" xmlns="http://www.w3.org/2000/svg">
<path d="M21.7143 11.2622C21.4466 11.2622 21.2094 11.1664 21.003 10.9749C20.7963 10.7831 20.6766 10.5455 20.6437 10.2622C20.3548 8.10999 19.4483 6.27199 17.9243 4.74821C16.4003 3.22421 14.5623 2.31776 12.4103 2.02888C12.127 1.99554 11.8894 1.87888 11.6977 1.67888C11.5061 1.47888 11.4103 1.23721 11.4103 0.953876C11.4103 0.670542 11.5094 0.43321 11.7077 0.241876C11.9059 0.0503208 12.1401 -0.027457 12.4103 0.00854297C15.1248 0.302543 17.4389 1.40632 19.3527 3.31988C21.2662 5.23365 22.37 7.54776 22.664 10.2622C22.7 10.5322 22.6218 10.7664 22.4293 10.9649C22.2369 11.1631 21.9986 11.2622 21.7143 11.2622ZM16.1977 11.2622C15.9803 11.2622 15.788 11.1879 15.6207 11.0392C15.4531 10.8905 15.3274 10.6922 15.2437 10.4442C15.0401 9.72288 14.667 9.08654 14.1243 8.53521C13.5817 7.98388 12.9497 7.61088 12.2283 7.41621C11.9803 7.33243 11.782 7.20699 11.6333 7.03988C11.4847 6.87277 11.4103 6.67221 11.4103 6.43821C11.4103 6.10377 11.5252 5.83399 11.755 5.62888C11.985 5.42376 12.2461 5.3571 12.5383 5.42888C13.7059 5.69999 14.7119 6.25799 15.5563 7.10288C16.4008 7.94754 16.9632 8.95788 17.2437 10.1339C17.3154 10.4263 17.2427 10.6874 17.0253 10.9172C16.808 11.1472 16.5321 11.2622 16.1977 11.2622ZM21.2537 22.9545C18.741 22.9545 16.2167 22.3703 13.6807 21.2019C11.1449 20.0334 8.815 18.3852 6.691 16.2572C4.56722 14.129 2.92111 11.799 1.75267 9.26721C0.584222 6.73565 0 4.21354 0 1.70088C0 1.2971 0.133333 0.960654 0.4 0.691543C0.666667 0.422432 1 0.287876 1.4 0.287876H5.74867C6.08533 0.287876 6.38233 0.397766 6.63967 0.617544C6.897 0.837099 7.06067 1.10843 7.13067 1.43154L7.895 5.35454C7.94789 5.71854 7.93678 6.03132 7.86167 6.29288C7.78633 6.55443 7.65122 6.7741 7.45633 6.95188L4.377 9.94954C4.87256 10.8571 5.43878 11.7157 6.07567 12.5252C6.71233 13.3345 7.40167 14.1075 8.14367 14.8442C8.87522 15.576 9.653 16.2555 10.477 16.8829C11.301 17.5102 12.1908 18.094 13.1463 18.6342L16.1383 15.6162C16.347 15.3991 16.5997 15.2469 16.8963 15.1595C17.1928 15.0724 17.5009 15.0511 17.8207 15.0955L21.523 15.8495C21.8597 15.9384 22.1344 16.1102 22.3473 16.3649C22.5602 16.6195 22.6667 16.9084 22.6667 17.2315V21.5545C22.6667 21.9545 22.5321 22.2879 22.263 22.5545C21.9939 22.8212 21.6574 22.9545 21.2537 22.9545ZM3.43067 8.05721L5.81033 5.78021C5.853 5.74599 5.88078 5.69899 5.89367 5.63921C5.90656 5.57943 5.90444 5.52388 5.88733 5.47254L5.30767 2.49288C5.29056 2.42466 5.26067 2.37343 5.218 2.33921C5.17533 2.30499 5.11978 2.28788 5.05133 2.28788H2.2C2.14867 2.28788 2.10589 2.30499 2.07167 2.33921C2.03767 2.37343 2.02067 2.41621 2.02067 2.46754C2.08889 3.37865 2.238 4.30421 2.468 5.24421C2.69778 6.18443 3.01867 7.1221 3.43067 8.05721ZM15.0307 19.5802C15.9144 19.9922 16.8362 20.3072 17.796 20.5252C18.756 20.743 19.653 20.8724 20.487 20.9135C20.5383 20.9135 20.5811 20.8964 20.6153 20.8622C20.6496 20.828 20.6667 20.7852 20.6667 20.7339V17.9289C20.6667 17.8604 20.6496 17.8049 20.6153 17.7622C20.5811 17.7195 20.5299 17.6897 20.4617 17.6725L17.6617 17.1032C17.6103 17.0861 17.5654 17.084 17.527 17.0969C17.4886 17.1098 17.4479 17.1375 17.405 17.1802L15.0307 19.5802Z" fill="#E8EAED"/>
</svg>
