<svg preserveAspectRatio="none" width="100%" height="100%" overflow="visible" style="display: block;" viewBox="0 0 26 26" fill="none" xmlns="http://www.w3.org/2000/svg">
<g id="Frame">
<path id="Vector" d="M11.918 2.16635C12.2039 2.16635 12.4867 2.18134 12.7664 2.2055C12.3972 2.85386 12.1368 3.57199 12.009 4.33514C11.9786 4.33478 11.9483 4.33302 11.918 4.33302C7.72832 4.33302 4.33486 7.72676 4.33464 11.9164C4.33464 16.1062 7.72818 19.4997 11.918 19.4997C13.9715 19.4997 15.834 18.6841 17.1992 17.3595L17.3611 17.1977C18.6856 15.8324 19.5013 13.9698 19.5013 11.9164C19.5013 11.8858 19.4985 11.8549 19.4982 11.8243C20.2616 11.6966 20.9792 11.4361 21.6278 11.0669C21.6519 11.3468 21.668 11.6302 21.668 11.9164C21.668 14.2172 20.8698 16.3335 19.5351 18.0017L24.1743 22.6408L22.6423 24.1727L18.0033 19.5335C16.335 20.8683 14.219 21.6664 11.918 21.6664C6.53597 21.6664 2.16797 17.2984 2.16797 11.9164C2.1682 6.53454 6.53611 2.16635 11.918 2.16635ZM17.908 1.42897C18.0994 0.967695 18.7367 0.967682 18.9279 1.42897L19.2019 2.09124C19.6699 3.22093 20.543 4.12304 21.6405 4.61126L22.4181 4.95721C22.8625 5.15526 22.8625 5.80223 22.4181 6.00034L21.595 6.36639C20.5249 6.84227 19.6675 7.71244 19.1914 8.80495L18.9237 9.41751C18.7282 9.86615 18.1078 9.86615 17.9123 9.41751L17.6457 8.80495C17.1695 7.71227 16.3111 6.84233 15.241 6.36639L14.4179 6.00034C13.9735 5.80224 13.9735 5.15525 14.4179 4.95721L15.1955 4.61126C16.293 4.12304 17.1662 3.22095 17.6341 2.09124L17.908 1.42897Z" fill="var(--fill-0, white)"/>
</g>
</svg>
