<svg preserveAspectRatio="none" width="100%" height="100%" overflow="visible" style="display: block;" viewBox="0 0 24 24" fill="none" xmlns="http://www.w3.org/2000/svg">
<g id="Frame">
<path id="Vector" d="M11.999 17.2752L7.84904 19.7752C7.66571 19.8919 7.47404 19.9419 7.27404 19.9252C7.07404 19.9085 6.89904 19.8419 6.74904 19.7252C6.59904 19.6085 6.48237 19.4627 6.39904 19.2877C6.31571 19.1127 6.29904 18.9169 6.34904 18.7002L7.44904 13.9752L3.77404 10.8002C3.60737 10.6502 3.50321 10.4794 3.46154 10.2877C3.41987 10.096 3.43237 9.90853 3.49904 9.72519C3.56571 9.54186 3.66571 9.39186 3.79904 9.27519C3.93237 9.15853 4.11571 9.08353 4.34904 9.05019L9.19904 8.6252L11.074 4.1752C11.1574 3.9752 11.2865 3.8252 11.4615 3.7252C11.6365 3.6252 11.8157 3.5752 11.999 3.5752C12.1824 3.5752 12.3615 3.6252 12.5365 3.7252C12.7115 3.8252 12.8407 3.9752 12.924 4.1752L14.799 8.6252L19.649 9.05019C19.8824 9.08353 20.0657 9.15853 20.199 9.27519C20.3324 9.39186 20.4324 9.54186 20.499 9.72519C20.5657 9.90853 20.5782 10.096 20.5365 10.2877C20.4949 10.4794 20.3907 10.6502 20.224 10.8002L16.549 13.9752L17.649 18.7002C17.699 18.9169 17.6824 19.1127 17.599 19.2877C17.5157 19.4627 17.399 19.6085 17.249 19.7252C17.099 19.8419 16.924 19.9085 16.724 19.9252C16.524 19.9419 16.3324 19.8919 16.149 19.7752L11.999 17.2752Z" fill="var(--fill-0, #FCBD02)"/>
</g>
</svg>
