<svg preserveAspectRatio="none" width="100%" height="100%" overflow="visible" style="display: block;" viewBox="0 0 255 47" fill="none" xmlns="http://www.w3.org/2000/svg">
<g id="Group 47">
<path id="Vector" d="M244.049 31.2198C244.06 31.029 244.073 30.837 244.085 30.6408C244.685 19.9917 240.28 12.4819 232.087 11.8404C231.147 11.7663 230.459 11.7458 229.414 11.7056C228.689 11.6349 227.958 11.6545 227.212 11.5961C221.682 11.1627 218.333 14.9364 215.668 20.2194C215.645 20.2017 213.744 18.7293 211.675 22.6109C211.675 22.6109 210.442 25.9459 213.235 25.7555C212.863 26.6916 212.495 27.6435 212.126 28.6009C208.671 37.5703 217.176 42.0561 223.56 45.5333C225.65 46.6724 230.486 46.8519 232.574 46.1111C238.305 44.7934 241.451 42.8639 242.982 37.8697C243.542 38.2632 245.192 38.9196 247.154 35.0685C247.154 35.0685 249.618 30.3064 244.049 31.2198Z" fill="url(#paint0_linear_0_1080)"/>
<path id="Vector_2" d="M234.892 36.2697C227.739 45.9437 219.788 36.163 219.788 36.163C218.412 38.4485 215.598 37.6795 215.598 37.6795C210.541 36.4896 212.007 30.6466 212.007 30.6466C211.936 30.3702 212.207 29.3055 212.372 27.9873C208.627 36.8603 215.974 41.2789 223.19 45.3518C224.377 46.0219 226.422 46.4876 228.389 46.6137C239.649 46.6094 241.273 37.4108 241.273 37.4108C238.697 43.1478 234.892 36.2697 234.892 36.2697Z" fill="url(#paint1_radial_0_1080)"/>
<path id="Vector_3" opacity="0.8" d="M224.737 30.956C224.737 30.956 225.144 30.2573 227.222 31.984C227.222 31.984 227.379 32.3382 228.06 32.2419C228.06 32.2419 229.174 33.1743 226.097 32.744C226.097 32.744 224.564 32.1864 224.737 30.956Z" fill="var(--fill-0, #E3AE75)"/>
<path id="Vector_4" d="M226.745 28.1151C226.745 28.1151 226.029 30.161 224.444 30.7471C224.444 30.7471 224.633 34.1165 228.262 32.6636C228.262 32.6636 225.051 33.6778 224.737 30.9523C224.737 30.9523 227.059 29.5756 226.745 28.1151Z" fill="var(--fill-0, #B57C5E)"/>
<path id="Vector_5" opacity="0.6" d="M226.868 31.2376C226.868 31.2376 227.177 30.7034 228.271 31.3754C228.271 31.3754 228.343 32.5588 226.868 31.2376Z" fill="var(--fill-0, #FFF4EF)"/>
<path id="Vector_6" opacity="0.5" d="M236.517 33.6797C236.517 33.6797 237.401 32.9411 238.289 33.7688C239.178 34.5954 235.718 33.9107 236.517 33.6797Z" fill="var(--fill-0, white)"/>
<path id="Vector_7" opacity="0.64" d="M215.813 28.0281C215.813 28.0281 213.494 27.6312 212.88 29.2853C212.267 30.9401 214.019 29.0513 215.813 28.0281Z" fill="var(--fill-0, white)"/>
<path id="Vector_8" d="M213.826 25.2897C213.826 25.2897 211.739 24.718 212.606 22.513C212.606 22.513 213.939 20.5213 215.392 21.2259L215.006 21.9998C215.006 21.9998 213.869 21.3843 213.139 22.9863C213.139 22.9863 212.405 24.3362 214.119 24.5473L213.826 25.2897Z" fill="var(--fill-0, #EDC69E)"/>
<path id="Vector_9" d="M212.79 22.6486C212.79 22.6486 213.601 21.1432 215.189 21.1919C213.818 20.7518 212.607 22.5593 212.607 22.5593C211.74 24.7639 213.811 25.3851 213.811 25.3851L213.804 25.2304C213.308 25.0004 212.129 24.3303 212.79 22.6486Z" fill="var(--fill-0, #E3AE75)"/>
<path id="Vector_10" d="M216.749 19.3012C216.749 19.3012 213.045 25.8189 211.828 30.7601C214.724 23.1195 214.727 23.1131 216.749 19.3012Z" fill="var(--fill-0, white)"/>
<path id="Vector_11" d="M244.04 31.2271C244.052 31.0364 244.064 30.8447 244.075 30.649C244.309 26.5086 243.786 22.8427 242.578 19.871C239.626 18.5403 240.133 16.0185 236.025 18.4625C236.025 18.4625 243.304 23.4934 234.364 28.6133L236.048 32.7409C236.048 32.7409 245.156 32.3566 239.337 41.4952C236.696 45.6428 231.537 46.2789 229.996 46.5414C231.007 46.4894 231.918 46.3487 232.566 46.1193C238.296 44.8011 241.443 42.8716 242.973 37.8769C243.534 38.2708 245.184 38.9278 247.146 35.0767C247.146 35.0767 249.608 30.3139 244.04 31.2271Z" fill="url(#paint2_linear_0_1080)"/>
<path id="Vector_12" d="M239.681 21.4346C239.681 21.4346 245.336 24.4741 243.016 34.1349C243.016 34.1349 242.864 44.0065 233.422 45.7846C233.422 45.7846 240.465 45.3892 242.941 38.0982C242.941 38.0982 247.311 23.3236 239.681 21.4346Z" fill="var(--fill-0, #CC8E66)"/>
<path id="Vector_13" d="M227.239 25.6004C227.239 25.6004 227.539 19.7626 218.46 19.9615C218.46 19.9615 210.923 20.9302 216.413 27.6059C216.413 27.6059 220.502 32.4732 225.522 28.9875C225.522 28.9875 227.357 27.653 227.239 25.6004Z" fill="var(--fill-0, #120F11)"/>
<path id="Vector_14" d="M218.326 26.3362C218.77 22.8365 220.171 21.0585 221.492 20.276C220.605 20.1324 219.969 19.9706 218.07 20.2424C218.07 20.2424 211.49 21.4029 216.368 27.2697C216.368 27.2697 217.413 28.6553 218.826 29.302C218.431 28.187 218.326 26.3362 218.326 26.3362Z" fill="url(#paint3_linear_0_1080)"/>
<path id="Vector_15" d="M226.825 25.6543C226.825 25.6543 226.73 19.9866 218.856 20.5356C218.856 20.5356 212.015 21.4151 216.998 27.4748C216.998 27.4748 220.717 31.7717 225.267 28.7292C225.267 28.7292 226.932 27.5176 226.825 25.6543Z" fill="var(--fill-0, #FFF1E8)"/>
<path id="Vector_16" d="M226.542 25.373C226.618 27.5063 224.951 29.2967 222.819 29.3727C220.686 29.4492 218.334 27.3277 218.258 25.1952C218.182 23.0619 220.001 21.5973 222.133 21.521C224.266 21.4448 226.466 23.2407 226.542 25.373Z" fill="var(--fill-0, #6B6B6B)"/>
<path id="Vector_17" d="M226.057 25.447C226.125 27.3405 224.646 28.9303 222.752 28.9979C220.858 29.0656 218.771 27.182 218.703 25.2886C218.636 23.395 220.251 22.0947 222.143 22.0267C224.037 21.9596 225.989 23.5535 226.057 25.447Z" fill="var(--fill-0, white)"/>
<path id="Vector_18" d="M223.757 25.921C223.784 26.6887 223.154 27.3347 222.35 27.3632C221.545 27.3924 220.871 26.7928 220.843 26.0249C220.816 25.2577 221.446 24.6115 222.251 24.5828C223.054 24.5543 223.729 25.1531 223.757 25.921Z" fill="url(#paint4_linear_0_1080)"/>
<path id="Vector_19" d="M221.343 24.9294C221.343 24.9294 221.499 25.3757 222.02 25.8609C222.02 25.8609 221.815 24.7997 221.847 24.6546C221.847 24.6546 221.557 24.737 221.343 24.9294Z" fill="var(--fill-0, white)"/>
<path id="Vector_20" d="M240.045 29.1696C240.045 29.1696 240.479 23.1414 231.916 23.9479C231.916 23.9479 224.937 24.8455 230.021 31.0271C230.021 31.0271 233.635 35.1966 238.455 32.3057C238.455 32.3057 240.153 31.0705 240.045 29.1696Z" fill="var(--fill-0, #080808)"/>
<path id="Vector_21" d="M232.217 30.3165C232.679 26.6713 234.023 24.9196 235.398 24.1049C234.474 23.9551 233.372 23.9181 232.058 24.0411C232.058 24.0411 225.078 24.9315 230.16 31.0432C230.16 31.0432 231.041 32.0485 232.514 32.7221C232.103 31.5609 232.217 30.3165 232.217 30.3165Z" fill="url(#paint5_linear_0_1080)"/>
<path id="Vector_22" d="M239.318 29.1521C239.318 29.1521 239.746 24.1798 232.431 24.2966C232.431 24.2966 225.876 25.3054 230.399 30.8047C230.399 30.8047 233.99 34.4262 237.904 31.9429C237.904 31.9429 239.415 30.8432 239.318 29.1521Z" fill="var(--fill-0, #FFF1E8)"/>
<path id="Vector_23" d="M237.846 28.6486C237.919 30.6946 236.319 32.4117 234.274 32.4844C232.229 32.5573 229.974 30.5229 229.9 28.4773C229.827 26.4323 231.571 25.0274 233.616 24.9542C235.663 24.8819 237.773 26.6031 237.846 28.6486Z" fill="var(--fill-0, #6B6B6B)"/>
<path id="Vector_24" d="M237.385 28.7232C237.451 30.5394 236.032 32.0644 234.215 32.1283C232.4 32.1939 230.398 30.3869 230.332 28.5707C230.267 26.7553 231.817 25.5086 233.632 25.4438C235.448 25.3788 237.321 26.9075 237.385 28.7232Z" fill="var(--fill-0, white)"/>
<path id="Vector_25" d="M234.789 28.6948C234.816 29.4633 234.186 30.1086 233.382 30.1378C232.578 30.1663 231.903 29.5667 231.876 28.7994C231.848 28.0315 232.479 27.3859 233.283 27.3574C234.087 27.3282 234.761 27.9276 234.789 28.6948Z" fill="url(#paint6_linear_0_1080)"/>
<path id="Vector_26" d="M232.375 27.7035C232.375 27.7035 232.53 28.1499 233.052 28.6349C233.052 28.6349 232.847 27.5744 232.878 27.4291C232.878 27.4291 232.589 27.5113 232.375 27.7035Z" fill="var(--fill-0, white)"/>
<path id="Vector_27" d="M239.91 28.8063L244.05 31.1547C244.05 31.1547 244.593 31.556 243.962 31.7104L239.558 30.3793C239.558 30.3793 240.188 29.2042 239.91 28.8063Z" fill="var(--fill-0, #120F11)"/>
<path id="Vector_28" d="M227.231 26.0302C227.231 26.0302 227.89 25.8626 228.346 26.2518C228.346 26.2518 228.16 26.8707 228.174 27.2656C228.174 27.2656 227.984 26.7142 226.986 27.0018C226.986 27.0018 227.229 26.2645 227.231 26.0302Z" fill="var(--fill-0, #120F11)"/>
<path id="Vector_29" d="M228.263 26.2981C228.263 26.2981 227.314 25.9538 227.06 26.8811L227.212 26.1195C227.212 26.1195 227.636 25.8882 228.263 26.2981Z" fill="var(--fill-0, white)"/>
<path id="Vector_30" d="M240.43 29.2835C240.43 29.2835 240.903 30.232 240.18 30.397C240.18 30.397 241.171 29.8812 243.666 31.1851L240.43 29.2835Z" fill="url(#paint7_linear_0_1080)"/>
<path id="Vector_31" d="M220.563 18.4266L221.729 18.8888C221.729 18.8888 223.041 17.9776 225.154 17.9984L226.955 17.3581C226.955 17.3581 225.493 19.2711 223.727 19.6038C223.727 19.6038 225.404 19.6223 225.901 20.0839C225.901 20.0839 232.159 17.8442 233.46 19.3341C233.46 19.3341 233.868 19.9916 233.21 20.3994C232.553 20.8068 231.976 20.9741 231.976 20.9741C231.976 20.9741 232.481 21.0637 233.213 21.3978C233.213 21.3978 234.465 20.4847 235.132 20.8652C235.132 20.8652 237.193 16.2726 234.052 15.0874C230.913 13.9044 225.035 14.57 220.563 18.4266Z" fill="var(--fill-0, #EDC3A4)"/>
<path id="Vector_32" d="M243.963 32.3973C243.963 32.3973 247.159 31.8028 246.11 34.6728C246.11 34.6728 244.745 38.1307 243.205 36.697L243.464 35.8719C243.464 35.8719 244.822 36.2557 245.289 34.5578C245.289 34.5578 245.574 33.1078 243.848 33.1692L243.963 32.3973Z" fill="var(--fill-0, #A36451)"/>
<path id="Vector_33" d="M253.199 28.9552C252.286 24.333 246.949 23.3371 246.949 23.3371C252.294 22.2585 254.06 25.0821 254.06 25.0821C253.431 19.887 247.246 19.2191 247.246 19.2191C248.944 16.994 251.727 18.782 251.727 18.782C248.249 11.5662 244.272 12.0551 244.272 12.0551C246.272 9.84656 249.834 9.30332 249.834 9.30332C245.213 6.97058 237.459 10.9108 237.459 10.9108C237.459 7.82985 239.893 7.20239 239.893 7.20239C236.506 5.60272 233.385 7.17086 233.385 7.17086C234.063 5.45533 233.761 2.17634 231.741 0.687285C231.736 0.686897 231.509 0.896826 231.686 1.16784C232.09 5.13537 230.438 8.20551 230.438 8.20551C228.774 2.39563 225.913 5.7463e-05 225.913 5.7463e-05C226.293 2.87249 225.277 8.22356 225.277 8.22356C220.921 -0.695902 213.289 1.24139 213.289 1.24139C217.932 3.03216 218.329 9.87247 218.329 9.87247C211.917 5.93923 205.696 10.0876 205.696 10.0876C214.527 10.2716 216.766 14.6881 216.766 14.6881C212.918 15.3246 211.227 18.694 211.227 18.694C215.693 17.8693 216.182 19.2252 216.182 19.2252C220.934 12.9782 220.563 18.4235 220.563 18.4235C228.518 16.2247 223.727 19.6009 223.727 19.6009C238.634 16.2383 231.976 20.9716 231.976 20.9716C246.02 19.0966 244.058 30.7161 244.058 30.7161C244.476 30.0207 245.671 29.7238 245.671 29.7238C247.922 29.2274 249.19 30.9302 249.19 30.9302C249.374 28.5784 247.64 27.1429 247.64 27.1429C249.978 25.782 253.199 28.9552 253.199 28.9552Z" fill="url(#paint8_linear_0_1080)"/>
<path id="Vector_34" d="M240.607 18.211C240.607 18.211 247.01 15.3988 250.985 18.1527C250.985 18.1527 247.677 16.578 245.367 21.7839C245.367 21.7839 246.594 17.4631 240.607 18.211Z" fill="var(--fill-0, #1B4353)"/>
<path id="Vector_35" d="M241.403 13.2356C241.403 13.2356 244.629 10.816 248.971 15.4142C248.971 15.4142 246.849 12.4656 241.403 13.2356Z" fill="var(--fill-0, #4498C2)"/>
<path id="Vector_36" d="M240.517 12.5481C240.517 12.5481 242.025 9.03704 248.659 9.28039C248.659 9.28039 242.73 9.97223 240.517 12.5481Z" fill="var(--fill-0, #164A61)"/>
<path id="Vector_37" d="M237.943 14.6448C237.639 10.5213 244.57 9.14102 244.57 9.14102C237.304 10.0729 236.733 12.8777 236.733 12.8777C234.685 11.9907 234.715 10.1652 234.715 10.1652C234.506 7.00365 238.069 7.26103 238.069 7.26103C233.316 6.84854 232.439 8.16818 232.289 8.53049C233.186 5.85683 231.808 4.02749 231.808 4.02749C231.109 11.3504 227.571 9.0762 227.571 9.0762C228.691 5.48331 226.054 1.54444 226.054 1.54444C226.551 4.69551 224.814 9.84639 224.814 9.84639C221.824 1.40714 214.237 1.38968 214.237 1.38968C219.416 3.89441 219.481 11.0935 219.481 11.0935C211.758 6.60844 207.427 9.69915 207.427 9.69915C213.425 8.23693 220.755 14.5038 220.755 14.5038C213.192 15.1574 212.325 17.7823 212.325 17.7823C214.446 15.306 222.217 15.1246 222.217 15.1246C220.799 15.7516 221.056 17.5665 221.056 17.5665C223.067 14.7103 228.516 16.7241 228.516 16.7241C226.022 16.8137 225.697 18.4572 225.697 18.4572C227.211 17.8272 230.24 16.9163 233.157 17.6152C237.908 18.7533 235.292 17.866 237.556 16.3598C243.318 13.0351 247.199 15.2732 247.199 15.2732C244.259 12.764 238.833 14.2385 237.943 14.6448Z" fill="var(--fill-0, #4498C2)"/>
<path id="Vector_38" d="M211.225 18.6952C211.225 18.6952 213.888 14.8434 219.235 14.831C219.235 14.831 214.385 13.4739 211.225 18.6952Z" fill="var(--fill-0, #A4DCF3)"/>
<path id="Vector_39" d="M218.598 11.748C218.598 11.748 222.872 7.97259 224.893 13.425C224.893 13.425 223.223 8.96843 218.598 11.748Z" fill="var(--fill-0, #A4DCF3)"/>
<path id="Vector_40" d="M234.98 8.04534C234.98 8.04534 228.753 9.27987 227.672 13.9521L228.401 14.4013C228.401 14.4013 228.259 10.1826 234.98 8.04534Z" fill="var(--fill-0, #A4DCF3)"/>
<path id="Vector_41" d="M225.913 0.00124193C225.913 0.00124193 227.179 5.14713 224.785 10.4892L224.484 9.52021C224.484 9.52021 226.463 5.41698 225.913 0.00124193Z" fill="var(--fill-0, #A4DCF3)"/>
<path id="Vector_42" d="M218.595 11.7475C218.595 11.7475 222.371 8.58784 225.151 13.8181L224 13.8593C224 13.8593 223.137 9.85707 218.595 11.7475Z" fill="url(#paint9_linear_0_1080)"/>
<path id="Vector_43" d="M218.652 2.57557C218.652 2.57557 225.485 5.69267 225.177 13.1938C225.177 13.1938 225.591 8.66587 218.652 2.57557Z" fill="var(--fill-0, #2A6782)"/>
<path id="Vector_44" d="M234.98 8.04451C234.98 8.04451 230.597 8.96888 230.333 15.0276C230.333 15.0276 230.384 11.0892 234.98 8.04451Z" fill="url(#paint10_linear_0_1080)"/>
<path id="Vector_45" d="M244.05 28.1723C244.05 28.1723 249.474 24.2458 253.198 28.9555C253.198 28.9555 251.102 23.9841 245.491 25.528C245.491 25.528 244.447 23.1649 246.252 22.6203C246.252 22.6203 249.958 21.5278 253.602 24.0863C253.602 24.0863 250.859 19.8631 245.529 21.2056C245.529 21.2056 247.536 18.2534 244.351 17.7911C241.165 17.3285 239.011 18.8457 238.665 19.9145C238.665 19.9145 242.019 17.0106 243.957 20.2058C243.957 20.2058 240.34 19.453 237.513 20.9941C237.513 20.9941 241.095 21.4604 242.895 24.4849C242.895 24.4849 243.631 25.1122 244.05 28.1723Z" fill="var(--fill-0, #1B4353)"/>
<path id="Vector_46" d="M243.981 32.3036L243.917 32.7301C244.328 32.669 246.617 32.4228 246.147 34.5195C247.128 31.7195 243.981 32.3036 243.981 32.3036Z" fill="var(--fill-0, #8D5E24)"/>
<path id="Vector_47" d="M209.023 9.92805C209.023 9.92805 215.843 10.4509 218.311 14.5898L217.256 14.6272C217.256 14.6272 215.691 11.1682 209.023 9.92805Z" fill="var(--fill-0, #164A61)"/>
<path id="Vector_48" d="M238.984 7.22663C238.984 7.22663 234.103 7.68909 236.343 11.2576C236.343 11.2576 235.868 8.6824 238.984 7.22663Z" fill="var(--fill-0, #164A61)"/>
<path id="Vector_49" d="M228.696 4.23537C228.696 4.23537 230.518 6.85892 228.391 9.14305C228.391 9.14305 231.98 10.1677 228.696 4.23537Z" fill="var(--fill-0, #164A61)"/>
<path id="Vector_50" d="M229.227 14.9739C229.227 14.9739 225.164 11.4699 222.222 15.1275C222.222 15.1275 223.673 12.7232 229.227 14.9739Z" fill="var(--fill-0, #164A61)"/>
<path id="Vector_51" d="M232.699 15.0772C232.699 15.0772 234.212 14.1915 234.072 16.9288C234.072 16.9288 236.419 12.8057 233.817 13.1362C233.817 13.1362 232.436 14.3737 232.699 15.0772Z" fill="url(#paint11_linear_0_1080)"/>
<path id="Vector_52" d="M206.486 9.80475C206.486 9.80475 209.926 6.70842 217.052 9.23872C217.052 9.23872 212.272 7.20536 206.486 9.80475Z" fill="var(--fill-0, #A4DCF3)"/>
<path id="Vector_53" d="M211.324 18.6319C211.324 18.6319 215.238 15.9671 217.782 17.332L216.183 19.2255C216.183 19.2255 214.699 18.0067 211.228 18.6944" fill="var(--fill-0, #164A61)"/>
<path id="Vector_54" d="M219.781 36.1655C219.781 36.1655 226.779 41.8514 234.726 36.1216L234.727 36.2912C234.727 36.2912 227.568 43.1647 219.73 36.2568L219.781 36.1655Z" fill="var(--fill-0, #5C3A09)"/>
<path id="Vector_55" d="M234.637 34.5107C234.637 34.5107 234.722 36.4961 236.043 37.0278C236.043 37.0278 233.953 37.2955 234.637 34.5107Z" fill="var(--fill-0, #885241)"/>
<path id="Vector_56" d="M219.879 34.9971C219.879 34.9971 220.074 37.5921 218.518 37.2182C218.518 37.2182 219.596 36.435 219.879 34.9971Z" fill="var(--fill-0, #CC7D65)"/>
<path id="Vector_57" d="M225.984 40.4211C225.984 40.4211 231.702 41.7795 231.04 39.8141C231.04 39.8141 229.987 41.0115 225.984 40.4211Z" fill="var(--fill-0, #CB896A)"/>
<path id="Vector_58" d="M25.9021 30.2079C25.9021 33.9941 24.7875 37.1964 22.5582 39.8147C20.1167 42.7164 16.8436 44.167 12.7389 44.167C8.63431 44.167 5.43197 42.7693 3.13197 39.9743C1.04428 37.4262 0.000414099 34.171 0.000414099 30.2079V7.22545H4.88354V30.7387C4.88354 33.4633 5.57353 35.6395 6.95352 37.2672C8.33356 38.8948 10.262 39.7089 12.7389 39.7089C15.3574 39.7089 17.4274 38.7531 18.949 36.8425C20.2582 35.1794 20.9129 33.2687 20.9129 31.1102C20.9129 28.244 20.0813 26.0325 18.4182 24.4756C17.0028 23.131 15.2513 22.4586 13.1636 22.4586C11.8897 22.4586 10.669 22.6886 9.50124 23.1486C8.19204 23.7855 7.20124 24.2279 6.52891 24.4756V20.0171C7.55507 19.4156 8.59894 18.9378 9.66047 18.584C10.7574 18.2301 11.8544 18.0532 12.9513 18.0532C16.3482 18.0532 19.3028 19.1325 21.8152 21.2909C24.5398 23.6264 25.9021 26.5986 25.9021 30.2079Z" fill="var(--fill-0, white)"/>
<path id="Vector_59" d="M54.9168 30.7373C54.9168 33.9573 53.8907 36.8412 51.8385 39.3887C49.4675 42.3259 46.3891 43.7944 42.603 43.7944C38.0737 43.7944 34.6237 42.4675 32.2529 39.8137C30.0944 37.4073 29.0152 34.205 29.0152 30.2065C29.0152 26.4557 30.3067 23.3773 32.8898 20.9711C35.3314 18.7065 38.286 17.5742 41.7539 17.5742C45.2922 17.5742 48.2468 18.565 50.6178 20.5465C53.4836 22.9173 54.9168 26.3142 54.9168 30.7373ZM49.9274 30.2065C49.9274 27.7296 49.22 25.748 47.8044 24.2619C46.3891 22.7757 44.3723 22.0326 41.7539 22.0326C39.0996 22.0326 37.0653 22.9349 35.6499 24.7396C34.4822 26.2258 33.8983 28.0481 33.8983 30.2065C33.8983 32.5419 34.4291 34.5235 35.4906 36.1512C36.8706 38.2389 38.9584 39.283 41.7539 39.283C44.2661 39.283 46.1946 38.6634 47.539 37.4248C49.1313 35.9389 49.9274 33.5327 49.9274 30.2065Z" fill="var(--fill-0, white)"/>
<path id="Vector_60" d="M84.0208 30.23C84.0208 34.0162 82.9064 37.2185 80.6771 39.8368C78.2353 42.7385 74.9624 44.1891 70.858 44.1891C66.753 44.1891 63.551 42.7914 61.2508 39.9964C59.1632 37.4483 58.1191 34.1931 58.1191 30.23V7.24756H63.0023V30.7608C63.0023 33.4854 63.6922 35.6616 65.0724 37.2893C66.4522 38.9169 68.3807 39.731 70.858 39.731C73.4764 39.731 75.5461 38.7752 77.068 36.8646C78.377 35.2016 79.0314 33.2908 79.0314 31.1323C79.0314 28.2662 78.1999 26.0546 76.5368 24.4977C75.1215 23.1531 73.3701 22.4807 71.2825 22.4807C70.0085 22.4807 68.7878 22.7107 67.62 23.1707C66.3106 23.8076 65.3199 24.25 64.6474 24.4977V20.0392C65.674 19.4377 66.7176 18.9599 67.7792 18.6061C68.8761 18.2522 69.973 18.0753 71.07 18.0753C74.4671 18.0753 77.4217 19.1546 79.9338 21.3131C82.6585 23.6485 84.0208 26.6207 84.0208 30.23Z" fill="var(--fill-0, white)"/>
<path id="Vector_61" d="M104.318 43.365H99.0107C94.9058 43.365 91.774 41.8969 89.6156 38.9598C87.9175 36.6598 87.068 34.0413 87.068 31.1044C87.068 28.309 88.0412 25.6905 89.9872 23.249C92.3582 20.2766 95.5074 18.7905 99.4352 18.7905H104.318V23.249H100.656C98.6745 23.249 96.9226 23.7797 95.4011 24.8413C93.3843 26.2567 92.3756 28.3444 92.3756 31.1044C92.3756 33.0506 92.9952 34.749 94.2333 36.1998C95.7553 37.9691 97.8958 38.8535 100.656 38.8535H104.318V43.365Z" fill="var(--fill-0, white)"/>
<path id="Vector_62" d="M133.811 43.3695H128.822V28.9858C128.822 27.1104 128.238 25.6065 127.07 24.4742C125.655 23.1296 123.514 22.4573 120.648 22.4573C118.808 22.4573 117.127 23.0058 115.606 24.1027C113.483 25.6243 112.421 27.8358 112.421 30.7373C112.421 33.5327 113.341 35.7089 115.181 37.2658C116.773 38.6106 118.737 39.2826 121.072 39.2826C122.205 39.2826 123.213 39.0351 124.098 38.5398C125.018 38.009 126.044 37.1774 127.176 36.0451V41.7244C126.292 42.3968 125.354 42.9096 124.363 43.2638C123.372 43.6174 122.01 43.7945 120.276 43.7945C116.95 43.7945 114.102 42.6442 111.731 40.3446C109.183 37.8673 107.909 34.665 107.909 30.7373C107.909 27.0573 109.024 24.0496 111.253 21.7143C113.659 19.2019 116.932 17.9457 121.072 17.9457C124.965 17.9457 128.114 19.0427 130.52 21.2365C132.714 23.2535 133.811 25.695 133.811 28.5612V43.3695Z" fill="var(--fill-0, white)"/>
<path id="Vector_63" d="M150.513 22.0326H149.293C147.063 22.3157 145.4 23.2534 144.303 24.8457C143.206 26.4381 142.658 28.8089 142.658 31.9581V43.3694H138.146V18.3703H142.658V20.8119C143.188 19.998 143.896 19.308 144.781 18.7418C145.984 17.9634 147.311 17.5742 148.762 17.5742H150.513V22.0326Z" fill="var(--fill-0, white)"/>
<path id="Vector_64" d="M178.111 32.3297C178.111 35.0543 177.155 37.5665 175.245 39.8667C172.874 42.733 169.566 44.1657 165.319 44.1657C161.604 44.1657 158.472 42.9804 155.925 40.6099C153.412 38.2036 152.156 35.1782 152.156 31.5335C152.156 27.1812 153.625 23.7312 156.561 21.1834C159.074 19.025 161.993 17.9457 165.319 17.9457C168.009 17.9457 170.468 18.7419 172.697 20.3342C174.643 21.7143 176.306 23.6427 177.686 26.1196L160.33 35.6205L158.313 31.9582L170.627 24.8988C169.566 23.8373 168.84 23.2181 168.451 23.0412C167.602 22.6519 166.558 22.4573 165.319 22.4573C162.736 22.4573 160.684 23.395 159.162 25.2704C157.782 26.9689 157.092 29.0566 157.092 31.5335C157.092 33.7274 157.782 35.6028 159.162 37.1597C160.684 38.858 162.736 39.7076 165.319 39.7076C167.973 39.7076 169.902 39.0351 171.104 37.6903C171.989 36.6997 172.786 34.7889 173.493 31.9582L178.111 32.3297Z" fill="var(--fill-0, white)"/>
<path id="Vector_65" d="M201.52 36.8421C201.52 39.4606 200.547 41.3008 198.601 42.3623C197.256 43.1051 195.434 43.4767 193.134 43.4767L191.223 43.3705H180.979V38.859H191.595L193.24 38.9652C194.301 38.9652 195.062 38.859 195.522 38.6465C196.23 38.3282 196.584 37.7266 196.584 36.842C196.584 35.5682 195.381 34.5067 192.975 33.6574C192.231 33.4097 190.674 32.9674 188.304 32.3305C185.933 31.6936 184.164 30.8266 182.996 29.7297C181.651 28.4912 180.979 26.8812 180.979 24.8997C180.979 22.2812 181.952 20.4766 183.898 19.4858C185.349 18.7427 187.649 18.3712 190.799 18.3712H200.299V22.4581H190.374C188.958 22.4581 187.861 22.5997 187.083 22.8827C186.305 23.1658 185.916 23.6966 185.916 24.4751C185.916 25.8551 187.224 26.9166 189.843 27.6597C191.011 27.9782 192.178 28.2789 193.346 28.562C196.46 29.659 198.601 30.7913 199.768 31.959C200.936 33.1267 201.52 34.7544 201.52 36.8421Z" fill="var(--fill-0, white)"/>
</g>
<defs>
<linearGradient id="paint0_linear_0_1080" x1="229.569" y1="27.883" x2="228.506" y2="68.0587" gradientUnits="userSpaceOnUse">
<stop stop-color="#F5E2BF"/>
<stop offset="1" stop-color="#F09D68"/>
</linearGradient>
<radialGradient id="paint1_radial_0_1080" cx="0" cy="0" r="1" gradientUnits="userSpaceOnUse" gradientTransform="translate(222.306 25.966) rotate(0.429716) scale(29.6606 29.6605)">
<stop stop-color="#E9D1A7"/>
<stop offset="0.2929" stop-color="#E9CEA4"/>
<stop offset="0.5248" stop-color="#EAC69A"/>
<stop offset="0.7356" stop-color="#ECB889"/>
<stop offset="0.9329" stop-color="#EFA572"/>
<stop offset="1" stop-color="#F09D68"/>
</radialGradient>
<linearGradient id="paint2_linear_0_1080" x1="237.754" y1="33.3371" x2="244.879" y2="36.323" gradientUnits="userSpaceOnUse">
<stop stop-color="#F0C49A"/>
<stop offset="1" stop-color="#CA9C6A"/>
</linearGradient>
<linearGradient id="paint3_linear_0_1080" x1="214.616" y1="24.8641" x2="221.648" y2="24.6131" gradientUnits="userSpaceOnUse">
<stop stop-color="#6E6C6C"/>
<stop offset="1" stop-color="#231F20"/>
</linearGradient>
<linearGradient id="paint4_linear_0_1080" x1="220.844" y1="26.025" x2="223.757" y2="25.921" gradientUnits="userSpaceOnUse">
<stop stop-color="#4D4D4F"/>
<stop offset="0.522" stop-color="#171600"/>
</linearGradient>
<linearGradient id="paint5_linear_0_1080" x1="228.352" y1="28.5071" x2="235.546" y2="28.2504" gradientUnits="userSpaceOnUse">
<stop stop-color="#6E6C6C"/>
<stop offset="1" stop-color="#231F20"/>
</linearGradient>
<linearGradient id="paint6_linear_0_1080" x1="231.876" y1="28.7993" x2="234.789" y2="28.6954" gradientUnits="userSpaceOnUse">
<stop stop-color="#4D4D4F"/>
<stop offset="0.6044" stop-color="#171600"/>
</linearGradient>
<linearGradient id="paint7_linear_0_1080" x1="240.177" y1="30.3007" x2="243.63" y2="30.1775" gradientUnits="userSpaceOnUse">
<stop stop-color="#3A3A3A"/>
<stop offset="1" stop-color="#231F20"/>
</linearGradient>
<linearGradient id="paint8_linear_0_1080" x1="205.927" y1="16.5935" x2="253.696" y2="14.8889" gradientUnits="userSpaceOnUse">
<stop stop-color="#0085A8"/>
<stop offset="1" stop-color="#006280"/>
</linearGradient>
<linearGradient id="paint9_linear_0_1080" x1="218.621" y1="12.4712" x2="225.095" y2="12.2402" gradientUnits="userSpaceOnUse">
<stop stop-color="#0085A8"/>
<stop offset="1" stop-color="#006280"/>
</linearGradient>
<linearGradient id="paint10_linear_0_1080" x1="230.211" y1="11.6232" x2="235.102" y2="11.4486" gradientUnits="userSpaceOnUse">
<stop stop-color="#0085A8"/>
<stop offset="1" stop-color="#006280"/>
</linearGradient>
<linearGradient id="paint11_linear_0_1080" x1="232.672" y1="15.0728" x2="235.077" y2="14.9871" gradientUnits="userSpaceOnUse">
<stop stop-color="#0085A8"/>
<stop offset="1" stop-color="#006280"/>
</linearGradient>
</defs>
</svg>
