<svg width="262" height="51" viewBox="0 0 262 51" fill="none" xmlns="http://www.w3.org/2000/svg">
<path d="M247.931 31.22C247.943 31.0293 247.956 30.8372 247.967 30.6411C248.567 19.9919 244.162 12.4822 235.97 11.8406C235.03 11.7665 234.341 11.746 233.297 11.7059C232.571 11.6351 231.84 11.6547 231.095 11.5964C225.565 11.1629 222.216 14.9366 219.55 20.2196C219.527 20.202 217.626 18.7295 215.558 22.6111C215.558 22.6111 214.325 25.9461 217.118 25.7557C216.745 26.6918 216.377 27.6437 216.009 28.6011C212.553 37.5706 221.058 42.0564 227.442 45.5335C229.533 46.6726 234.368 46.8522 236.457 46.1113C242.187 44.7936 245.334 42.8642 246.865 37.8699C247.424 38.2634 249.074 38.9198 251.037 35.0687C251.037 35.0687 253.5 30.3066 247.931 31.22Z" fill="url(#paint0_linear_562_3358)"/>
<path d="M238.773 36.2697C231.62 45.9437 223.669 36.163 223.669 36.163C222.293 38.4485 219.479 37.6795 219.479 37.6795C214.422 36.4896 215.888 30.6466 215.888 30.6466C215.817 30.3702 216.088 29.3055 216.253 27.9873C212.508 36.8602 219.855 41.2789 227.071 45.3518C228.258 46.0218 230.303 46.4876 232.27 46.6137C243.53 46.6094 245.154 37.4107 245.154 37.4107C242.578 43.1478 238.773 36.2697 238.773 36.2697Z" fill="url(#paint1_radial_562_3358)"/>
<path opacity="0.8" d="M228.619 30.9562C228.619 30.9562 229.026 30.2575 231.105 31.9842C231.105 31.9842 231.261 32.3384 231.942 32.2421C231.942 32.2421 233.056 33.1745 229.979 32.7442C229.979 32.7442 228.446 32.1866 228.619 30.9562Z" fill="#E3AE75"/>
<path d="M230.629 28.1152C230.629 28.1152 229.914 30.1612 228.328 30.7472C228.328 30.7472 228.517 34.1166 232.146 32.6637C232.146 32.6637 228.935 33.6779 228.621 30.9524C228.621 30.9524 230.943 29.5757 230.629 28.1152Z" fill="#B57C5E"/>
<path opacity="0.6" d="M230.75 31.2375C230.75 31.2375 231.06 30.7032 232.153 31.3752C232.153 31.3752 232.225 32.5587 230.75 31.2375Z" fill="#FFF4EF"/>
<path opacity="0.5" d="M240.398 33.6794C240.398 33.6794 241.283 32.9407 242.17 33.7685C243.059 34.595 239.599 33.9104 240.398 33.6794Z" fill="white"/>
<path opacity="0.64" d="M219.694 28.0281C219.694 28.0281 217.375 27.6311 216.762 29.2852C216.148 30.9401 217.9 29.0513 219.694 28.0281Z" fill="white"/>
<path d="M217.708 25.2899C217.708 25.2899 215.621 24.7182 216.488 22.5132C216.488 22.5132 217.821 20.5215 219.274 21.2261L218.888 22C218.888 22 217.751 21.3845 217.021 22.9865C217.021 22.9865 216.287 24.3364 218.001 24.5475L217.708 25.2899Z" fill="#EDC69E"/>
<path d="M216.673 22.6488C216.673 22.6488 217.483 21.1434 219.071 21.1921C217.7 20.752 216.489 22.5595 216.489 22.5595C215.623 24.7641 217.693 25.3853 217.693 25.3853L217.687 25.2306C217.19 25.0006 216.011 24.3305 216.673 22.6488Z" fill="#E3AE75"/>
<path d="M220.631 19.3008C220.631 19.3008 216.927 25.8185 215.711 30.7597C218.606 23.119 218.61 23.1127 220.631 19.3008Z" fill="white"/>
<path d="M247.922 31.2272C247.934 31.0365 247.947 30.8449 247.958 30.6492C248.192 26.5087 247.669 22.8429 246.461 19.8711C243.508 18.5405 244.015 16.0186 239.907 18.4627C239.907 18.4627 247.186 23.4935 238.247 28.6135L239.93 32.741C239.93 32.741 249.039 32.3568 243.22 41.4954C240.579 45.643 235.42 46.279 233.879 46.5415C234.89 46.4896 235.801 46.3489 236.448 46.1194C242.179 44.8012 245.325 42.8718 246.856 37.877C247.416 38.271 249.066 38.9279 251.028 35.0768C251.028 35.0768 253.491 30.314 247.922 31.2272Z" fill="url(#paint2_linear_562_3358)"/>
<path d="M243.564 21.4346C243.564 21.4346 249.219 24.474 246.899 34.1349C246.899 34.1349 246.747 44.0065 237.305 45.7846C237.305 45.7846 244.348 45.3892 246.824 38.0982C246.824 38.0982 251.194 23.3235 243.564 21.4346Z" fill="#CC8E66"/>
<path d="M231.122 25.6C231.122 25.6 231.422 19.7622 222.343 19.961C222.343 19.961 214.806 20.9297 220.296 27.6054C220.296 27.6054 224.385 32.4727 229.405 28.9871C229.405 28.9871 231.24 27.6526 231.122 25.6Z" fill="#120F11"/>
<path d="M222.207 26.3365C222.651 22.8368 224.053 21.0588 225.374 20.2763C224.486 20.1326 223.85 19.9709 221.951 20.2427C221.951 20.2427 215.372 21.4032 220.249 27.27C220.249 27.27 221.294 28.6556 222.707 29.3023C222.313 28.1873 222.207 26.3365 222.207 26.3365Z" fill="url(#paint3_linear_562_3358)"/>
<path d="M230.708 25.6542C230.708 25.6542 230.613 19.9865 222.739 20.5355C222.739 20.5355 215.897 21.415 220.88 27.4747C220.88 27.4747 224.6 31.7716 229.15 28.7291C229.15 28.7291 230.815 27.5175 230.708 25.6542Z" fill="#FFF1E8"/>
<path d="M230.423 25.3728C230.499 27.5062 228.832 29.2965 226.7 29.3726C224.567 29.4491 222.215 27.3275 222.139 25.1951C222.063 23.0617 223.882 21.5972 226.014 21.5209C228.147 21.4447 230.347 23.2406 230.423 25.3728Z" fill="#6B6B6B"/>
<path d="M229.938 25.4467C230.006 27.3403 228.527 28.93 226.633 28.9977C224.739 29.0653 222.652 27.1818 222.584 25.2883C222.517 23.3948 224.132 22.0944 226.024 22.0265C227.918 21.9593 229.87 23.5532 229.938 25.4467Z" fill="white"/>
<path d="M227.641 25.9212C227.668 26.6889 227.038 27.3349 226.234 27.3634C225.429 27.3926 224.755 26.793 224.727 26.025C224.7 25.2579 225.33 24.6117 226.135 24.583C226.938 24.5545 227.613 25.1533 227.641 25.9212Z" fill="url(#paint4_linear_562_3358)"/>
<path d="M225.227 24.9291C225.227 24.9291 225.383 25.3754 225.903 25.8606C225.903 25.8606 225.699 24.7994 225.73 24.6543C225.73 24.6543 225.441 24.7367 225.227 24.9291Z" fill="white"/>
<path d="M243.926 29.1699C243.926 29.1699 244.36 23.1417 235.797 23.9483C235.797 23.9483 228.817 24.8458 233.902 31.0275C233.902 31.0275 237.516 35.197 242.336 32.3061C242.336 32.3061 244.034 31.0709 243.926 29.1699Z" fill="#080808"/>
<path d="M236.101 30.3161C236.564 26.6709 237.907 24.9192 239.283 24.1045C238.358 23.9546 237.257 23.9176 235.943 24.0407C235.943 24.0407 228.963 24.931 234.045 31.0427C234.045 31.0427 234.926 32.0481 236.398 32.7217C235.987 31.5605 236.101 30.3161 236.101 30.3161Z" fill="url(#paint5_linear_562_3358)"/>
<path d="M243.202 29.1524C243.202 29.1524 243.63 24.1801 236.315 24.297C236.315 24.297 229.76 25.3057 234.283 30.805C234.283 30.805 237.874 34.4265 241.788 31.9433C241.788 31.9433 243.299 30.8435 243.202 29.1524Z" fill="#FFF1E8"/>
<path d="M241.729 28.6488C241.802 30.6948 240.203 32.4119 238.157 32.4846C236.112 32.5575 233.857 30.5231 233.783 28.4775C233.71 26.4324 235.454 25.0276 237.499 24.9543C239.546 24.882 241.656 26.6033 241.729 28.6488Z" fill="#6B6B6B"/>
<path d="M241.27 28.7228C241.336 30.539 239.916 32.064 238.1 32.1279C236.285 32.1936 234.282 30.3865 234.217 28.5704C234.152 26.7549 235.701 25.5082 237.517 25.4434C239.333 25.3784 241.206 26.9072 241.27 28.7228Z" fill="white"/>
<path d="M238.672 28.6949C238.699 29.4634 238.069 30.1087 237.265 30.1379C236.461 30.1663 235.786 29.5667 235.759 28.7995C235.731 28.0316 236.362 27.3859 237.166 27.3575C237.97 27.3283 238.644 27.9277 238.672 28.6949Z" fill="url(#paint6_linear_562_3358)"/>
<path d="M236.258 27.7031C236.258 27.7031 236.413 28.1495 236.935 28.6346C236.935 28.6346 236.73 27.574 236.761 27.4287C236.761 27.4287 236.471 27.5109 236.258 27.7031Z" fill="white"/>
<path d="M243.793 28.8066L247.934 31.1551C247.934 31.1551 248.476 31.5564 247.845 31.7108L243.441 30.3797C243.441 30.3797 244.072 29.2046 243.793 28.8066Z" fill="#120F11"/>
<path d="M231.112 26.03C231.112 26.03 231.772 25.8624 232.227 26.2516C232.227 26.2516 232.042 26.8705 232.056 27.2654C232.056 27.2654 231.865 26.714 230.867 27.0016C230.867 27.0016 231.111 26.2643 231.112 26.03Z" fill="#120F11"/>
<path d="M232.145 26.2983C232.145 26.2983 231.196 25.954 230.941 26.8813L231.094 26.1197C231.094 26.1197 231.518 25.8884 232.145 26.2983Z" fill="white"/>
<path d="M244.312 29.2832C244.312 29.2832 244.785 30.2317 244.062 30.3967C244.062 30.3967 245.053 29.8809 247.548 31.1848L244.312 29.2832Z" fill="url(#paint7_linear_562_3358)"/>
<path d="M224.445 18.4269L225.612 18.8891C225.612 18.8891 226.924 17.9779 229.037 17.9987L230.838 17.3584C230.838 17.3584 229.376 19.2714 227.61 19.6041C227.61 19.6041 229.287 19.6226 229.784 20.0842C229.784 20.0842 236.042 17.8445 237.343 19.3344C237.343 19.3344 237.75 19.9919 237.093 20.3997C236.436 20.8071 235.859 20.9744 235.859 20.9744C235.859 20.9744 236.363 21.064 237.095 21.3981C237.095 21.3981 238.348 20.485 239.015 20.8655C239.015 20.8655 241.076 16.2729 237.935 15.0877C234.796 13.9047 228.918 14.5703 224.445 18.4269Z" fill="#EDC3A4"/>
<path d="M247.848 32.3977C247.848 32.3977 251.043 31.8032 249.994 34.6732C249.994 34.6732 248.629 38.1311 247.09 36.6974L247.348 35.8723C247.348 35.8723 248.706 36.2561 249.174 34.5582C249.174 34.5582 249.458 33.1082 247.732 33.1695L247.848 32.3977Z" fill="#A36451"/>
<path d="M257.081 28.9552C256.169 24.333 250.832 23.3371 250.832 23.3371C256.177 22.2584 257.943 25.082 257.943 25.082C257.313 19.8869 251.129 19.219 251.129 19.219C252.826 16.994 255.609 18.7819 255.609 18.7819C252.131 11.5661 248.154 12.0551 248.154 12.0551C250.155 9.8465 253.716 9.30327 253.716 9.30327C249.096 6.97052 241.342 10.9107 241.342 10.9107C241.342 7.82979 243.775 7.20233 243.775 7.20233C240.389 5.60267 237.268 7.1708 237.268 7.1708C237.945 5.45528 237.644 2.17628 235.624 0.687228C235.619 0.68684 235.392 0.896769 235.568 1.16778C235.973 5.13531 234.321 8.20545 234.321 8.20545C232.656 2.39557 229.795 0 229.795 0C230.176 2.87243 229.159 8.2235 229.159 8.2235C224.804 -0.69596 217.171 1.24133 217.171 1.24133C221.814 3.0321 222.211 9.87241 222.211 9.87241C215.8 5.93917 209.578 10.0876 209.578 10.0876C218.41 10.2715 220.649 14.6881 220.649 14.6881C216.801 15.3245 215.11 18.694 215.11 18.694C219.576 17.8692 220.065 19.2251 220.065 19.2251C224.817 12.9781 224.445 18.4234 224.445 18.4234C232.4 16.2246 227.61 19.6009 227.61 19.6009C242.517 16.2383 235.858 20.9715 235.858 20.9715C249.903 19.0965 247.94 30.716 247.94 30.716C248.359 30.0207 249.553 29.7237 249.553 29.7237C251.805 29.2273 253.073 30.9302 253.073 30.9302C253.257 28.5784 251.522 27.1428 251.522 27.1428C253.86 25.782 257.081 28.9552 257.081 28.9552Z" fill="url(#paint8_linear_562_3358)"/>
<path d="M244.488 18.2107C244.488 18.2107 250.892 15.3985 254.866 18.1523C254.866 18.1523 251.559 16.5777 249.249 21.7836C249.249 21.7836 250.476 17.4628 244.488 18.2107Z" fill="#1B4353"/>
<path d="M245.285 13.2358C245.285 13.2358 248.512 10.8162 252.853 15.4144C252.853 15.4144 250.731 12.4658 245.285 13.2358Z" fill="#4498C2"/>
<path d="M244.398 12.5484C244.398 12.5484 245.906 9.03729 252.541 9.28064C252.541 9.28064 246.612 9.97248 244.398 12.5484Z" fill="#164A61"/>
<path d="M241.824 14.6447C241.52 10.5213 248.451 9.14099 248.451 9.14099C241.186 10.0729 240.614 12.8777 240.614 12.8777C238.566 11.9907 238.596 10.1652 238.596 10.1652C238.387 7.00362 241.95 7.261 241.95 7.261C237.197 6.84851 236.32 8.16815 236.17 8.53046C237.068 5.8568 235.689 4.02746 235.689 4.02746C234.99 11.3504 231.452 9.07617 231.452 9.07617C232.572 5.48328 229.935 1.54441 229.935 1.54441C230.432 4.69548 228.695 9.84636 228.695 9.84636C225.706 1.40711 218.118 1.38965 218.118 1.38965C223.297 3.89438 223.362 11.0935 223.362 11.0935C215.64 6.60841 211.309 9.69912 211.309 9.69912C217.306 8.2369 224.636 14.5038 224.636 14.5038C217.074 15.1574 216.206 17.7823 216.206 17.7823C218.327 15.306 226.098 15.1246 226.098 15.1246C224.681 15.7515 224.938 17.5665 224.938 17.5665C226.948 14.7103 232.397 16.7241 232.397 16.7241C229.904 16.8136 229.579 18.4572 229.579 18.4572C231.092 17.8271 234.121 16.9162 237.039 17.6152C241.79 18.7533 239.174 17.8659 241.437 16.3598C247.199 13.0351 251.08 15.2732 251.08 15.2732C248.14 12.764 242.714 14.2385 241.824 14.6447Z" fill="#4498C2"/>
<path d="M215.109 18.6949C215.109 18.6949 217.773 14.8431 223.119 14.8306C223.119 14.8306 218.27 13.4736 215.109 18.6949Z" fill="#A4DCF3"/>
<path d="M222.48 11.7476C222.48 11.7476 226.754 7.97228 228.776 13.4247C228.776 13.4247 227.106 8.96812 222.48 11.7476Z" fill="#A4DCF3"/>
<path d="M238.863 8.04492C238.863 8.04492 232.636 9.27946 231.555 13.9517L232.284 14.4008C232.284 14.4008 232.142 10.1822 238.863 8.04492Z" fill="#A4DCF3"/>
<path d="M229.797 0.000976562C229.797 0.000976562 231.062 5.14687 228.669 10.489L228.367 9.51995C228.367 9.51995 230.347 5.41671 229.797 0.000976562Z" fill="#A4DCF3"/>
<path d="M222.477 11.7477C222.477 11.7477 226.253 8.588 229.033 13.8182L227.882 13.8595C227.882 13.8595 227.018 9.85722 222.477 11.7477Z" fill="url(#paint9_linear_562_3358)"/>
<path d="M222.535 2.5752C222.535 2.5752 229.368 5.6923 229.06 13.1934C229.06 13.1934 229.474 8.6655 222.535 2.5752Z" fill="#2A6782"/>
<path d="M238.863 8.04492C238.863 8.04492 234.479 8.96929 234.215 15.0281C234.215 15.0281 234.266 11.0896 238.863 8.04492Z" fill="url(#paint10_linear_562_3358)"/>
<path d="M247.931 28.1727C247.931 28.1727 253.355 24.2462 257.079 28.9559C257.079 28.9559 254.983 23.9845 249.372 25.5284C249.372 25.5284 248.328 23.1653 250.133 22.6207C250.133 22.6207 253.839 21.5283 257.483 24.0867C257.483 24.0867 254.74 19.8635 249.41 21.206C249.41 21.206 251.417 18.2538 248.232 17.7915C245.046 17.3289 242.892 18.8462 242.546 19.9149C242.546 19.9149 245.9 17.011 247.838 20.2062C247.838 20.2062 244.221 19.4534 241.395 20.9945C241.395 20.9945 244.976 21.4608 246.776 24.4854C246.776 24.4854 247.512 25.1126 247.931 28.1727Z" fill="#1B4353"/>
<path d="M247.865 32.3036L247.801 32.7301C248.212 32.6689 250.501 32.4228 250.031 34.5194C251.013 31.7194 247.865 32.3036 247.865 32.3036Z" fill="#8D5E24"/>
<path d="M212.906 9.92773C212.906 9.92773 219.726 10.4505 222.195 14.5894L221.139 14.6268C221.139 14.6268 219.574 11.1679 212.906 9.92773Z" fill="#164A61"/>
<path d="M242.866 7.22656C242.866 7.22656 237.985 7.68902 240.225 11.2576C240.225 11.2576 239.75 8.68233 242.866 7.22656Z" fill="#164A61"/>
<path d="M232.579 4.23535C232.579 4.23535 234.401 6.8589 232.273 9.14303C232.273 9.14303 235.863 10.1676 232.579 4.23535Z" fill="#164A61"/>
<path d="M233.111 14.9737C233.111 14.9737 229.048 11.4697 226.105 15.1274C226.105 15.1274 227.557 12.7231 233.111 14.9737Z" fill="#164A61"/>
<path d="M236.58 15.0771C236.58 15.0771 238.093 14.1913 237.953 16.9286C237.953 16.9286 240.3 12.8056 237.698 13.136C237.698 13.136 236.318 14.3735 236.58 15.0771Z" fill="url(#paint11_linear_562_3358)"/>
<path d="M210.367 9.80468C210.367 9.80468 213.807 6.70835 220.933 9.23865C220.933 9.23865 216.153 7.20529 210.367 9.80468Z" fill="#A4DCF3"/>
<path d="M215.206 18.6323C215.206 18.6323 219.12 15.9675 221.664 17.3324L220.065 19.2259C220.065 19.2259 218.581 18.0071 215.109 18.6948" fill="#164A61"/>
<path d="M223.664 36.165C223.664 36.165 230.662 41.8509 238.61 36.1211L238.61 36.2908C238.61 36.2908 231.451 43.1642 223.613 36.2564L223.664 36.165Z" fill="#5C3A09"/>
<path d="M238.521 34.5107C238.521 34.5107 238.605 36.4962 239.926 37.0278C239.926 37.0278 237.836 37.2956 238.521 34.5107Z" fill="#885241"/>
<path d="M223.763 34.9971C223.763 34.9971 223.958 37.592 222.402 37.2181C222.402 37.2181 223.48 36.4349 223.763 34.9971Z" fill="#CC7D65"/>
<path d="M229.867 40.4214C229.867 40.4214 235.585 41.7798 234.924 39.8145C234.924 39.8145 233.87 41.0118 229.867 40.4214Z" fill="#CB896A"/>
<path d="M29.7845 30.208C29.7845 33.9942 28.6699 37.1965 26.4406 39.8148C23.9991 42.7165 20.726 44.1672 16.6213 44.1672C12.5167 44.1672 9.31436 42.7694 7.01437 39.9744C4.92668 37.4264 3.88281 34.1711 3.88281 30.208V7.22559H8.76594V30.7388C8.76594 33.4634 9.45593 35.6396 10.8359 37.2673C12.216 38.8949 14.1444 39.709 16.6213 39.709C19.2398 39.709 21.3098 38.7533 22.8314 36.8427C24.1406 35.1796 24.7953 33.2688 24.7953 31.1104C24.7953 28.2442 23.9637 26.0326 22.3006 24.4757C20.8852 23.1311 19.1337 22.4588 17.046 22.4588C15.7721 22.4588 14.5514 22.6888 13.3836 23.1488C12.0744 23.7857 11.0836 24.228 10.4113 24.4757V20.0172C11.4375 19.4157 12.4813 18.938 13.5429 18.5841C14.6398 18.2303 15.7368 18.0534 16.8337 18.0534C20.2306 18.0534 23.1852 19.1326 25.6976 21.2911C28.4222 23.6265 29.7845 26.5988 29.7845 30.208Z" fill="#67696B"/>
<path d="M58.8 30.7374C58.8 33.9574 57.7739 36.8412 55.7217 39.3888C53.3507 42.3259 50.2724 43.7945 46.4862 43.7945C41.9569 43.7945 38.5069 42.4676 36.1361 39.8138C33.9777 37.4074 32.8984 34.2051 32.8984 30.2066C32.8984 26.4558 34.19 23.3773 36.7731 20.9712C39.2146 18.7065 42.1692 17.5742 45.6372 17.5742C49.1754 17.5742 52.1301 18.565 54.501 20.5465C57.3669 22.9173 58.8 26.3143 58.8 30.7374ZM53.8106 30.2066C53.8106 27.7297 53.1033 25.7481 51.6876 24.2619C50.2724 22.7758 48.2556 22.0327 45.6372 22.0327C42.9829 22.0327 40.9485 22.935 39.5331 24.7396C38.3654 26.2258 37.7815 28.0481 37.7815 30.2066C37.7815 32.542 38.3123 34.5235 39.3739 36.1512C40.7538 38.2389 42.8417 39.283 45.6372 39.283C48.1493 39.283 50.0778 38.6635 51.4222 37.4248C53.0145 35.9389 53.8106 33.5328 53.8106 30.2066Z" fill="#67696B"/>
<path d="M88.0462 30.208C88.0462 33.9942 86.9318 37.1965 84.7025 39.8148C82.2607 42.7165 78.9878 44.1672 74.8834 44.1672C70.7784 44.1672 67.5764 42.7694 65.2762 39.9744C63.1886 37.4264 62.1445 34.1711 62.1445 30.208V7.22559H67.0277V30.7388C67.0277 33.4634 67.7176 35.6396 69.0978 37.2673C70.4776 38.8949 72.4061 39.709 74.8834 39.709C77.5018 39.709 79.5715 38.7533 81.0934 36.8427C82.4024 35.1796 83.0568 33.2688 83.0568 31.1104C83.0568 28.2442 82.2253 26.0326 80.5621 24.4757C79.1469 23.1311 77.3955 22.4588 75.3079 22.4588C74.0338 22.4588 72.8132 22.6888 71.6454 23.1488C70.336 23.7857 69.3453 24.228 68.6728 24.4757V20.0172C69.6994 19.4157 70.743 18.938 71.8045 18.5841C72.9015 18.2303 73.9984 18.0534 75.0954 18.0534C78.4925 18.0534 81.4471 19.1326 83.9592 21.2911C86.6839 23.6265 88.0462 26.5988 88.0462 30.208Z" fill="#67696B"/>
<path d="M108.2 43.3646H102.892C98.787 43.3646 95.6553 41.8965 93.4968 38.9593C91.7987 36.6594 90.9492 34.0409 90.9492 31.104C90.9492 28.3085 91.9224 25.6901 93.8684 23.2485C96.2394 20.2762 99.3886 18.79 103.316 18.79H108.2V23.2485H104.537C102.556 23.2485 100.804 23.7793 99.2823 24.8408C97.2655 26.2562 96.2569 28.3439 96.2569 31.104C96.2569 33.0501 96.8764 34.7486 98.1145 36.1993C99.6365 37.9686 101.777 38.8531 104.537 38.8531H108.2V43.3646Z" fill="#67696B"/>
<path d="M137.695 43.3691H132.706V28.9854C132.706 27.11 132.122 25.6061 130.954 24.4738C129.539 23.1292 127.398 22.4569 124.532 22.4569C122.692 22.4569 121.011 23.0054 119.49 24.1023C117.366 25.6238 116.305 27.8354 116.305 30.7369C116.305 33.5323 117.225 35.7085 119.065 37.2654C120.657 38.6102 122.621 39.2821 124.956 39.2821C126.089 39.2821 127.097 39.0347 127.982 38.5393C128.902 38.0086 129.928 37.177 131.06 36.0447V41.7239C130.176 42.3964 129.238 42.9092 128.247 43.2633C127.256 43.617 125.894 43.7941 124.16 43.7941C120.834 43.7941 117.986 42.6438 115.615 40.3441C113.067 37.8669 111.793 34.6646 111.793 30.7369C111.793 27.0569 112.908 24.0492 115.137 21.7138C117.543 19.2015 120.816 17.9453 124.956 17.9453C128.849 17.9453 131.998 19.0423 134.404 21.2361C136.598 23.253 137.695 25.6946 137.695 28.5607V43.3691Z" fill="#67696B"/>
<path d="M154.395 22.0327H153.174C150.945 22.3158 149.281 23.2535 148.184 24.8458C147.088 26.4381 146.539 28.8089 146.539 31.9581V43.3695H142.027V18.3704H146.539V20.8119C147.07 19.9981 147.777 19.3081 148.662 18.7419C149.865 17.9635 151.192 17.5742 152.643 17.5742H154.395V22.0327Z" fill="#67696B"/>
<path d="M181.994 32.3293C181.994 35.0539 181.038 37.5661 179.128 39.8663C176.757 42.7326 173.449 44.1653 169.202 44.1653C165.487 44.1653 162.355 42.98 159.808 40.6095C157.295 38.2031 156.039 35.1777 156.039 31.5331C156.039 27.1808 157.508 23.7307 160.444 21.183C162.957 19.0246 165.876 17.9453 169.202 17.9453C171.892 17.9453 174.351 18.7415 176.58 20.3338C178.526 21.7138 180.189 23.6423 181.569 26.1192L164.213 35.6201L162.196 31.9577L174.51 24.8984C173.449 23.8369 172.723 23.2177 172.334 23.0407C171.485 22.6515 170.441 22.4569 169.202 22.4569C166.619 22.4569 164.567 23.3946 163.045 25.27C161.665 26.9685 160.975 29.0561 160.975 31.5331C160.975 33.727 161.665 35.6023 163.045 37.1593C164.567 38.8576 166.619 39.7071 169.202 39.7071C171.856 39.7071 173.785 39.0347 174.987 37.6898C175.872 36.6993 176.669 34.7885 177.376 31.9577L181.994 32.3293Z" fill="#67696B"/>
<path d="M205.404 36.842C205.404 39.4605 204.431 41.3007 202.485 42.3622C201.14 43.105 199.318 43.4766 197.018 43.4766L195.107 43.3704H184.863V38.8589H195.479L197.124 38.9651C198.186 38.9651 198.946 38.8589 199.406 38.6464C200.114 38.3281 200.468 37.7265 200.468 36.8419C200.468 35.5681 199.265 34.5066 196.859 33.6573C196.116 33.4096 194.559 32.9673 192.188 32.3304C189.817 31.6935 188.048 30.8265 186.881 29.7296C185.536 28.4911 184.863 26.8811 184.863 24.8996C184.863 22.2811 185.837 20.4765 187.782 19.4857C189.234 18.7426 191.533 18.3711 194.683 18.3711H204.183V22.458H194.258C192.843 22.458 191.746 22.5996 190.967 22.8826C190.189 23.1657 189.8 23.6965 189.8 24.475C189.8 25.855 191.109 26.9165 193.727 27.6596C194.895 27.9781 196.063 28.2788 197.23 28.5619C200.344 29.6589 202.485 30.7912 203.653 31.9589C204.82 33.1266 205.404 34.7543 205.404 36.842Z" fill="#67696B"/>
<defs>
<linearGradient id="paint0_linear_562_3358" x1="233.451" y1="27.8832" x2="232.388" y2="68.0589" gradientUnits="userSpaceOnUse">
<stop stop-color="#F5E2BF"/>
<stop offset="1" stop-color="#F09D68"/>
</linearGradient>
<radialGradient id="paint1_radial_562_3358" cx="0" cy="0" r="1" gradientUnits="userSpaceOnUse" gradientTransform="translate(226.187 25.9659) rotate(0.429716) scale(29.6606 29.6605)">
<stop stop-color="#E9D1A7"/>
<stop offset="0.2929" stop-color="#E9CEA4"/>
<stop offset="0.5248" stop-color="#EAC69A"/>
<stop offset="0.7356" stop-color="#ECB889"/>
<stop offset="0.9329" stop-color="#EFA572"/>
<stop offset="1" stop-color="#F09D68"/>
</radialGradient>
<linearGradient id="paint2_linear_562_3358" x1="241.637" y1="33.3373" x2="248.762" y2="36.3232" gradientUnits="userSpaceOnUse">
<stop stop-color="#F0C49A"/>
<stop offset="1" stop-color="#CA9C6A"/>
</linearGradient>
<linearGradient id="paint3_linear_562_3358" x1="218.497" y1="24.8644" x2="225.529" y2="24.6134" gradientUnits="userSpaceOnUse">
<stop stop-color="#6E6C6C"/>
<stop offset="1" stop-color="#231F20"/>
</linearGradient>
<linearGradient id="paint4_linear_562_3358" x1="224.728" y1="26.0252" x2="227.641" y2="25.9212" gradientUnits="userSpaceOnUse">
<stop stop-color="#4D4D4F"/>
<stop offset="0.522" stop-color="#171600"/>
</linearGradient>
<linearGradient id="paint5_linear_562_3358" x1="232.237" y1="28.5066" x2="239.431" y2="28.2499" gradientUnits="userSpaceOnUse">
<stop stop-color="#6E6C6C"/>
<stop offset="1" stop-color="#231F20"/>
</linearGradient>
<linearGradient id="paint6_linear_562_3358" x1="235.759" y1="28.7994" x2="238.672" y2="28.6954" gradientUnits="userSpaceOnUse">
<stop stop-color="#4D4D4F"/>
<stop offset="0.6044" stop-color="#171600"/>
</linearGradient>
<linearGradient id="paint7_linear_562_3358" x1="244.06" y1="30.3004" x2="247.512" y2="30.1772" gradientUnits="userSpaceOnUse">
<stop stop-color="#3A3A3A"/>
<stop offset="1" stop-color="#231F20"/>
</linearGradient>
<linearGradient id="paint8_linear_562_3358" x1="209.81" y1="16.5935" x2="257.579" y2="14.8888" gradientUnits="userSpaceOnUse">
<stop stop-color="#0085A8"/>
<stop offset="1" stop-color="#006280"/>
</linearGradient>
<linearGradient id="paint9_linear_562_3358" x1="222.503" y1="12.4714" x2="228.977" y2="12.2403" gradientUnits="userSpaceOnUse">
<stop stop-color="#0085A8"/>
<stop offset="1" stop-color="#006280"/>
</linearGradient>
<linearGradient id="paint10_linear_562_3358" x1="234.094" y1="11.6236" x2="238.984" y2="11.449" gradientUnits="userSpaceOnUse">
<stop stop-color="#0085A8"/>
<stop offset="1" stop-color="#006280"/>
</linearGradient>
<linearGradient id="paint11_linear_562_3358" x1="236.553" y1="15.0727" x2="238.958" y2="14.9869" gradientUnits="userSpaceOnUse">
<stop stop-color="#0085A8"/>
<stop offset="1" stop-color="#006280"/>
</linearGradient>
</defs>
</svg>
