<svg width="239" height="70" viewBox="0 0 239 70" fill="none" xmlns="http://www.w3.org/2000/svg">
<path d="M228.017 30.5477C228.028 30.3694 228.04 30.19 228.05 30.0067C228.611 20.057 224.496 13.0404 216.841 12.441C215.963 12.3718 215.319 12.3526 214.344 12.3151C213.666 12.249 212.983 12.2673 212.286 12.2128C207.119 11.8078 203.99 15.3336 201.5 20.2697C201.479 20.2532 199.702 18.8775 197.77 22.5041C197.77 22.5041 196.618 25.6201 199.227 25.4422C198.879 26.3168 198.535 27.2062 198.191 28.1007C194.962 36.4811 202.909 40.6722 208.874 43.9212C210.827 44.9856 215.344 45.1532 217.296 44.4609C222.65 43.2299 225.59 41.4272 227.02 36.7609C227.543 37.1284 229.085 37.7417 230.919 34.1436C230.919 34.1436 233.22 29.6943 228.017 30.5477V30.5477Z" fill="url(#paint0_linear_80_196)"/>
<path d="M219.466 35.2655C212.782 44.3044 205.353 35.1658 205.353 35.1658C204.068 37.3011 201.439 36.5827 201.439 36.5827C196.714 35.471 198.083 30.0117 198.083 30.0117C198.018 29.7535 198.27 28.7587 198.424 27.5271C194.926 35.8173 201.79 39.9459 208.532 43.7514C209.641 44.3771 211.552 44.8123 213.39 44.9304C223.911 44.9262 225.427 36.3317 225.427 36.3317C223.021 41.692 219.466 35.2655 219.466 35.2655V35.2655Z" fill="url(#paint1_radial_80_196)"/>
<path opacity="0.8" d="M209.979 30.3013C209.979 30.3013 210.36 29.6485 212.301 31.2618C212.301 31.2618 212.447 31.5927 213.084 31.5028C213.084 31.5028 214.124 32.3739 211.25 31.9719C211.25 31.9719 209.818 31.4509 209.979 30.3013Z" fill="#E3AE75"/>
<path d="M211.854 27.6469C211.854 27.6469 211.185 29.5585 209.703 30.106C209.703 30.106 209.88 33.2541 213.27 31.8967C213.27 31.8967 210.27 32.8442 209.977 30.2978C209.977 30.298 212.147 29.0114 211.854 27.6469Z" fill="#B57C5E"/>
<path opacity="0.6" d="M211.967 30.5644C211.967 30.5644 212.257 30.0652 213.278 30.6931C213.278 30.6931 213.346 31.7988 211.967 30.5644Z" fill="#FFF4EF"/>
<path opacity="0.5" d="M220.982 32.8462C220.982 32.8462 221.808 32.156 222.638 32.9294C223.468 33.7017 220.235 33.062 220.982 32.8462Z" fill="white"/>
<path opacity="0.64" d="M201.638 27.566C201.638 27.566 199.471 27.1952 198.898 28.7406C198.325 30.2867 199.962 28.522 201.638 27.566Z" fill="white"/>
<path d="M199.782 25.0065C199.782 25.0065 197.832 24.4724 198.642 22.4122C198.642 22.4122 199.888 20.5513 201.245 21.2096L200.884 21.9328C200.884 21.9328 199.822 21.3576 199.14 22.8544C199.14 22.8544 198.454 24.1157 200.055 24.3129L199.782 25.0065Z" fill="#EDC69E"/>
<path d="M198.814 22.5391C198.814 22.5391 199.571 21.1326 201.055 21.1781C199.774 20.7669 198.643 22.4557 198.643 22.4557C197.833 24.5155 199.767 25.0959 199.767 25.0959L199.761 24.9514C199.297 24.7365 198.196 24.1104 198.814 22.5391V22.5391Z" fill="#E3AE75"/>
<path d="M202.512 19.4118C202.512 19.4118 199.051 25.5014 197.915 30.1181C200.62 22.9793 200.624 22.9734 202.512 19.4118Z" fill="white"/>
<path d="M228.01 30.5543C228.022 30.3761 228.034 30.1971 228.044 30.0143C228.262 26.1457 227.774 22.7207 226.645 19.9441C223.887 18.7008 224.36 16.3446 220.522 18.6282C220.522 18.6282 227.323 23.3286 218.971 28.1123L220.544 31.9688C220.544 31.9688 229.054 31.6097 223.617 40.148C221.149 44.0232 216.329 44.6174 214.89 44.8627C215.834 44.8146 216.685 44.6831 217.29 44.4685C222.644 43.237 225.584 41.434 227.014 36.7676C227.538 37.1356 229.079 37.7493 230.913 34.1512C230.913 34.1509 233.214 29.7012 228.01 30.5543V30.5543Z" fill="url(#paint2_linear_80_196)"/>
<path d="M223.941 21.4053C223.941 21.4053 229.224 24.2452 227.056 33.2715C227.056 33.2715 226.914 42.4949 218.092 44.1561C218.092 44.1561 224.672 43.7867 226.986 36.9747C226.986 36.9747 231.069 23.1702 223.941 21.4053Z" fill="#CC8E66"/>
<path d="M212.313 25.2978C212.313 25.2978 212.593 19.8435 204.111 20.0292C204.111 20.0292 197.069 20.9343 202.198 27.1716C202.198 27.1716 206.019 31.7193 210.709 28.4625C210.709 28.4625 212.423 27.2156 212.313 25.2978V25.2978Z" fill="#120F11"/>
<path d="M203.984 25.9844C204.399 22.7146 205.708 21.0533 206.943 20.3223C206.114 20.188 205.519 20.0369 203.745 20.2909C203.745 20.2909 197.597 21.3751 202.155 26.8567C202.155 26.8567 203.131 28.1513 204.451 28.7555C204.083 27.7137 203.984 25.9844 203.984 25.9844V25.9844Z" fill="url(#paint3_linear_80_196)"/>
<path d="M211.926 25.3477C211.926 25.3477 211.837 20.0522 204.48 20.5652C204.48 20.5652 198.088 21.387 202.744 27.0487C202.744 27.0487 206.219 31.0634 210.47 28.2207C210.47 28.2207 212.025 27.0887 211.926 25.3477V25.3477Z" fill="#FFF1E8"/>
<path d="M211.661 25.085C211.733 27.0783 210.175 28.751 208.183 28.8221C206.19 28.8935 203.992 26.9113 203.921 24.9189C203.851 22.9257 205.55 21.5574 207.542 21.4861C209.535 21.4148 211.59 23.0928 211.661 25.085V25.085Z" fill="#6B6B6B"/>
<path d="M211.209 25.1543C211.272 26.9235 209.89 28.4088 208.121 28.472C206.351 28.5352 204.4 26.7754 204.337 25.0062C204.274 23.2371 205.783 22.0222 207.552 21.9587C209.321 21.8959 211.145 23.3851 211.209 25.1543V25.1543Z" fill="white"/>
<path d="M209.061 25.5969C209.086 26.3142 208.497 26.9178 207.746 26.9444C206.995 26.9717 206.365 26.4115 206.339 25.694C206.313 24.9772 206.902 24.3734 207.653 24.3466C208.404 24.32 209.035 24.8794 209.061 25.5969Z" fill="url(#paint4_linear_80_196)"/>
<path d="M206.806 24.6714C206.806 24.6714 206.952 25.0883 207.438 25.5417C207.438 25.5417 207.248 24.5501 207.277 24.4146C207.277 24.4146 207.006 24.4916 206.806 24.6714V24.6714Z" fill="white"/>
<path d="M224.279 28.6322C224.279 28.6322 224.684 22.9999 216.684 23.7535C216.684 23.7535 210.163 24.5921 214.913 30.3678C214.913 30.3678 218.29 34.2634 222.793 31.5624C222.794 31.5624 224.379 30.4083 224.279 28.6322V28.6322Z" fill="#080808"/>
<path d="M216.964 29.7045C217.396 26.2986 218.651 24.662 219.937 23.9008C219.073 23.7608 218.044 23.7262 216.816 23.8412C216.816 23.8412 210.294 24.6731 215.043 30.3834C215.043 30.3834 215.866 31.3227 217.241 31.952C216.858 30.8671 216.964 29.7045 216.964 29.7045Z" fill="url(#paint5_linear_80_196)"/>
<path d="M223.599 28.6161C223.599 28.6161 223.999 23.9703 217.164 24.0795C217.164 24.0795 211.04 25.0221 215.265 30.1601C215.265 30.1601 218.621 33.5438 222.278 31.2237C222.277 31.2236 223.69 30.1962 223.599 28.6161V28.6161Z" fill="#FFF1E8"/>
<path d="M222.223 28.146C222.291 30.0577 220.797 31.662 218.886 31.7299C216.975 31.7981 214.868 29.8972 214.799 27.986C214.731 26.0753 216.361 24.7626 218.271 24.6942C220.183 24.6267 222.155 26.2349 222.223 28.146Z" fill="#6B6B6B"/>
<path d="M221.793 28.2154C221.854 29.9123 220.528 31.3371 218.83 31.3969C217.134 31.4582 215.264 29.7699 215.203 28.0729C215.142 26.3767 216.589 25.2119 218.286 25.1513C219.983 25.0906 221.733 26.519 221.793 28.2154V28.2154Z" fill="white"/>
<path d="M219.369 28.1891C219.395 28.9071 218.806 29.5101 218.055 29.5373C217.303 29.5639 216.673 29.0037 216.647 28.2869C216.622 27.5694 217.211 26.9661 217.962 26.9395C218.714 26.9122 219.344 27.4723 219.369 28.1891Z" fill="url(#paint6_linear_80_196)"/>
<path d="M217.111 27.2622C217.111 27.2622 217.256 27.6793 217.743 28.1326C217.743 28.1326 217.552 27.1417 217.581 27.0059C217.581 27.0059 217.31 27.0827 217.111 27.2622Z" fill="white"/>
<path d="M224.153 28.2933L228.021 30.4874C228.021 30.4874 228.528 30.8624 227.939 31.0067L223.824 29.763C223.824 29.763 224.413 28.6651 224.153 28.2933Z" fill="#120F11"/>
<path d="M212.306 25.6987C212.306 25.6987 212.923 25.5421 213.348 25.9057C213.348 25.9057 213.175 26.484 213.188 26.8529C213.188 26.8529 213.01 26.3377 212.077 26.6064C212.077 26.6062 212.305 25.9176 212.306 25.6987V25.6987Z" fill="#120F11"/>
<path d="M213.27 25.9491C213.27 25.9491 212.383 25.6274 212.146 26.4938L212.288 25.7823C212.288 25.7823 212.684 25.5661 213.27 25.9491Z" fill="white"/>
<path d="M224.637 28.7392C224.637 28.7392 225.079 29.6254 224.404 29.7796C224.404 29.7796 225.33 29.2977 227.66 30.5159L224.637 28.7392Z" fill="url(#paint7_linear_80_196)"/>
<path d="M206.078 18.5944L207.168 19.0263C207.168 19.0263 208.394 18.1749 210.369 18.1944L212.051 17.5961C212.051 17.5961 210.685 19.3835 209.035 19.6943C209.035 19.6943 210.602 19.7115 211.066 20.1429C211.066 20.1429 216.913 18.0503 218.129 19.4423C218.129 19.4423 218.51 20.0567 217.895 20.4377C217.281 20.8183 216.742 20.9746 216.742 20.9746C216.742 20.9746 217.214 21.0583 217.898 21.3705C217.898 21.3705 219.068 20.5174 219.691 20.8729C219.691 20.8729 221.616 16.5819 218.682 15.4746C215.75 14.3692 210.257 14.9911 206.078 18.5944V18.5944Z" fill="#EDC3A4"/>
<path d="M227.938 31.6479C227.938 31.6479 230.924 31.0924 229.944 33.7739C229.944 33.7739 228.668 37.0048 227.23 35.6652L227.471 34.8943C227.471 34.8943 228.741 35.2528 229.177 33.6664C229.177 33.6664 229.443 32.3117 227.83 32.3691L227.938 31.6479Z" fill="#A36451"/>
<path d="M236.571 28.432C235.718 24.1133 230.731 23.1829 230.731 23.1829C235.725 22.175 237.376 24.8132 237.376 24.8132C236.787 19.9593 231.009 19.3353 231.009 19.3353C232.595 17.2563 235.195 18.9269 235.195 18.9269C231.946 12.185 228.23 12.6418 228.23 12.6418C230.099 10.5783 233.427 10.0707 233.427 10.0707C229.11 7.89118 221.865 11.5726 221.865 11.5726C221.865 8.69398 224.139 8.10777 224.139 8.10777C220.974 6.61315 218.058 8.0783 218.058 8.0783C218.692 6.47541 218.41 3.41176 216.523 2.02052C216.518 2.02014 216.306 2.2163 216.47 2.46951C216.849 6.17646 215.305 9.045 215.305 9.045C213.75 3.61667 211.077 1.37845 211.077 1.37845C211.432 4.06223 210.483 9.06184 210.483 9.06184C206.413 0.728175 199.282 2.53825 199.282 2.53825C203.62 4.21139 203.991 10.6025 203.991 10.6025C198 6.92755 192.187 10.8035 192.187 10.8035C200.439 10.9754 202.531 15.1018 202.531 15.1018C198.936 15.6965 197.356 18.8447 197.356 18.8447C201.529 18.0741 201.986 19.3409 201.986 19.3409C206.425 13.5042 206.078 18.5919 206.078 18.5919C213.511 16.5375 209.034 19.692 209.034 19.692C222.963 16.5503 216.742 20.9727 216.742 20.9727C229.864 19.2208 228.03 30.0772 228.03 30.0772C228.421 29.4275 229.537 29.15 229.537 29.15C231.641 28.6862 232.825 30.2772 232.825 30.2772C232.997 28.0799 231.377 26.7386 231.377 26.7386C233.561 25.4672 236.571 28.432 236.571 28.432V28.432Z" fill="url(#paint8_linear_80_196)"/>
<path d="M224.805 18.393C224.805 18.393 230.789 15.7655 234.502 18.3385C234.502 18.3385 231.411 16.8672 229.253 21.7312C229.253 21.7312 230.399 17.6942 224.805 18.393Z" fill="#1B4353"/>
<path d="M225.547 13.7445C225.547 13.7445 228.562 11.4838 232.618 15.78C232.618 15.78 230.635 13.0251 225.547 13.7445Z" fill="#4498C2"/>
<path d="M224.72 13.1024C224.72 13.1024 226.129 9.82186 232.328 10.0492C232.328 10.0492 226.788 10.6956 224.72 13.1024Z" fill="#164A61"/>
<path d="M222.317 15.061C222.033 11.2084 228.508 9.91875 228.508 9.91875C221.72 10.7895 221.186 13.41 221.186 13.41C219.273 12.5813 219.301 10.8757 219.301 10.8757C219.106 7.92176 222.435 8.16221 222.435 8.16221C217.994 7.77683 217.175 9.00978 217.034 9.34829C217.873 6.85024 216.585 5.14103 216.585 5.14103C215.932 11.983 212.626 9.85816 212.626 9.85816C213.673 6.50125 211.209 2.82105 211.209 2.82105C211.673 5.76519 210.05 10.5778 210.05 10.5778C207.257 2.69277 200.168 2.67649 200.168 2.67649C205.007 5.0167 205.067 11.743 205.067 11.743C197.852 7.55248 193.806 10.4402 193.806 10.4402C199.409 9.07401 206.258 14.9293 206.258 14.9293C199.192 15.54 198.382 17.9925 198.382 17.9925C200.363 15.6789 207.624 15.5094 207.624 15.5094C206.299 16.0951 206.539 17.7909 206.539 17.7909C208.418 15.1223 213.509 17.0038 213.509 17.0038C211.18 17.0875 210.875 18.6231 210.875 18.6231C212.29 18.0344 215.12 17.1833 217.846 17.8364C222.284 18.8997 219.841 18.0707 221.955 16.6634C227.339 13.5571 230.965 15.6482 230.965 15.6482C228.218 13.3038 223.148 14.6815 222.317 15.061V15.061Z" fill="#4498C2"/>
<path d="M197.35 18.8454C197.35 18.8454 199.838 15.2466 204.833 15.235C204.833 15.235 200.302 13.967 197.35 18.8454Z" fill="#A4DCF3"/>
<path d="M204.24 12.3547C204.24 12.3547 208.234 8.82728 210.123 13.9216C210.123 13.9216 208.562 9.75769 204.24 12.3547Z" fill="#A4DCF3"/>
<path d="M219.546 8.89522C219.546 8.89522 213.727 10.0486 212.718 14.414L213.399 14.8337C213.399 14.8337 213.266 10.8921 219.546 8.89522Z" fill="#A4DCF3"/>
<path d="M211.079 1.37946C211.079 1.37946 212.262 6.18743 210.025 11.1786L209.743 10.2733C209.743 10.2733 211.593 6.43953 211.079 1.37946Z" fill="#A4DCF3"/>
<path d="M204.238 12.3542C204.238 12.3542 207.767 9.40202 210.364 14.2888L209.289 14.3273C209.288 14.3273 208.482 10.5879 204.238 12.3542Z" fill="url(#paint9_linear_80_196)"/>
<path d="M204.293 3.78467C204.293 3.78467 210.677 6.69709 210.389 13.7056C210.389 13.7056 210.776 9.47499 204.293 3.78467Z" fill="#2A6782"/>
<path d="M219.547 8.89467C219.547 8.89467 215.451 9.75836 215.205 15.4192C215.205 15.4192 215.253 11.7394 219.547 8.89467Z" fill="url(#paint10_linear_80_196)"/>
<path d="M228.021 27.7005C228.021 27.7005 233.089 24.0319 236.568 28.4323C236.568 28.4323 234.61 23.7873 229.368 25.2299C229.368 25.2299 228.392 23.022 230.079 22.5131C230.079 22.5131 233.541 21.4925 236.946 23.8829C236.946 23.8829 234.383 19.937 229.403 21.1913C229.403 21.1913 231.279 18.433 228.302 18.001C225.326 17.5689 223.313 18.9865 222.99 19.985C222.99 19.985 226.123 17.2719 227.935 20.2572C227.935 20.2572 224.555 19.5539 221.914 20.9938C221.914 20.9938 225.26 21.4294 226.943 24.2553C226.943 24.2551 227.63 24.8413 228.021 27.7005V27.7005Z" fill="#1B4353"/>
<path d="M227.955 31.5605L227.895 31.959C228.279 31.9019 230.418 31.6719 229.979 33.6308C230.896 31.0147 227.955 31.5605 227.955 31.5605V31.5605Z" fill="#8D5E24"/>
<path d="M195.293 10.6543C195.293 10.6543 201.665 11.1428 203.971 15.0098L202.986 15.0448C202.986 15.0448 201.523 11.813 195.293 10.6543V10.6543Z" fill="#164A61"/>
<path d="M223.288 8.13067C223.288 8.13067 218.727 8.56276 220.82 11.8969C220.821 11.8969 220.376 9.49082 223.288 8.13067Z" fill="#164A61"/>
<path d="M213.676 5.33545C213.676 5.33545 215.378 7.78667 213.391 9.92079C213.391 9.92079 216.744 10.8781 213.676 5.33545Z" fill="#164A61"/>
<path d="M214.174 15.3687C214.174 15.3687 210.379 12.0948 207.629 15.5122C207.629 15.5122 208.985 13.2658 214.174 15.3687Z" fill="#164A61"/>
<path d="M217.419 15.4653C217.419 15.4653 218.833 14.6377 218.702 17.1952C218.702 17.1952 220.895 13.343 218.464 13.6518C218.464 13.6518 217.174 14.8079 217.419 15.4653Z" fill="url(#paint11_linear_80_196)"/>
<path d="M192.925 10.5391C192.925 10.5391 196.138 7.64608 202.797 10.0102C202.797 10.0102 198.33 8.11036 192.925 10.5391Z" fill="#A4DCF3"/>
<path d="M197.446 18.7863C197.446 18.7863 201.104 16.2966 203.48 17.5719L201.986 19.341C201.986 19.341 200.599 18.2022 197.356 18.8447" fill="#164A61"/>
<path d="M205.348 35.1687C205.348 35.1687 211.886 40.4814 219.311 35.1277L219.312 35.2862C219.312 35.2862 212.623 41.708 205.3 35.254L205.348 35.1687Z" fill="#5C3A09"/>
<path d="M219.229 33.6226C219.229 33.6226 219.308 35.4777 220.542 35.9744C220.542 35.9744 218.59 36.2246 219.229 33.6226Z" fill="#885241"/>
<path d="M205.439 34.0771C205.439 34.0771 205.62 36.5015 204.167 36.1523C204.167 36.1523 205.175 35.4205 205.439 34.0771Z" fill="#CC7D65"/>
<path d="M211.141 39.1449C211.141 39.1449 216.483 40.4142 215.865 38.5778C215.865 38.5778 214.881 39.6968 211.141 39.1449Z" fill="#CB896A"/>
<path d="M24.2006 29.6024C24.2006 33.14 23.1592 36.132 21.0763 38.5785C18.7951 41.2895 15.737 42.645 11.9019 42.645C8.06686 42.645 5.07484 41.3391 2.92588 38.7273C0.975291 36.3469 0 33.3053 0 29.6024V8.12939H4.56242V30.0984C4.56242 32.6441 5.20709 34.6773 6.49647 36.1981C7.78585 37.7189 9.58767 38.4793 11.9019 38.4793C14.3484 38.4793 16.2825 37.5867 17.7041 35.8014C18.9274 34.2475 19.539 32.4622 19.539 30.4455C19.539 27.7676 18.7621 25.7013 17.2082 24.2466C15.8858 22.9903 14.2493 22.3621 12.2987 22.3621C11.1085 22.3621 9.96787 22.577 8.87686 23.0068C7.65362 23.6019 6.7279 24.0152 6.09974 24.2466V20.0809C7.05851 19.5189 8.0338 19.0726 9.02562 18.7419C10.0505 18.4113 11.0754 18.246 12.1003 18.246C15.2742 18.246 18.0347 19.2544 20.3821 21.2711C22.9278 23.4531 24.2006 26.2302 24.2006 29.6024V29.6024Z" fill="white"/>
<path d="M51.31 30.097C51.31 33.1055 50.3512 35.8 48.4337 38.1804C46.2186 40.9245 43.3423 42.2965 39.8048 42.2965C35.573 42.2965 32.3495 41.0567 30.1344 38.5771C28.1177 36.329 27.1094 33.337 27.1094 29.6011C27.1094 26.0966 28.3161 23.2203 30.7295 20.9722C33.0107 18.8563 35.7713 17.7983 39.0113 17.7983C42.3174 17.7983 45.078 18.7241 47.2931 20.5755C49.971 22.7905 51.31 25.9644 51.31 30.097V30.097ZM46.6484 29.6011C46.6484 27.2868 45.9871 25.4354 44.6647 24.0469C43.3423 22.6583 41.4578 21.964 39.0113 21.964C36.5317 21.964 34.6307 22.8071 33.3083 24.4932C32.2173 25.8817 31.6718 27.5844 31.6718 29.6011C31.6718 31.7831 32.1677 33.6345 33.1595 35.1553C34.4489 37.1059 36.3995 38.0812 39.0113 38.0812C41.3586 38.0812 43.1604 37.5026 44.4168 36.3455C45.9045 34.957 46.6484 32.7088 46.6484 29.6011V29.6011Z" fill="white"/>
<path d="M78.6381 29.6024C78.6381 33.14 77.5967 36.132 75.5138 38.5785C73.2326 41.2895 70.1745 42.645 66.3394 42.645C62.5044 42.645 59.5124 41.3391 57.3634 38.7273C55.4128 36.3469 54.4375 33.3053 54.4375 29.6024V8.12939H58.9999V30.0984C58.9999 32.6441 59.6446 34.6773 60.934 36.1981C62.2234 37.7189 64.0252 38.4793 66.3394 38.4793C68.7859 38.4793 70.72 37.5867 72.1416 35.8014C73.3649 34.2475 73.9765 32.4622 73.9765 30.4455C73.9765 27.7676 73.1996 25.7013 71.6457 24.2466C70.3233 22.9903 68.6868 22.3621 66.7362 22.3621C65.546 22.3621 64.4054 22.577 63.3144 23.0068C62.0911 23.6019 61.1654 24.0152 60.5372 24.2466V20.0809C61.496 19.5189 62.4713 19.0726 63.4631 18.7419C64.488 18.4113 65.5129 18.246 66.5378 18.246C69.7116 18.246 72.4722 19.2544 74.8196 21.2711C77.3652 23.4531 78.6381 26.2302 78.6381 29.6024V29.6024Z" fill="white"/>
<path d="M97.4648 41.8959H92.5057C88.6706 41.8959 85.7447 40.5238 83.728 37.7798C82.1411 35.6308 81.3477 33.1843 81.3477 30.4403C81.3477 27.8284 82.2568 25.3819 84.0752 23.1007C86.2903 20.3236 89.2327 18.9351 92.9024 18.9351H97.4648V23.1007H94.043C92.1916 23.1007 90.5551 23.5966 89.1335 24.5885C87.249 25.9109 86.3068 27.8615 86.3068 30.4403C86.3068 32.2586 86.8854 33.8455 88.0425 35.201C89.4641 36.8541 91.4643 37.6806 94.043 37.6806H97.4648V41.8959Z" fill="white"/>
<path d="M125.025 41.9003H120.363V28.461C120.363 26.7088 119.818 25.3037 118.727 24.2457C117.404 22.9894 115.404 22.3613 112.726 22.3613C111.007 22.3613 109.437 22.8737 108.015 23.8986C106.031 25.3202 105.039 27.3865 105.039 30.0975C105.039 32.7093 105.899 34.7426 107.618 36.1973C109.106 37.4536 110.941 38.0817 113.123 38.0817C114.181 38.0817 115.123 37.8503 115.95 37.3875C116.809 36.8915 117.768 36.1146 118.826 35.0567V40.3629C117.999 40.9911 117.123 41.4705 116.198 41.8011C115.272 42.1317 113.999 42.297 112.379 42.297C109.271 42.297 106.61 41.2225 104.395 39.0736C102.014 36.7593 100.824 33.7673 100.824 30.0975C100.824 26.6592 101.866 23.849 103.948 21.667C106.197 19.3197 109.255 18.146 113.123 18.146C116.76 18.146 119.702 19.1709 121.95 21.2207C124 23.1051 125.025 25.3863 125.025 28.0643V41.9003Z" fill="white"/>
<path d="M140.629 21.964H139.488C137.406 22.2285 135.852 23.1046 134.827 24.5924C133.802 26.0801 133.289 28.2952 133.289 31.2376V41.8997H129.074V18.5422H133.289V20.8234C133.785 20.063 134.447 19.4183 135.273 18.8894C136.397 18.162 137.637 17.7983 138.993 17.7983H140.629V21.964Z" fill="white"/>
<path d="M166.414 31.5853C166.414 34.1309 165.522 36.4783 163.736 38.6272C161.521 41.3052 158.43 42.6441 154.463 42.6441C150.991 42.6441 148.065 41.5366 145.685 39.3215C143.338 37.0734 142.164 34.2467 142.164 30.8414C142.164 26.7749 143.536 23.5515 146.28 21.1711C148.627 19.1544 151.355 18.146 154.463 18.146C156.975 18.146 159.273 18.8899 161.356 20.3776C163.174 21.667 164.728 23.4688 166.017 25.7831L149.801 34.6599L147.917 31.2381L159.422 24.6425C158.43 23.6506 157.752 23.0721 157.389 22.9068C156.595 22.5431 155.62 22.3613 154.463 22.3613C152.049 22.3613 150.132 23.2374 148.71 24.9896C147.421 26.5765 146.776 28.5271 146.776 30.8414C146.776 32.8912 147.421 34.6434 148.71 36.0981C150.132 37.685 152.049 38.4785 154.463 38.4785C156.942 38.4785 158.744 37.8503 159.868 36.594C160.695 35.6683 161.439 33.883 162.1 31.2381L166.414 31.5853Z" fill="white"/>
<path d="M188.286 35.8008C188.286 38.2473 187.376 39.9665 185.558 40.9583C184.302 41.6526 182.599 41.9997 180.45 41.9997L178.665 41.9005H169.094V37.6853H179.012L180.549 37.7844C181.541 37.7844 182.252 37.6853 182.682 37.4869C183.343 37.1893 183.674 36.6273 183.674 35.8008C183.674 34.6106 182.55 33.6187 180.301 32.8253C179.607 32.5939 178.152 32.1806 175.937 31.5855C173.722 30.9904 172.069 30.1804 170.978 29.1555C169.722 27.9984 169.094 26.4941 169.094 24.6427C169.094 22.1962 170.003 20.5101 171.821 19.5844C173.177 18.8901 175.326 18.543 178.268 18.543H187.145V22.3615H177.871C176.549 22.3615 175.524 22.4938 174.797 22.7582C174.069 23.0227 173.706 23.5187 173.706 24.246C173.706 25.5354 174.929 26.5272 177.375 27.2215C178.467 27.519 179.558 27.8 180.649 28.0645C183.558 29.0894 185.558 30.1474 186.649 31.2384C187.74 32.3294 188.286 33.8502 188.286 35.8008V35.8008Z" fill="white"/>
<path d="M0.599862 65.6348V64.0408H4.69606C6.01576 64.0408 6.68418 63.5095 6.68418 62.5326C6.68418 61.6585 6.08432 61.1786 4.83318 60.5445L2.82792 59.5162C1.37111 58.7792 0.651279 57.8194 0.651279 56.5511C0.651279 54.8201 1.97098 53.6547 4.31901 53.6547H7.78107V55.2314H3.7877C2.8622 55.2314 2.29662 55.7456 2.29662 56.4997C2.29662 57.3909 3.01645 57.7851 4.35329 58.4707L6.10146 59.3619C7.62682 60.1332 8.34666 61.1101 8.34666 62.4469C8.34666 64.4179 6.97554 65.6348 4.38756 65.6348H0.599862ZM9.72446 65.6348V60.8873C9.72446 58.5735 11.0613 57.271 12.9637 57.271C13.9921 57.271 14.8661 57.7166 15.4831 58.5393C16.1344 57.6994 16.9914 57.271 18.0026 57.271C19.905 57.271 21.2418 58.5907 21.2418 60.8873V65.6348H19.785V60.6131C19.785 59.4476 19.048 58.6935 18.0026 58.6935C16.9571 58.6935 16.2201 59.4476 16.2201 60.6131V65.6348H14.7633V60.6131C14.7633 59.4476 14.0092 58.6935 12.9637 58.6935C11.9182 58.6935 11.1813 59.4476 11.1813 60.6131V65.6348H9.72446ZM29.2687 65.6348V61.5386C29.2687 59.7904 28.1718 58.6592 26.6465 58.6592C25.1211 58.6592 24.0071 59.8075 24.0071 61.4871C24.0071 63.201 25.1554 64.3836 26.715 64.3836C27.4177 64.3836 28.0861 64.1437 28.7717 63.6295V65.2063C28.1033 65.5833 27.3663 65.7719 26.5436 65.7719C25.7552 65.7719 24.9497 65.5148 24.3327 65.0863C23.1501 64.2637 22.516 62.9954 22.516 61.5214C22.516 59.0363 24.2642 57.271 26.6293 57.271C28.2061 57.271 29.5944 58.1108 30.2971 59.499C30.7255 60.3388 30.7427 61.1958 30.7427 62.1898V65.6348H29.2687ZM32.4313 65.6348V57.4252H33.7852V58.6421C34.3165 57.6309 35.1906 57.271 36.6132 57.271C36.7331 57.271 36.8531 57.271 36.9902 57.271V58.6935C36.9217 58.6935 36.836 58.6935 36.7674 58.6935C34.7279 58.6935 33.9052 59.619 33.9052 61.7614V65.6348H32.4313ZM37.7309 55.2486H39.2049V57.4252H41.69V58.8135H39.2049V62.327C39.2049 63.6467 39.8219 64.2294 41.2273 64.2294H41.69V65.6348H41.2101C38.8964 65.6348 37.7309 64.6236 37.7309 62.584V55.2486ZM54.5766 55.0772C54.3881 55.0601 54.2167 55.0601 54.0453 55.0601C51.0803 55.0601 49.3493 56.2941 48.8522 58.7449H54.5766V60.1674H48.7665C49.1607 62.824 50.926 64.1951 53.9768 64.1951C54.1653 64.1951 54.371 64.1951 54.5766 64.178V65.6348C54.4224 65.6348 54.2681 65.6348 54.1139 65.6348C52.3486 65.6348 50.9946 65.3605 50.0691 64.795C48.1495 63.6295 47.1212 61.8299 47.1212 59.6361C47.1212 57.4424 48.1495 55.6599 50.0691 54.4945C50.9946 53.9289 52.3486 53.6547 54.1139 53.6547C54.2681 53.6547 54.4224 53.6547 54.5766 53.6547V55.0772ZM55.9788 65.6348V61.1615C55.9788 58.6764 57.4356 57.271 59.4751 57.271C61.5147 57.271 62.9543 58.6764 62.9543 61.1615V65.6348H61.4975V60.8873C61.4975 59.5676 60.6406 58.6935 59.4751 58.6935C58.3097 58.6935 57.4356 59.5676 57.4356 60.8873V65.6348H55.9788ZM72.4445 65.1549C72.4445 67.8628 70.8163 69.4567 68.2454 69.4567C67.4399 69.4567 66.6001 69.3025 65.6575 68.994L65.9831 67.5886C66.8743 67.88 67.6284 68.0514 68.2797 68.0514C69.9251 68.0514 70.9705 67.0402 70.9705 65.292V61.5386C70.9705 59.7904 69.8736 58.6592 68.3483 58.6592C66.8229 58.6592 65.7089 59.8075 65.7089 61.4871C65.7089 63.201 66.8572 64.3836 68.4168 64.3836C69.1195 64.3836 69.7879 64.1437 70.4735 63.6295V65.2063C69.8051 65.5833 69.0681 65.7719 68.2454 65.7719C67.4571 65.7719 66.6515 65.5148 66.0345 65.0863C64.8519 64.2637 64.2178 62.9954 64.2178 61.5214C64.2178 59.0363 65.966 57.271 68.3311 57.271C69.9079 57.271 71.2962 58.1108 71.9989 59.499C72.4273 60.3388 72.4445 61.1958 72.4445 62.1898V65.1549ZM73.996 55.0943C73.996 54.5973 74.3901 54.2031 74.8872 54.2031C75.4013 54.2031 75.7784 54.5973 75.7784 55.0943C75.7784 55.6085 75.3842 56.0027 74.8872 56.0027C74.3901 56.0027 73.996 55.5914 73.996 55.0943ZM74.1502 65.6348V57.4252H75.6242V65.6348H74.1502ZM77.3569 65.6348V61.1615C77.3569 58.6764 78.8137 57.271 80.8533 57.271C82.8928 57.271 84.3325 58.6764 84.3325 61.1615V65.6348H82.8757V60.8873C82.8757 59.5676 82.0187 58.6935 80.8533 58.6935C79.6878 58.6935 78.8137 59.5676 78.8137 60.8873V65.6348H77.3569ZM93.8569 62.0013C93.4456 64.3836 91.8174 65.8062 89.7264 65.8062C88.9894 65.8062 88.2696 65.6005 87.6526 65.2234C86.3329 64.4179 85.5788 63.0639 85.5788 61.5214C85.5788 60.3731 86.0073 59.3276 86.7957 58.505C87.584 57.6994 88.6124 57.2538 89.7435 57.2538C91.3889 57.2538 92.7429 58.1451 93.5655 59.8247L88.1839 62.8068L87.5669 61.6928L91.5603 59.4648C91.0632 58.9163 90.4462 58.6421 89.7264 58.6421C88.2696 58.6421 87.1042 59.8589 87.1042 61.5043C87.1042 63.1325 88.2867 64.3665 89.7264 64.3665C91.0975 64.3665 92.1259 63.4067 92.3658 61.7785L93.8569 62.0013ZM102.975 62.0013C102.563 64.3836 100.935 65.8062 98.8442 65.8062C98.1072 65.8062 97.3874 65.6005 96.7704 65.2234C95.4507 64.4179 94.6966 63.0639 94.6966 61.5214C94.6966 60.3731 95.125 59.3276 95.9134 58.505C96.7018 57.6994 97.7301 57.2538 98.8613 57.2538C100.507 57.2538 101.861 58.1451 102.683 59.8247L97.3017 62.8068L96.6847 61.6928L100.678 59.4648C100.181 58.9163 99.564 58.6421 98.8442 58.6421C97.3874 58.6421 96.2219 59.8589 96.2219 61.5043C96.2219 63.1325 97.4045 64.3665 98.8442 64.3665C100.215 64.3665 101.244 63.4067 101.484 61.7785L102.975 62.0013ZM104.294 65.6348V57.4252H105.648V58.6421C106.18 57.6309 107.054 57.271 108.476 57.271C108.596 57.271 108.716 57.271 108.853 57.271V58.6935C108.785 58.6935 108.699 58.6935 108.63 58.6935C106.591 58.6935 105.768 59.619 105.768 61.7614V65.6348H104.294ZM109.542 55.0943C109.542 54.5973 109.937 54.2031 110.434 54.2031C110.948 54.2031 111.325 54.5973 111.325 55.0943C111.325 55.6085 110.931 56.0027 110.434 56.0027C109.937 56.0027 109.542 55.5914 109.542 55.0943ZM109.697 65.6348V57.4252H111.171V65.6348H109.697ZM112.903 65.6348V61.1615C112.903 58.6764 114.36 57.271 116.4 57.271C118.439 57.271 119.879 58.6764 119.879 61.1615V65.6348H118.422V60.8873C118.422 59.5676 117.565 58.6935 116.4 58.6935C115.234 58.6935 114.36 59.5676 114.36 60.8873V65.6348H112.903ZM129.369 65.1549C129.369 67.8628 127.741 69.4567 125.17 69.4567C124.365 69.4567 123.525 69.3025 122.582 68.994L122.908 67.5886C123.799 67.88 124.553 68.0514 125.204 68.0514C126.85 68.0514 127.895 67.0402 127.895 65.292V61.5386C127.895 59.7904 126.798 58.6592 125.273 58.6592C123.748 58.6592 122.634 59.8075 122.634 61.4871C122.634 63.201 123.782 64.3836 125.341 64.3836C126.044 64.3836 126.713 64.1437 127.398 63.6295V65.2063C126.73 65.5833 125.993 65.7719 125.17 65.7719C124.382 65.7719 123.576 65.5148 122.959 65.0863C121.777 64.2637 121.142 62.9954 121.142 61.5214C121.142 59.0363 122.891 57.271 125.256 57.271C126.833 57.271 128.221 58.1108 128.924 59.499C129.352 60.3388 129.369 61.1958 129.369 62.1898V65.1549ZM131.041 67.3487L131.76 64.0237H133.251L132.36 67.3487H131.041ZM146.002 58.7963H151.743C151.743 58.9334 151.743 59.0706 151.743 59.2077C151.743 60.5102 151.52 61.6071 151.04 62.5669C149.995 64.6064 148.024 65.8404 145.693 65.8404C144.065 65.8404 142.557 65.1892 141.408 64.0237C140.243 62.8411 139.609 61.2986 139.609 59.6361C139.609 57.9737 140.243 56.4312 141.408 55.2486C142.557 54.0831 144.099 53.449 145.864 53.449C147.681 53.449 149.189 54.1517 150.629 55.6085L149.566 56.6882C148.384 55.4885 147.201 54.9058 145.813 54.9058C144.922 54.9058 144.099 55.1286 143.414 55.5742C142.042 56.4483 141.237 57.9223 141.237 59.619C141.237 60.8873 141.7 62.0527 142.557 62.9611C143.379 63.8352 144.51 64.3322 145.693 64.3322C147.972 64.3322 149.721 62.7726 150.046 60.3046H146.002V58.7963ZM160.937 62.0013C160.526 64.3836 158.897 65.8062 156.807 65.8062C156.07 65.8062 155.35 65.6005 154.733 65.2234C153.413 64.4179 152.659 63.0639 152.659 61.5214C152.659 60.3731 153.087 59.3276 153.876 58.505C154.664 57.6994 155.693 57.2538 156.824 57.2538C158.469 57.2538 159.823 58.1451 160.646 59.8247L155.264 62.8068L154.647 61.6928L158.64 59.4648C158.143 58.9163 157.526 58.6421 156.807 58.6421C155.35 58.6421 154.184 59.8589 154.184 61.5043C154.184 63.1325 155.367 64.3665 156.807 64.3665C158.178 64.3665 159.206 63.4067 159.446 61.7785L160.937 62.0013ZM162.154 65.6348V61.1615C162.154 58.6764 163.611 57.271 165.65 57.271C167.69 57.271 169.129 58.6764 169.129 61.1615V65.6348H167.672V60.8873C167.672 59.5676 166.816 58.6935 165.65 58.6935C164.485 58.6935 163.611 59.5676 163.611 60.8873V65.6348H162.154ZM177.728 57.4252V61.8985C177.728 64.3836 176.271 65.789 174.232 65.789C172.192 65.789 170.753 64.3836 170.753 61.8985V57.4252H172.209V62.1727C172.209 63.4924 173.084 64.3665 174.249 64.3665C175.414 64.3665 176.271 63.4924 176.271 62.1727V57.4252H177.728ZM179.317 55.0943C179.317 54.5973 179.711 54.2031 180.209 54.2031C180.723 54.2031 181.1 54.5973 181.1 55.0943C181.1 55.6085 180.706 56.0027 180.209 56.0027C179.711 56.0027 179.317 55.5914 179.317 55.0943ZM179.472 65.6348V57.4252H180.946V65.6348H179.472ZM182.678 65.6348V61.1615C182.678 58.6764 184.135 57.271 186.175 57.271C188.214 57.271 189.654 58.6764 189.654 61.1615V65.6348H188.197V60.8873C188.197 59.5676 187.34 58.6935 186.175 58.6935C185.009 58.6935 184.135 59.5676 184.135 60.8873V65.6348H182.678ZM199.178 62.0013C198.767 64.3836 197.139 65.8062 195.048 65.8062C194.311 65.8062 193.591 65.6005 192.974 65.2234C191.654 64.4179 190.9 63.0639 190.9 61.5214C190.9 60.3731 191.329 59.3276 192.117 58.505C192.905 57.6994 193.934 57.2538 195.065 57.2538C196.71 57.2538 198.064 58.1451 198.887 59.8247L193.505 62.8068L192.888 61.6928L196.882 59.4648C196.385 58.9163 195.768 58.6421 195.048 58.6421C193.591 58.6421 192.426 59.8589 192.426 61.5043C192.426 63.1325 193.608 64.3665 195.048 64.3665C196.419 64.3665 197.447 63.4067 197.687 61.7785L199.178 62.0013ZM212.023 55.0772C211.817 55.0601 211.629 55.0601 211.44 55.0601C208.133 55.0601 206.196 56.8768 206.196 59.6361C206.196 62.3955 208.133 64.2122 211.44 64.2122C211.629 64.2122 211.817 64.2122 212.023 64.1951V65.6348C211.869 65.6348 211.715 65.6348 211.56 65.6348C209.795 65.6348 208.441 65.3605 207.516 64.795C205.596 63.6295 204.568 61.8299 204.568 59.6361C204.568 57.4424 205.596 55.6599 207.516 54.4945C208.441 53.9289 209.795 53.6547 211.56 53.6547C211.715 53.6547 211.869 53.6547 212.023 53.6547V55.0772ZM219.651 65.6348V61.5386C219.651 59.7904 218.554 58.6592 217.028 58.6592C215.503 58.6592 214.389 59.8075 214.389 61.4871C214.389 63.201 215.537 64.3836 217.097 64.3836C217.8 64.3836 218.468 64.1437 219.154 63.6295V65.2063C218.485 65.5833 217.748 65.7719 216.926 65.7719C216.137 65.7719 215.332 65.5148 214.715 65.0863C213.532 64.2637 212.898 62.9954 212.898 61.5214C212.898 59.0363 214.646 57.271 217.011 57.271C218.588 57.271 219.976 58.1108 220.679 59.499C221.107 60.3388 221.125 61.1958 221.125 62.1898V65.6348H219.651ZM222.813 65.6348V57.4252H224.167V58.6421C224.698 57.6309 225.573 57.271 226.995 57.271C227.115 57.271 227.235 57.271 227.372 57.271V58.6935C227.304 58.6935 227.218 58.6935 227.149 58.6935C225.11 58.6935 224.287 59.619 224.287 61.7614V65.6348H222.813ZM235.997 62.0013C235.585 64.3836 233.957 65.8062 231.866 65.8062C231.129 65.8062 230.41 65.6005 229.793 65.2234C228.473 64.4179 227.719 63.0639 227.719 61.5214C227.719 60.3731 228.147 59.3276 228.936 58.505C229.724 57.6994 230.752 57.2538 231.883 57.2538C233.529 57.2538 234.883 58.1451 235.705 59.8247L230.324 62.8068L229.707 61.6928L233.7 59.4648C233.203 58.9163 232.586 58.6421 231.866 58.6421C230.41 58.6421 229.244 59.8589 229.244 61.5043C229.244 63.1325 230.427 64.3665 231.866 64.3665C233.237 64.3665 234.266 63.4067 234.506 61.7785L235.997 62.0013Z" fill="white"/>
<defs>
<linearGradient id="paint0_linear_80_196" x1="214.488" y1="27.43" x2="213.495" y2="64.9674" gradientUnits="userSpaceOnUse">
<stop stop-color="#F5E2BF"/>
<stop offset="1" stop-color="#F09D68"/>
</linearGradient>
<radialGradient id="paint1_radial_80_196" cx="0" cy="0" r="1" gradientUnits="userSpaceOnUse" gradientTransform="translate(207.706 25.6385) rotate(0.429716) scale(27.7126 27.7126)">
<stop stop-color="#E9D1A7"/>
<stop offset="0.2929" stop-color="#E9CEA4"/>
<stop offset="0.5248" stop-color="#EAC69A"/>
<stop offset="0.7356" stop-color="#ECB889"/>
<stop offset="0.9329" stop-color="#EFA572"/>
<stop offset="1" stop-color="#F09D68"/>
</radialGradient>
<linearGradient id="paint2_linear_80_196" x1="222.138" y1="32.5258" x2="228.795" y2="35.3156" gradientUnits="userSpaceOnUse">
<stop stop-color="#F0C49A"/>
<stop offset="1" stop-color="#CA9C6A"/>
</linearGradient>
<linearGradient id="paint3_linear_80_196" x1="200.518" y1="24.609" x2="207.088" y2="24.3746" gradientUnits="userSpaceOnUse">
<stop stop-color="#6E6C6C"/>
<stop offset="1" stop-color="#231F20"/>
</linearGradient>
<linearGradient id="paint4_linear_80_196" x1="206.339" y1="25.6941" x2="209.061" y2="25.597" gradientUnits="userSpaceOnUse">
<stop stop-color="#4D4D4F"/>
<stop offset="0.522" stop-color="#171600"/>
</linearGradient>
<linearGradient id="paint5_linear_80_196" x1="213.353" y1="28.0139" x2="220.075" y2="27.774" gradientUnits="userSpaceOnUse">
<stop stop-color="#6E6C6C"/>
<stop offset="1" stop-color="#231F20"/>
</linearGradient>
<linearGradient id="paint6_linear_80_196" x1="216.648" y1="28.2868" x2="219.369" y2="28.1896" gradientUnits="userSpaceOnUse">
<stop stop-color="#4D4D4F"/>
<stop offset="0.6044" stop-color="#171600"/>
</linearGradient>
<linearGradient id="paint7_linear_80_196" x1="224.401" y1="29.6896" x2="227.627" y2="29.5745" gradientUnits="userSpaceOnUse">
<stop stop-color="#3A3A3A"/>
<stop offset="1" stop-color="#231F20"/>
</linearGradient>
<linearGradient id="paint8_linear_80_196" x1="192.404" y1="16.8821" x2="237.036" y2="15.2894" gradientUnits="userSpaceOnUse">
<stop stop-color="#0085A8"/>
<stop offset="1" stop-color="#006280"/>
</linearGradient>
<linearGradient id="paint9_linear_80_196" x1="204.263" y1="13.0303" x2="210.312" y2="12.8145" gradientUnits="userSpaceOnUse">
<stop stop-color="#0085A8"/>
<stop offset="1" stop-color="#006280"/>
</linearGradient>
<linearGradient id="paint10_linear_80_196" x1="215.091" y1="12.2383" x2="219.661" y2="12.0752" gradientUnits="userSpaceOnUse">
<stop stop-color="#0085A8"/>
<stop offset="1" stop-color="#006280"/>
</linearGradient>
<linearGradient id="paint11_linear_80_196" x1="217.394" y1="15.4612" x2="219.641" y2="15.381" gradientUnits="userSpaceOnUse">
<stop stop-color="#0085A8"/>
<stop offset="1" stop-color="#006280"/>
</linearGradient>
</defs>
</svg>
