<svg width="26" height="20" viewBox="0 0 26 20" fill="none" xmlns="http://www.w3.org/2000/svg">
<path d="M2.41033 20C1.73678 20 1.16667 19.7667 0.7 19.3C0.233333 18.8333 0 18.2632 0 17.5897V2.41033C0 1.73678 0.233333 1.16667 0.7 0.7C1.16667 0.233333 1.73678 0 2.41033 0H22.923C23.5966 0 24.1667 0.233333 24.6333 0.7C25.1 1.16667 25.3333 1.73678 25.3333 2.41033V17.5897C25.3333 18.2632 25.1 18.8333 24.6333 19.3C24.1667 19.7667 23.5966 20 22.923 20H2.41033ZM23.3333 3.923L13.3153 10.336C13.2129 10.394 13.1069 10.4397 12.9973 10.473C12.888 10.5063 12.7778 10.523 12.6667 10.523C12.5556 10.523 12.4453 10.5063 12.336 10.473C12.2264 10.4397 12.1204 10.394 12.018 10.336L2 3.923V17.5897C2 17.7094 2.03844 17.8078 2.11533 17.8847C2.19222 17.9616 2.29056 18 2.41033 18H22.923C23.0428 18 23.1411 17.9616 23.218 17.8847C23.2949 17.8078 23.3333 17.7094 23.3333 17.5897V3.923ZM12.6667 8.66667L23.1283 2H2.205L12.6667 8.66667ZM2 4.23067V2.70633V2.746V2.70367V4.23067Z" fill="#E8EAED"/>
</svg>
