<svg width="20" height="20" viewBox="0 0 20 20" fill="none" xmlns="http://www.w3.org/2000/svg">
<path d="M17.3333 9.75C17.3333 7.6375 16.5976 5.84549 15.126 4.37396C13.6545 2.90243 11.8625 2.16667 9.75 2.16667V0C11.1042 0 12.3726 0.257292 13.5552 0.771875C14.7378 1.28646 15.767 1.9816 16.6427 2.85729C17.5184 3.73299 18.2135 4.76215 18.7281 5.94479C19.2427 7.12743 19.5 8.39583 19.5 9.75H17.3333ZM13 9.75C13 8.84722 12.684 8.07986 12.0521 7.44792C11.4201 6.81597 10.6528 6.5 9.75 6.5V4.33333C11.2486 4.33333 12.526 4.86146 13.5823 5.91771C14.6385 6.97396 15.1667 8.25139 15.1667 9.75H13ZM18.3625 19.5542C16.1056 19.5542 13.8757 19.0622 11.6729 18.0781C9.47014 17.0941 7.46597 15.6993 5.66042 13.8938C3.85486 12.0882 2.46007 10.084 1.47604 7.88125C0.492014 5.67847 0 3.44861 0 1.19167C0 0.866667 0.108333 0.595833 0.325 0.379167C0.541667 0.1625 0.8125 0.0541667 1.1375 0.0541667H5.525C5.77778 0.0541667 6.00347 0.139931 6.20208 0.311458C6.40069 0.482986 6.51806 0.686111 6.55417 0.920833L7.25833 4.7125C7.29445 5.00139 7.28542 5.24514 7.23125 5.44375C7.17708 5.64236 7.07778 5.81389 6.93333 5.95833L4.30625 8.6125C4.66736 9.28056 5.09618 9.92604 5.59271 10.549C6.08924 11.1719 6.63542 11.7722 7.23125 12.35C7.79097 12.9097 8.37778 13.4288 8.99167 13.9073C9.60556 14.3858 10.2556 14.8236 10.9417 15.2208L13.4875 12.675C13.65 12.5125 13.8622 12.3906 14.124 12.3094C14.3858 12.2281 14.6431 12.2056 14.8958 12.2417L18.6333 13C18.8861 13.0722 19.0938 13.2031 19.2563 13.3927C19.4188 13.5823 19.5 13.7944 19.5 14.0292V18.4167C19.5 18.7417 19.3917 19.0125 19.175 19.2292C18.9583 19.4458 18.6875 19.5542 18.3625 19.5542Z" fill="white"/>
</svg>
