<svg preserveAspectRatio="none" width="100%" height="100%" overflow="visible" style="display: block;" viewBox="0 0 33 33" fill="none" xmlns="http://www.w3.org/2000/svg">
<path id="Vector" d="M31.7464 15.4146L24.1714 12.1086C22.3411 11.3085 20.8798 9.84718 20.0796 8.01693L16.7736 0.441991C16.5149 -0.14733 15.686 -0.14733 15.4273 0.441991L12.1213 8.01693C11.3212 9.84718 9.85983 11.3085 8.02957 12.1086L0.4402 15.4194C-0.144335 15.6733 -0.149126 16.507 0.4402 16.7657L8.15893 20.1771C9.98441 20.9868 11.441 22.4529 12.2315 24.2879L15.4321 31.7191C15.686 32.3085 16.5245 32.3133 16.7784 31.7191L20.0796 24.1538C20.8798 22.3235 22.3411 20.8622 24.1714 20.0621L31.7464 16.7561C32.3357 16.4974 32.3357 15.6685 31.7464 15.4098V15.4146Z" fill="var(--fill-0, white)"/>
</svg>
