<svg preserveAspectRatio="none" width="100%" height="100%" overflow="visible" style="display: block;" viewBox="0 0 14 14" fill="none" xmlns="http://www.w3.org/2000/svg">
<path id="Vector" d="M13.8044 6.71123L10.5086 5.27098C9.71166 4.92446 9.07701 4.28555 8.73085 3.49143L7.29208 0.192213C7.1803 -0.0640712 6.81971 -0.0640712 6.70792 0.192213L5.26916 3.49143C4.92299 4.28916 4.28474 4.92446 3.49144 5.27098L0.192015 6.71123C-0.0640052 6.82313 -0.0640052 7.18409 0.192015 7.29599L3.54913 8.78316C4.34243 9.1333 4.97708 9.77582 5.31964 10.5735L6.71153 13.8078C6.82331 14.0641 7.18751 14.0641 7.29929 13.8078L8.73445 10.5158C9.08062 9.71806 9.71887 9.08276 10.5122 8.73624L13.808 7.29599C14.064 7.18409 14.064 6.82313 13.808 6.71123H13.8044Z" fill="var(--fill-0, white)"/>
</svg>
