<svg xmlns="http://www.w3.org/2000/svg" width="18" height="18" viewBox="0 0 18 18" fill="none">
  <path d="M10.7917 15.3333L15.75 13.7917C15.6806 13.6667 15.5799 13.559 15.4479 13.4688C15.316 13.3785 15.1667 13.3333 15 13.3333H10.7917C10.4167 13.3333 10.1181 13.3194 9.89583 13.2917C9.67361 13.2639 9.44444 13.2083 9.20833 13.125L8.02083 12.7292C7.79861 12.6597 7.63889 12.5208 7.54167 12.3125C7.44444 12.1042 7.43056 11.8889 7.5 11.6667C7.56944 11.4444 7.70486 11.2812 7.90625 11.1771C8.10764 11.0729 8.31944 11.0556 8.54167 11.125L9.41667 11.4167C9.65278 11.4861 9.92014 11.5417 10.2188 11.5833C10.5174 11.625 10.9236 11.6528 11.4375 11.6667H11.6667C11.6667 11.5139 11.6215 11.3681 11.5312 11.2292C11.441 11.0903 11.3333 11 11.2083 10.9583L6.33333 9.16667H5V13.75L10.7917 15.3333ZM10.3542 16.9583L5 15.4583C4.88889 15.8194 4.67014 16.1111 4.34375 16.3333C4.01736 16.5556 3.68056 16.6667 3.33333 16.6667H1.66667C1.20833 16.6667 0.815972 16.5035 0.489583 16.1771C0.163194 15.8507 0 15.4583 0 15V9.16667C0 8.70833 0.163194 8.31597 0.489583 7.98958C0.815972 7.66319 1.20833 7.5 1.66667 7.5H6.33333C6.43056 7.5 6.52778 7.51042 6.625 7.53125C6.72222 7.55208 6.8125 7.57639 6.89583 7.60417L11.7917 9.41667C12.25 9.58333 12.6215 9.875 12.9062 10.2917C13.191 10.7083 13.3333 11.1667 13.3333 11.6667H15C15.6944 11.6667 16.2847 11.8958 16.7708 12.3542C17.2569 12.8125 17.5 13.4167 17.5 14.1667C17.5 14.4722 17.4201 14.7118 17.2604 14.8854C17.1007 15.059 16.8542 15.2014 16.5208 15.3125L11.3125 16.9375C11.1597 16.9931 11 17.0208 10.8333 17.0208C10.6667 17.0208 10.5069 17 10.3542 16.9583ZM1.66667 15H3.33333V9.16667H1.66667V15ZM12.5 8.5C12.2917 8.5 12.0868 8.46181 11.8854 8.38542C11.684 8.30903 11.5 8.19444 11.3333 8.04167L9.04167 5.79167C8.61111 5.375 8.24653 4.91319 7.94792 4.40625C7.64931 3.89931 7.5 3.34722 7.5 2.75C7.5 1.98611 7.76736 1.33681 8.30208 0.802083C8.83681 0.267361 9.48611 0 10.25 0C10.6944 0 11.1111 0.09375 11.5 0.28125C11.8889 0.46875 12.2222 0.722222 12.5 1.04167C12.7778 0.722222 13.1111 0.46875 13.5 0.28125C13.8889 0.09375 14.3056 0 14.75 0C15.5139 0 16.1632 0.267361 16.6979 0.802083C17.2326 1.33681 17.5 1.98611 17.5 2.75C17.5 3.34722 17.3542 3.89931 17.0625 4.40625C16.7708 4.91319 16.4097 5.375 15.9792 5.79167L13.6667 8.04167C13.5 8.19444 13.316 8.30903 13.1146 8.38542C12.9132 8.46181 12.7083 8.5 12.5 8.5ZM12.5 6.83333L14.7708 4.60417C15.0347 4.34028 15.2778 4.05903 15.5 3.76042C15.7222 3.46181 15.8333 3.125 15.8333 2.75C15.8333 2.44444 15.7292 2.1875 15.5208 1.97917C15.3125 1.77083 15.0556 1.66667 14.75 1.66667C14.5556 1.66667 14.3715 1.70486 14.1979 1.78125C14.0243 1.85764 13.875 1.97222 13.75 2.125L13.1458 2.85417C12.9792 3.04861 12.7639 3.14583 12.5 3.14583C12.2361 3.14583 12.0208 3.04861 11.8542 2.85417L11.25 2.125C11.125 1.97222 10.9757 1.85764 10.8021 1.78125C10.6285 1.70486 10.4444 1.66667 10.25 1.66667C9.94444 1.66667 9.6875 1.77083 9.47917 1.97917C9.27083 2.1875 9.16667 2.44444 9.16667 2.75C9.16667 3.125 9.27778 3.46181 9.5 3.76042C9.72222 4.05903 9.96528 4.34028 10.2292 4.60417L12.5 6.83333Z" fill="#C2C2C2"/>
</svg>