<svg xmlns="http://www.w3.org/2000/svg" width="13" height="19" viewBox="0 0 13 19" fill="none">
  <path d="M1.66667 18.3333C1.20833 18.3333 0.815972 18.1701 0.489583 17.8438C0.163194 17.5174 0 17.125 0 16.6667V1.66667C0 1.20833 0.163194 0.815972 0.489583 0.489583C0.815972 0.163194 1.20833 0 1.66667 0H10C10.4583 0 10.8507 0.163194 11.1771 0.489583C11.5035 0.815972 11.6667 1.20833 11.6667 1.66667V4.25C11.9167 4.34722 12.1181 4.5 12.2708 4.70833C12.4236 4.91667 12.5 5.15278 12.5 5.41667V7.08333C12.5 7.34722 12.4236 7.58333 12.2708 7.79167C12.1181 8 11.9167 8.15278 11.6667 8.25V16.6667C11.6667 17.125 11.5035 17.5174 11.1771 17.8438C10.8507 18.1701 10.4583 18.3333 10 18.3333H1.66667ZM1.66667 16.6667H10V1.66667H1.66667V16.6667ZM5.83333 15.8333C6.06944 15.8333 6.26736 15.7535 6.42708 15.5938C6.58681 15.434 6.66667 15.2361 6.66667 15C6.66667 14.7639 6.58681 14.566 6.42708 14.4062C6.26736 14.2465 6.06944 14.1667 5.83333 14.1667C5.59722 14.1667 5.39931 14.2465 5.23958 14.4062C5.07986 14.566 5 14.7639 5 15C5 15.2361 5.07986 15.434 5.23958 15.5938C5.39931 15.7535 5.59722 15.8333 5.83333 15.8333Z" fill="#C2C2C2"/>
</svg>