<svg xmlns="http://www.w3.org/2000/svg" width="15" height="15" viewBox="0 0 15 15" fill="none">
  <path d="M4.85417 7.5L6.08333 6.27083C6.25 6.10417 6.33333 5.90972 6.33333 5.6875C6.33333 5.46528 6.25 5.27083 6.08333 5.10417C5.91667 4.9375 5.71875 4.85417 5.48958 4.85417C5.26042 4.85417 5.0625 4.9375 4.89583 5.10417L3.08333 6.91667C3 7 2.94097 7.09028 2.90625 7.1875C2.87153 7.28472 2.85417 7.38889 2.85417 7.5C2.85417 7.61111 2.87153 7.71528 2.90625 7.8125C2.94097 7.90972 3 8 3.08333 8.08333L4.89583 9.89583C5.0625 10.0625 5.26042 10.1458 5.48958 10.1458C5.71875 10.1458 5.91667 10.0625 6.08333 9.89583C6.25 9.72917 6.33333 9.53472 6.33333 9.3125C6.33333 9.09028 6.25 8.89583 6.08333 8.72917L4.85417 7.5ZM10.1458 7.5L8.91667 8.72917C8.75 8.89583 8.66667 9.09028 8.66667 9.3125C8.66667 9.53472 8.75 9.72917 8.91667 9.89583C9.08333 10.0625 9.28125 10.1458 9.51042 10.1458C9.73958 10.1458 9.9375 10.0625 10.1042 9.89583L11.9167 8.08333C12 8 12.059 7.90972 12.0938 7.8125C12.1285 7.71528 12.1458 7.61111 12.1458 7.5C12.1458 7.38889 12.1285 7.28472 12.0938 7.1875C12.059 7.09028 12 7 11.9167 6.91667L10.1042 5.10417C10.0208 5.02083 9.92708 4.95833 9.82292 4.91667C9.71875 4.875 9.61458 4.85417 9.51042 4.85417C9.40625 4.85417 9.30208 4.875 9.19792 4.91667C9.09375 4.95833 9 5.02083 8.91667 5.10417C8.75 5.27083 8.66667 5.46528 8.66667 5.6875C8.66667 5.90972 8.75 6.10417 8.91667 6.27083L10.1458 7.5ZM1.66667 15C1.20833 15 0.815972 14.8368 0.489583 14.5104C0.163194 14.184 0 13.7917 0 13.3333V1.66667C0 1.20833 0.163194 0.815972 0.489583 0.489583C0.815972 0.163194 1.20833 0 1.66667 0H13.3333C13.7917 0 14.184 0.163194 14.5104 0.489583C14.8368 0.815972 15 1.20833 15 1.66667V13.3333C15 13.7917 14.8368 14.184 14.5104 14.5104C14.184 14.8368 13.7917 15 13.3333 15H1.66667ZM1.66667 13.3333H13.3333V1.66667H1.66667V13.3333Z" fill="#C2C2C2"/>
</svg>