<svg xmlns="http://www.w3.org/2000/svg" width="17" height="14" viewBox="0 0 17 14" fill="none">
  <path d="M0 12.0833V4.58333C0 4.23611 0.121528 3.94097 0.364583 3.69792C0.607639 3.45486 0.902778 3.33333 1.25 3.33333H2.5V1.25C2.5 0.902778 2.62153 0.607639 2.86458 0.364583C3.10764 0.121528 3.40278 0 3.75 0H6.25C6.59722 0 6.89236 0.121528 7.13542 0.364583C7.37847 0.607639 7.5 0.902778 7.5 1.25V3.33333H9.16667V1.25C9.16667 0.902778 9.2882 0.607639 9.53125 0.364583C9.77431 0.121528 10.0694 0 10.4167 0H12.9167C13.2639 0 13.559 0.121528 13.8021 0.364583C14.0451 0.607639 14.1667 0.902778 14.1667 1.25V3.33333H15.4167C15.7639 3.33333 16.059 3.45486 16.3021 3.69792C16.5451 3.94097 16.6667 4.23611 16.6667 4.58333V12.0833C16.6667 12.4306 16.5451 12.7257 16.3021 12.9687C16.059 13.2118 15.7639 13.3333 15.4167 13.3333H1.25C0.902778 13.3333 0.607639 13.2118 0.364583 12.9687C0.121528 12.7257 0 12.4306 0 12.0833ZM1.66667 11.6667H15V5H1.66667V11.6667ZM4.16667 3.33333H5.83333V1.66667H4.16667V3.33333ZM10.8333 3.33333H12.5V1.66667H10.8333V3.33333Z" fill="#C2C2C2"/>
</svg>