<svg xmlns="http://www.w3.org/2000/svg" width="20" height="20" viewBox="0 0 20 20" fill="none">
  <path d="M7.20573 17.0838L2.08073 11.9588C1.94184 11.8199 1.83767 11.6672 1.76823 11.5005C1.69878 11.3338 1.66406 11.1602 1.66406 10.9797C1.66406 10.7991 1.69878 10.6255 1.76823 10.4588C1.83767 10.2922 1.94184 10.1394 2.08073 10.0005L6.8724 5.22966L5.3099 3.66716C5.12934 3.4866 5.03559 3.27132 5.02865 3.02132C5.0217 2.77132 5.10851 2.5491 5.28906 2.35465C5.46962 2.16021 5.69184 2.06299 5.95573 2.06299C6.21962 2.06299 6.44879 2.16021 6.64323 2.35465L14.2891 10.0005C14.428 10.1394 14.5286 10.2922 14.5911 10.4588C14.6536 10.6255 14.6849 10.7991 14.6849 10.9797C14.6849 11.1602 14.6536 11.3338 14.5911 11.5005C14.5286 11.6672 14.428 11.8199 14.2891 11.9588L9.16406 17.0838C9.02517 17.2227 8.8724 17.3269 8.70573 17.3963C8.53906 17.4658 8.36545 17.5005 8.1849 17.5005C8.00434 17.5005 7.83073 17.4658 7.66406 17.3963C7.4974 17.3269 7.34462 17.2227 7.20573 17.0838ZM8.1849 6.54216L3.72656 11.0005H12.6432L8.1849 6.54216ZM16.4974 17.5005C15.9974 17.5005 15.5738 17.3234 15.2266 16.9692C14.8793 16.6151 14.7057 16.181 14.7057 15.6672C14.7057 15.2922 14.7995 14.938 14.987 14.6047C15.1745 14.2713 15.3863 13.9449 15.6224 13.6255L16.0182 13.1255C16.1432 12.9727 16.3064 12.8928 16.5078 12.8859C16.7092 12.879 16.8724 12.9519 16.9974 13.1047L17.4141 13.6255C17.6363 13.9449 17.8446 14.2713 18.0391 14.6047C18.2335 14.938 18.3307 15.2922 18.3307 15.6672C18.3307 16.181 18.1502 16.6151 17.7891 16.9692C17.428 17.3234 16.9974 17.5005 16.4974 17.5005Z" fill="#C2C2C2"/>
</svg>