<svg preserveAspectRatio="none" width="100%" height="100%" overflow="visible" style="display: block;" viewBox="0 0 40 40" fill="none" xmlns="http://www.w3.org/2000/svg">
<g id="siren">
<mask id="mask0_0_849" style="mask-type:alpha" maskUnits="userSpaceOnUse" x="0" y="0" width="40" height="40">
<rect id="Bounding box" width="40" height="40" fill="var(--fill-0, #D9D9D9)"/>
</mask>
<g mask="url(#mask0_0_849)">
<path id="siren_2" d="M6.11125 32.2221H33.8888V28.1946H6.11125V32.2221ZM13.5279 21.6946H16.3054V16.6112C16.3054 15.5876 16.6643 14.7113 17.3821 13.9821C18.0996 13.2532 18.9722 12.8888 20 12.8888V10.1112C18.2036 10.1112 16.6758 10.7476 15.4167 12.0204C14.1575 13.2935 13.5279 14.8237 13.5279 16.6112V21.6946ZM11.1946 25.4167H28.8054V16.5971C28.8054 14.1571 27.9513 12.0772 26.2429 10.3575C24.5346 8.63778 22.4536 7.77792 20 7.77792C17.5464 7.77792 15.4654 8.63778 13.7571 10.3575C12.0488 12.0772 11.1946 14.1571 11.1946 16.5971V25.4167ZM6.11125 35C5.34736 35 4.69333 34.7281 4.14917 34.1842C3.60528 33.64 3.33333 32.986 3.33333 32.2221V28.1946C3.33333 27.4307 3.60528 26.7767 4.14917 26.2325C4.69333 25.6886 5.34736 25.4167 6.11125 25.4167H8.41667V16.6112C8.41667 13.3982 9.54403 10.6597 11.7988 8.39583C14.0532 6.13194 16.7869 5 20 5C23.2131 5 25.9468 6.13194 28.2013 8.39583C30.456 10.6597 31.5833 13.3982 31.5833 16.6112V25.4167H33.8888C34.6526 25.4167 35.3067 25.6886 35.8508 26.2325C36.3947 26.7767 36.6667 27.4307 36.6667 28.1946V32.2221C36.6667 32.986 36.3947 33.64 35.8508 34.1842C35.3067 34.7281 34.6526 35 33.8888 35H6.11125Z" fill="var(--fill-0, white)"/>
</g>
</g>
</svg>
