<svg preserveAspectRatio="none" width="100%" height="100%" overflow="visible" style="display: block;" viewBox="0 0 24 24" fill="none" xmlns="http://www.w3.org/2000/svg">
<g id="Frame">
<path id="Vector" d="M12 7.125V14.925L15.15 16.85L14.325 13.25L17.1 10.85L13.45 10.525L12 7.125ZM12 17.275L7.85 19.775C7.66667 19.8917 7.475 19.9417 7.275 19.925C7.075 19.9083 6.9 19.8417 6.75 19.725C6.6 19.6083 6.48333 19.4625 6.4 19.2875C6.31667 19.1125 6.3 18.9167 6.35 18.7L7.45 13.975L3.775 10.8C3.60833 10.65 3.50417 10.4792 3.4625 10.2875C3.42083 10.0958 3.43333 9.90833 3.5 9.725C3.56667 9.54167 3.66667 9.39167 3.8 9.275C3.93333 9.15833 4.11667 9.08333 4.35 9.05L9.2 8.625L11.075 4.175C11.1583 3.975 11.2875 3.825 11.4625 3.725C11.6375 3.625 11.8167 3.575 12 3.575C12.1833 3.575 12.3625 3.625 12.5375 3.725C12.7125 3.825 12.8417 3.975 12.925 4.175L14.8 8.625L19.65 9.05C19.8833 9.08333 20.0667 9.15833 20.2 9.275C20.3333 9.39167 20.4333 9.54167 20.5 9.725C20.5667 9.90833 20.5792 10.0958 20.5375 10.2875C20.4958 10.4792 20.3917 10.65 20.225 10.8L16.55 13.975L17.65 18.7C17.7 18.9167 17.6833 19.1125 17.6 19.2875C17.5167 19.4625 17.4 19.6083 17.25 19.725C17.1 19.8417 16.925 19.9083 16.725 19.925C16.525 19.9417 16.3333 19.8917 16.15 19.775L12 17.275Z" fill="var(--fill-0, #FCBD02)"/>
</g>
</svg>
