<svg width="20" height="20" viewBox="0 0 20 20" fill="none" xmlns="http://www.w3.org/2000/svg">
<path d="M6.5 5.5C6.22222 5.5 5.98611 5.59722 5.79167 5.79167C5.59722 5.98611 5.5 6.22222 5.5 6.5C5.5 6.77778 5.59722 7.01389 5.79167 7.20833C5.98611 7.40278 6.22222 7.5 6.5 7.5C6.77778 7.5 7.01389 7.40278 7.20833 7.20833C7.40278 7.01389 7.5 6.77778 7.5 6.5C7.5 6.22222 7.40278 5.98611 7.20833 5.79167C7.01389 5.59722 6.77778 5.5 6.5 5.5ZM6.5 13.5C6.22222 13.5 5.98611 13.5972 5.79167 13.7917C5.59722 13.9861 5.5 14.2222 5.5 14.5C5.5 14.7778 5.59722 15.0139 5.79167 15.2083C5.98611 15.4028 6.22222 15.5 6.5 15.5C6.77778 15.5 7.01389 15.4028 7.20833 15.2083C7.40278 15.0139 7.5 14.7778 7.5 14.5C7.5 14.2222 7.40278 13.9861 7.20833 13.7917C7.01389 13.5972 6.77778 13.5 6.5 13.5ZM4 3H16C16.2833 3 16.5208 3.09583 16.7125 3.2875C16.9042 3.47917 17 3.71667 17 4V9C17 9.28333 16.9042 9.52083 16.7125 9.7125C16.5208 9.90417 16.2833 10 16 10H4C3.71667 10 3.47917 9.90417 3.2875 9.7125C3.09583 9.52083 3 9.28333 3 9V4C3 3.71667 3.09583 3.47917 3.2875 3.2875C3.47917 3.09583 3.71667 3 4 3ZM4.5 4.5V8.5H15.5V4.5H4.5ZM4 11H16C16.2833 11 16.5208 11.0958 16.7125 11.2875C16.9042 11.4792 17 11.7167 17 12V17C17 17.2833 16.9042 17.5208 16.7125 17.7125C16.5208 17.9042 16.2833 18 16 18H4C3.71667 18 3.47917 17.9042 3.2875 17.7125C3.09583 17.5208 3 17.2833 3 17V12C3 11.7167 3.09583 11.4792 3.2875 11.2875C3.47917 11.0958 3.71667 11 4 11ZM4.5 12.5V16.5H15.5V12.5H4.5Z" fill="#C2C2C2"/>
</svg>
