<svg width="20" height="20" viewBox="0 0 20 20" fill="none" xmlns="http://www.w3.org/2000/svg">
<path d="M5 19C4.30556 19 3.71528 18.7569 3.22917 18.2708C2.74306 17.7847 2.5 17.1944 2.5 16.5C2.5 15.8056 2.74306 15.2153 3.22917 14.7292C3.71528 14.2431 4.30556 14 5 14C5.19444 14 5.38931 14.0247 5.58458 14.074C5.77972 14.1231 5.96681 14.1888 6.14583 14.2708L7.29167 12.8333C6.88889 12.4028 6.59375 11.9132 6.40625 11.3646C6.21875 10.816 6.18056 10.25 6.29167 9.66667L4.70833 9.1875C4.5 9.59028 4.19444 9.90972 3.79167 10.1458C3.38889 10.3819 2.95833 10.5 2.5 10.5C1.80556 10.5 1.21528 10.2569 0.729167 9.77083C0.243056 9.28472 0 8.69444 0 8C0 7.29167 0.239583 6.69792 0.71875 6.21875C1.19792 5.73958 1.79167 5.5 2.5 5.5C3.20833 5.5 3.80208 5.73958 4.28125 6.21875C4.76042 6.69792 5 7.29167 5 8V8.22917L6.58333 8.70833C6.86111 8.125 7.25694 7.63889 7.77083 7.25C8.28472 6.86111 8.86111 6.61806 9.5 6.52083V4.95833C8.91667 4.84722 8.4375 4.5625 8.0625 4.10417C7.6875 3.64583 7.5 3.11111 7.5 2.5C7.5 1.80556 7.74306 1.21528 8.22917 0.729167C8.71528 0.243056 9.30556 0 10 0C10.6944 0 11.2847 0.243056 11.7708 0.729167C12.2569 1.21528 12.5 1.80556 12.5 2.5C12.5 3.11111 12.3125 3.64583 11.9375 4.10417C11.5625 4.5625 11.0833 4.84722 10.5 4.95833V6.52021C11.1528 6.60396 11.7326 6.84028 12.2396 7.22917C12.7465 7.61806 13.1389 8.11111 13.4167 8.70833L15 8.22917V8C15 7.30556 15.2431 6.71528 15.7292 6.22917C16.2153 5.74306 16.8056 5.5 17.5 5.5C18.1944 5.5 18.7847 5.74306 19.2708 6.22917C19.7569 6.71528 20 7.30556 20 8C20 8.69444 19.7569 9.28472 19.2708 9.77083C18.7847 10.2569 18.1944 10.5 17.5 10.5C17.0417 10.5 16.6111 10.3854 16.2083 10.1562C15.8056 9.92708 15.5 9.60417 15.2917 9.1875L13.7083 9.66667C13.8194 10.25 13.7812 10.816 13.5938 11.3646C13.4062 11.9132 13.1111 12.4028 12.7083 12.8333L13.8542 14.2708C14.0347 14.1875 14.2222 14.1215 14.4167 14.0729C14.6111 14.0243 14.8056 14 15 14C15.6944 14 16.2847 14.2431 16.7708 14.7292C17.2569 15.2153 17.5 15.8056 17.5 16.5C17.5 17.1944 17.2569 17.7847 16.7708 18.2708C16.2847 18.7569 15.6944 19 15 19C14.3056 19 13.7153 18.7569 13.2292 18.2708C12.7431 17.7847 12.5 17.1944 12.5 16.5C12.5 16.2083 12.5521 15.9271 12.6562 15.6562C12.7604 15.3854 12.9028 15.1319 13.0833 14.8958L11.9375 13.4792C11.3403 13.8403 10.6944 14.0208 10 14.0208C9.30556 14.0208 8.65972 13.8403 8.0625 13.4792L6.91667 14.8958C7.09722 15.1319 7.23958 15.3852 7.34375 15.6556C7.44792 15.9262 7.5 16.2076 7.5 16.5C7.5 17.1944 7.25694 17.7847 6.77083 18.2708C6.28472 18.7569 5.69444 19 5 19ZM2.5 9C2.78333 9 3.02083 8.90417 3.2125 8.7125C3.40417 8.52083 3.5 8.28333 3.5 8C3.5 7.71667 3.40417 7.47917 3.2125 7.2875C3.02083 7.09583 2.78333 7 2.5 7C2.21667 7 1.97917 7.09583 1.7875 7.2875C1.59583 7.47917 1.5 7.71667 1.5 8C1.5 8.28333 1.59583 8.52083 1.7875 8.7125C1.97917 8.90417 2.21667 9 2.5 9ZM5 17.5C5.28333 17.5 5.52083 17.4042 5.7125 17.2125C5.90417 17.0208 6 16.7833 6 16.5C6 16.2167 5.90417 15.9792 5.7125 15.7875C5.52083 15.5958 5.28333 15.5 5 15.5C4.71667 15.5 4.47917 15.5958 4.2875 15.7875C4.09583 15.9792 4 16.2167 4 16.5C4 16.7833 4.09583 17.0208 4.2875 17.2125C4.47917 17.4042 4.71667 17.5 5 17.5ZM10 3.5C10.2833 3.5 10.5208 3.40417 10.7125 3.2125C10.9042 3.02083 11 2.78333 11 2.5C11 2.21667 10.9042 1.97917 10.7125 1.7875C10.5208 1.59583 10.2833 1.5 10 1.5C9.71667 1.5 9.47917 1.59583 9.2875 1.7875C9.09583 1.97917 9 2.21667 9 2.5C9 2.78333 9.09583 3.02083 9.2875 3.2125C9.47917 3.40417 9.71667 3.5 10 3.5ZM10 12.5C10.63 12.5 11.1625 12.2825 11.5975 11.8475C12.0325 11.4125 12.25 10.88 12.25 10.25C12.25 9.62 12.0325 9.0875 11.5975 8.6525C11.1625 8.2175 10.63 8 10 8C9.37 8 8.8375 8.2175 8.4025 8.6525C7.9675 9.0875 7.75 9.62 7.75 10.25C7.75 10.88 7.9675 11.4125 8.4025 11.8475C8.8375 12.2825 9.37 12.5 10 12.5ZM15 17.5C15.2833 17.5 15.5208 17.4042 15.7125 17.2125C15.9042 17.0208 16 16.7833 16 16.5C16 16.2167 15.9042 15.9792 15.7125 15.7875C15.5208 15.5958 15.2833 15.5 15 15.5C14.7167 15.5 14.4792 15.5958 14.2875 15.7875C14.0958 15.9792 14 16.2167 14 16.5C14 16.7833 14.0958 17.0208 14.2875 17.2125C14.4792 17.4042 14.7167 17.5 15 17.5ZM17.5 9C17.7833 9 18.0208 8.90417 18.2125 8.7125C18.4042 8.52083 18.5 8.28333 18.5 8C18.5 7.71667 18.4042 7.47917 18.2125 7.2875C18.0208 7.09583 17.7833 7 17.5 7C17.2167 7 16.9792 7.09583 16.7875 7.2875C16.5958 7.47917 16.5 7.71667 16.5 8C16.5 8.28333 16.5958 8.52083 16.7875 8.7125C16.9792 8.90417 17.2167 9 17.5 9Z" fill="#C2C2C2"/>
</svg>
