<svg width="20" height="20" viewBox="0 0 20 20" fill="none" xmlns="http://www.w3.org/2000/svg">
<path d="M7.43762 13.9375C6.79873 14.6458 6.08692 14.9965 5.3022 14.9896C4.51748 14.9826 3.83345 14.7569 3.25011 14.3125C2.66678 13.8681 2.27095 13.2743 2.06261 12.5312C1.85428 11.7882 2.00011 11.0139 2.50011 10.2083L3.83345 8.0625C3.56956 7.78472 3.3647 7.47229 3.21886 7.12521C3.07303 6.77813 3.00011 6.40306 3.00011 6C3.00011 5.16667 3.29178 4.45833 3.87511 3.875C4.45845 3.29167 5.16678 3 6.00011 3C6.83345 3 7.54178 3.29167 8.12512 3.875C8.70845 4.45833 9.00012 5.16667 9.00012 6C9.00012 6.83333 8.70845 7.54167 8.12512 8.125C7.54178 8.70833 6.83345 9 6.00011 9C5.85192 9 5.7038 8.98611 5.55574 8.95833C5.40755 8.93056 5.25706 8.89583 5.10428 8.85417L3.77095 11C3.50706 11.4167 3.43414 11.816 3.5522 12.1979C3.67025 12.5799 3.88206 12.8889 4.18761 13.125C4.49317 13.3611 4.84386 13.4792 5.2397 13.4792C5.63553 13.4792 6.00011 13.2986 6.33345 12.9375L12.5626 6.0625C13.2015 5.35417 13.9098 5 14.6876 5C15.4654 5 16.1459 5.22222 16.7293 5.66667C17.3126 6.11111 17.7119 6.70486 17.9272 7.44792C18.1425 8.19097 18.0001 8.97222 17.5001 9.79167L16.1668 11.9375C16.4307 12.2153 16.6355 12.5277 16.7814 12.8748C16.9272 13.2219 17.0001 13.5969 17.0001 14C17.0001 14.8333 16.7084 15.5417 16.1251 16.125C15.5418 16.7083 14.8334 17 14.0001 17C13.1668 17 12.4584 16.7083 11.8751 16.125C11.2918 15.5417 11.0001 14.8333 11.0001 14C11.0001 13.1667 11.2918 12.4583 11.8751 11.875C12.4584 11.2917 13.1668 11 14.0001 11C14.154 11 14.3036 11.0139 14.4489 11.0417C14.5941 11.0694 14.7432 11.1042 14.8959 11.1458L16.2293 9C16.4932 8.58333 16.5661 8.18056 16.448 7.79167C16.33 7.40278 16.1182 7.09028 15.8126 6.85417C15.5071 6.61806 15.1529 6.50347 14.7501 6.51042C14.3473 6.51736 13.9862 6.70139 13.6668 7.0625L7.43762 13.9375ZM6.00449 7.5C6.41824 7.5 6.77095 7.35271 7.06261 7.05812C7.35428 6.76354 7.50012 6.40937 7.50012 5.99562C7.50012 5.58187 7.35282 5.22917 7.05824 4.9375C6.76366 4.64583 6.40949 4.5 5.99574 4.5C5.58199 4.5 5.22928 4.64729 4.93761 4.94188C4.64595 5.23646 4.50011 5.59063 4.50011 6.00438C4.50011 6.41813 4.64741 6.77083 4.94199 7.0625C5.23657 7.35417 5.59074 7.5 6.00449 7.5ZM14.0045 15.5C14.4182 15.5 14.7709 15.3527 15.0626 15.0581C15.3543 14.7635 15.5001 14.4094 15.5001 13.9956C15.5001 13.5819 15.3528 13.2292 15.0582 12.9375C14.7637 12.6458 14.4095 12.5 13.9957 12.5C13.582 12.5 13.2293 12.6473 12.9376 12.9419C12.6459 13.2365 12.5001 13.5906 12.5001 14.0044C12.5001 14.4181 12.6474 14.7708 12.942 15.0625C13.2366 15.3542 13.5907 15.5 14.0045 15.5Z" fill="#C2C2C2"/>
</svg>
