<svg width="20" height="20" viewBox="0 0 20 20" fill="none" xmlns="http://www.w3.org/2000/svg">
<path d="M9.99583 11.5C9.58208 11.5 9.22938 11.3527 8.93771 11.0581C8.64604 10.7635 8.50021 10.4094 8.50021 9.99563C8.50021 9.58188 8.6475 9.22917 8.94208 8.9375C9.23667 8.64583 9.59083 8.5 10.0046 8.5C10.4183 8.5 10.771 8.64729 11.0627 8.94188C11.3544 9.23646 11.5002 9.59062 11.5002 10.0044C11.5002 10.4181 11.3529 10.7708 11.0583 11.0625C10.7638 11.3542 10.4096 11.5 9.99583 11.5ZM10.0002 17C8.05576 17 6.39951 16.3194 5.03146 14.9583C3.6634 13.5972 2.98632 11.9444 3.00021 10H4.50021C4.52799 11.5278 5.07313 12.8264 6.13563 13.8958C7.19813 14.9653 8.48632 15.5 10.0002 15.5C11.5323 15.5 12.832 14.9668 13.8994 13.9004C14.9666 12.834 15.5002 11.5354 15.5002 10.0046C15.5002 8.47375 14.9666 7.17361 13.8994 6.10417C12.832 5.03472 11.5323 4.5 10.0002 4.5C9.18077 4.5 8.40646 4.67708 7.67729 5.03125C6.94813 5.38542 6.31271 5.875 5.77104 6.5H8.00021V8H3.00021V3H4.50021V5.70833C5.16563 4.84597 5.97778 4.17903 6.93667 3.7075C7.8957 3.23583 8.91688 3 10.0002 3C10.9724 3 11.8831 3.18472 12.7321 3.55417C13.5813 3.92361 14.3201 4.42271 14.9488 5.05146C15.5775 5.68007 16.0766 6.41896 16.446 7.26813C16.8155 8.11715 17.0002 9.02778 17.0002 10C17.0002 10.9722 16.8155 11.8828 16.446 12.7319C16.0766 13.581 15.5775 14.3199 14.9488 14.9485C14.3201 15.5773 13.5813 16.0764 12.7321 16.4458C11.8831 16.8153 10.9724 17 10.0002 17Z" fill="#C2C2C2"/>
</svg>
