<svg width="20" height="20" viewBox="0 0 20 20" fill="none" xmlns="http://www.w3.org/2000/svg">
<path d="M7.75 13H12.625C13.1389 13 13.5799 12.8185 13.9479 12.4554C14.316 12.0924 14.5 11.6479 14.5 11.1221C14.5 10.5963 14.3188 10.1541 13.9563 9.79563C13.5938 9.43729 13.15 9.25813 12.625 9.25813H12.5875C12.4875 8.62771 12.1983 8.09375 11.72 7.65625C11.2417 7.21875 10.6683 7 10 7C9.47222 7 8.99653 7.14236 8.57292 7.42708C8.14931 7.71181 7.83333 8.07639 7.625 8.52083H7.5C6.92514 8.52083 6.44806 8.74653 6.06875 9.19792C5.68958 9.64931 5.5 10.1667 5.5 10.75C5.5 11.375 5.71875 11.9062 6.15625 12.3438C6.59375 12.7812 7.125 13 7.75 13ZM7.75 11.5C7.5375 11.5 7.35938 11.4281 7.21563 11.2844C7.07188 11.1406 7 10.9625 7 10.75C7 10.5556 7.05556 10.3854 7.16667 10.2396C7.27778 10.0938 7.42361 10.0208 7.60417 10.0208H8.58333V9.91667C8.58333 9.51389 8.71875 9.17708 8.98958 8.90625C9.26042 8.63542 9.59722 8.5 10 8.5C10.3568 8.5 10.6613 8.63826 10.9133 8.91479C11.1656 9.19146 11.2917 9.52542 11.2917 9.91667V10.75H12.625C12.7361 10.75 12.8264 10.7847 12.8958 10.8542C12.9653 10.9236 13 11.0139 13 11.125C13 11.2361 12.9653 11.3264 12.8958 11.3958C12.8264 11.4653 12.7361 11.5 12.625 11.5H7.75ZM3.5 16C3.0875 16 2.73438 15.8531 2.44063 15.5592C2.14688 15.2653 2 14.9119 2 14.4992V5.49417C2 5.08139 2.14688 4.72917 2.44063 4.4375C2.73438 4.14583 3.0875 4 3.5 4H16.5C16.9125 4 17.2656 4.14694 17.5594 4.44083C17.8531 4.73472 18 5.08806 18 5.50083V14.5058C18 14.9186 17.8531 15.2708 17.5594 15.5625C17.2656 15.8542 16.9125 16 16.5 16H3.5ZM3.5 14.5H16.5V5.5H3.5V14.5Z" fill="#C2C2C2"/>
</svg>
