<svg width="20" height="20" viewBox="0 0 20 20" fill="none" xmlns="http://www.w3.org/2000/svg">
<path d="M4.5 16V14.5H6.04167C5.41667 13.9444 4.92014 13.2801 4.55208 12.5069C4.18403 11.7335 4 10.8979 4 10C4 8.60389 4.42361 7.37292 5.27083 6.30708C6.11806 5.24125 7.19444 4.54167 8.5 4.20833V5.77083C7.625 6.09028 6.90625 6.62847 6.34375 7.38542C5.78125 8.14236 5.5 9.01389 5.5 10C5.5 10.6724 5.63542 11.2919 5.90625 11.8585C6.17708 12.4251 6.54167 12.9097 7 13.3125V12H8.5V16H4.5ZM13.25 16C12.625 16 12.0938 15.7812 11.6562 15.3438C11.2188 14.9062 11 14.375 11 13.75C11 13.125 11.2188 12.5938 11.6562 12.1562C12.0938 11.7188 12.625 11.5 13.25 11.5C13.4444 11.0694 13.7528 10.7118 14.175 10.4271C14.5972 10.1424 15.073 10 15.6023 10C16.2702 10 16.8472 10.2153 17.3333 10.6458C17.8194 11.0764 18.1042 11.6111 18.1875 12.25C18.6875 12.2639 19.1146 12.4549 19.4688 12.8229C19.8229 13.191 20 13.6276 20 14.1329C20 14.6506 19.8188 15.0911 19.4563 15.4546C19.0938 15.8182 18.65 16 18.125 16H13.25ZM14.3958 9C14.2847 8.54167 14.1104 8.11708 13.8729 7.72625C13.6354 7.33528 13.3444 6.98903 13 6.6875V8H11.5V4H15.5V5.5H13.9583C14.4583 5.94444 14.8785 6.46181 15.2188 7.05208C15.559 7.64236 15.7917 8.29167 15.9167 9H14.3958ZM13.25 14.5H18.125C18.2361 14.5 18.3264 14.4653 18.3958 14.3958C18.4653 14.3264 18.5 14.2361 18.5 14.125C18.5 14.0139 18.4604 13.9236 18.3813 13.8542C18.3021 13.7847 18.2097 13.75 18.1042 13.75H16.6875V12.6042C16.6875 12.2992 16.5797 12.0389 16.364 11.8233C16.1483 11.6078 15.8878 11.5 15.5827 11.5C15.2776 11.5 15.0208 11.6078 14.8125 11.8233C14.6042 12.0389 14.5 12.2992 14.5 12.6042V13H13.25C13.0375 13 12.8594 13.0715 12.7156 13.2144C12.5719 13.3573 12.5 13.5344 12.5 13.7456C12.5 13.9569 12.5719 14.1354 12.7156 14.2812C12.8594 14.4271 13.0375 14.5 13.25 14.5Z" fill="#C2C2C2"/>
</svg>
