<svg width="20" height="20" viewBox="0 0 20 20" fill="none" xmlns="http://www.w3.org/2000/svg">
<path d="M10.0048 13.5C10.9758 13.5 11.801 13.1597 12.4806 12.4792C13.1602 11.7986 13.5 10.9722 13.5 10V6.5H10C9.02778 6.5 8.20139 6.83979 7.52083 7.51937C6.84028 8.19896 6.5 9.02424 6.5 9.99521C6.5 10.3317 6.54861 10.6597 6.64583 10.9792C6.74306 11.2986 6.88194 11.5972 7.0625 11.875L6.72917 12.2206C6.57639 12.3791 6.5 12.5556 6.5 12.75C6.5 12.9444 6.57639 13.1181 6.72917 13.2708C6.88194 13.4236 7.05556 13.5 7.25 13.5C7.44444 13.5 7.6209 13.4236 7.77938 13.2708L8.125 12.9375C8.40278 13.1181 8.70139 13.2569 9.02083 13.3542C9.34028 13.4514 9.66826 13.5 10.0048 13.5ZM10 12C9.86111 12 9.72917 11.9841 9.60417 11.9523C9.47917 11.9206 9.35417 11.881 9.22917 11.8333L10.5625 10.5C10.7153 10.3472 10.7917 10.1701 10.7917 9.96875C10.7917 9.76736 10.7153 9.59028 10.5625 9.4375C10.4097 9.28472 10.2326 9.20833 10.0312 9.20833C9.82986 9.20833 9.65278 9.28472 9.5 9.4375L8.16667 10.7708C8.11903 10.6458 8.07938 10.5208 8.04771 10.3958C8.0159 10.2708 8 10.1389 8 10C8 9.44 8.19333 8.96667 8.58 8.58C8.96667 8.19333 9.44 8 10 8H12V10C12 10.56 11.8067 11.0333 11.42 11.42C11.0333 11.8067 10.56 12 10 12ZM10.0058 18C8.90472 18 7.86806 17.7917 6.89583 17.375C5.92361 16.9583 5.07292 16.3854 4.34375 15.6562C3.61458 14.9271 3.04167 14.0767 2.625 13.105C2.20833 12.1333 2 11.0951 2 9.99042C2 8.88569 2.20833 7.85069 2.625 6.88542C3.04167 5.92014 3.61458 5.07292 4.34375 4.34375C5.07292 3.61458 5.92333 3.04167 6.895 2.625C7.86667 2.20833 8.90486 2 10.0096 2C11.1143 2 12.1493 2.20833 13.1146 2.625C14.0799 3.04167 14.9271 3.61458 15.6562 4.34375C16.3854 5.07292 16.9583 5.92167 17.375 6.89C17.7917 7.85847 18 8.89319 18 9.99417C18 11.0953 17.7917 12.1319 17.375 13.1042C16.9583 14.0764 16.3854 14.9271 15.6562 15.6562C14.9271 16.3854 14.0783 16.9583 13.11 17.375C12.1415 17.7917 11.1068 18 10.0058 18ZM10 16.5C11.8056 16.5 13.3403 15.8681 14.6042 14.6042C15.8681 13.3403 16.5 11.8056 16.5 10C16.5 8.19444 15.8681 6.65972 14.6042 5.39583C13.3403 4.13194 11.8056 3.5 10 3.5C8.19444 3.5 6.65972 4.13194 5.39583 5.39583C4.13194 6.65972 3.5 8.19444 3.5 10C3.5 11.8056 4.13194 13.3403 5.39583 14.6042C6.65972 15.8681 8.19444 16.5 10 16.5Z" fill="#C2C2C2"/>
</svg>
