<svg width="20" height="20" viewBox="0 0 20 20" fill="none" xmlns="http://www.w3.org/2000/svg">
<path d="M4.5 17C4.09722 17 3.74653 16.8507 3.44792 16.5521C3.14931 16.2535 3 15.9028 3 15.5V4.5C3 4.0875 3.14931 3.73438 3.44792 3.44063C3.74653 3.14688 4.09722 3 4.5 3H15.5C15.9125 3 16.2656 3.14688 16.5594 3.44063C16.8531 3.73438 17 4.0875 17 4.5V15.5C17 15.9028 16.8531 16.2535 16.5594 16.5521C16.2656 16.8507 15.9125 17 15.5 17H4.5ZM4.5 7.16667H15.5V4.5H4.5V7.16667ZM4.5 11.3333H15.5V8.66667H4.5V11.3333ZM4.5 15.5H15.5V12.8333H4.5V15.5ZM5.5 6.58333V5.08333H7V6.58333H5.5ZM5.5 10.75V9.25H7V10.75H5.5ZM5.5 14.9167V13.4167H7V14.9167H5.5Z" fill="#C2C2C2"/>
</svg>
