<svg width="20" height="20" viewBox="0 0 20 20" fill="none" xmlns="http://www.w3.org/2000/svg">
<path d="M8.5 9.25V4H18V9.25H8.5ZM2 16V10.75H10V16H2ZM2 9.25V4H7V9.25H2ZM10 7.75H16.5V5.5H10V7.75ZM3.5 14.5H8.5V12.25H3.5V14.5ZM3.5 7.75H5.5V5.5H3.5V7.75ZM14.3125 18L14.0625 16.8333C13.8681 16.7639 13.684 16.684 13.5104 16.5938C13.3368 16.5035 13.1736 16.3889 13.0208 16.25L11.875 16.6042L11.2083 15.4583L12.0625 14.625C12.0208 14.4306 12 14.2292 12 14.0208C12 13.8125 12.0208 13.6111 12.0625 13.4167L11.2083 12.6042L11.875 11.4375L13 11.7708C13.1528 11.6181 13.3194 11.4931 13.5 11.3958C13.6806 11.2986 13.8681 11.2222 14.0625 11.1667L14.3333 10H15.6667L15.9375 11.1667C16.1319 11.2361 16.3229 11.316 16.5104 11.4062C16.6979 11.4965 16.8611 11.6181 17 11.7708L18.125 11.4583L18.7917 12.6042L17.9583 13.3958C18 13.5903 18.0174 13.7951 18.0104 14.0104C18.0035 14.2257 17.9792 14.4306 17.9375 14.625L18.7917 15.4375L18.125 16.5833L16.9792 16.25C16.8264 16.3889 16.6632 16.5035 16.4896 16.5938C16.316 16.684 16.1319 16.7617 15.9375 16.8269L15.6458 18H14.3125ZM15.0044 15.5C15.4181 15.5 15.7708 15.3527 16.0625 15.0581C16.3542 14.7635 16.5 14.4094 16.5 13.9956C16.5 13.5819 16.3527 13.2292 16.0581 12.9375C15.7635 12.6458 15.4094 12.5 14.9956 12.5C14.5819 12.5 14.2292 12.6473 13.9375 12.9419C13.6458 13.2365 13.5 13.5906 13.5 14.0044C13.5 14.4181 13.6473 14.7708 13.9419 15.0625C14.2365 15.3542 14.5906 15.5 15.0044 15.5Z" fill="#C2C2C2"/>
</svg>
