<svg width="20" height="20" viewBox="0 0 20 20" fill="none" xmlns="http://www.w3.org/2000/svg">
<path d="M5.6231 17.6316C5.26282 17.6316 4.95824 17.5056 4.70935 17.2537C4.46046 17.0019 4.33602 16.6958 4.33602 16.3354C4.33602 15.9751 4.46192 15.6705 4.71372 15.4216C4.96567 15.1727 5.27178 15.0483 5.63206 15.0483C5.99234 15.0483 6.29692 15.1742 6.54581 15.426C6.7947 15.6779 6.91914 15.9841 6.91914 16.3443C6.91914 16.7046 6.79324 17.0092 6.54143 17.2581C6.28949 17.5071 5.98338 17.6316 5.6231 17.6316ZM14.3666 17.6316C14.0064 17.6316 13.7018 17.5056 13.4529 17.2537C13.204 17.0019 13.0796 16.6958 13.0796 16.3354C13.0796 15.9751 13.2055 15.6705 13.4573 15.4216C13.7092 15.1727 14.0153 15.0483 14.3756 15.0483C14.7359 15.0483 15.0405 15.1742 15.2893 15.426C15.5382 15.6779 15.6627 15.9841 15.6627 16.3443C15.6627 16.7046 15.5368 17.0092 15.285 17.2581C15.033 17.5071 14.7269 17.6316 14.3666 17.6316ZM5.15789 5.29183L6.99935 9.54829H13.1179C13.1659 9.54829 13.2087 9.53627 13.2462 9.51225C13.2836 9.48822 13.3156 9.45482 13.3423 9.41204L14.9946 5.5162C15.0266 5.45745 15.0293 5.40537 15.0025 5.35995C14.9758 5.31454 14.9304 5.29183 14.8662 5.29183H5.15789ZM4.70456 4.2085H15.8583C16.0741 4.2085 16.2312 4.28759 16.3293 4.44579C16.4277 4.60384 16.4395 4.77155 16.3648 4.94891L14.3329 9.82412C14.2291 10.0665 14.0718 10.2616 13.8608 10.4095C13.6497 10.5576 13.4101 10.6316 13.1421 10.6316H6.60352L5.68039 12.2277C5.63761 12.2918 5.63629 12.3613 5.67643 12.436C5.71643 12.5109 5.7765 12.5483 5.85664 12.5483H15.6627V13.6316H5.87747C5.3497 13.6316 4.96352 13.4152 4.71893 12.9825C4.47421 12.5498 4.48171 12.1177 4.74143 11.686L5.88872 9.71495L3.12768 3.29183H1.41602V2.2085H3.85039L4.70456 4.2085Z" fill="#C2C2C2"/>
</svg>
