<svg width="20" height="20" viewBox="0 0 20 20" fill="none" xmlns="http://www.w3.org/2000/svg">
<path d="M8 12.5L9.0625 11.4375L7.625 10L9.0625 8.5625L8 7.5L5.5 10L8 12.5ZM12 12.5L14.5 10L12 7.5L10.9375 8.5625L12.375 10L10.9375 11.4375L12 12.5ZM4.5 17C4.0875 17 3.73437 16.8531 3.44062 16.5594C3.14687 16.2656 3 15.9125 3 15.5V4.5C3 4.0875 3.14687 3.73438 3.44062 3.44063C3.73437 3.14688 4.0875 3 4.5 3H8.0625C8.17361 2.56944 8.40625 2.21181 8.76042 1.92708C9.11458 1.64236 9.52778 1.5 10 1.5C10.4722 1.5 10.8854 1.64236 11.2396 1.92708C11.5938 2.21181 11.8264 2.56944 11.9375 3H15.5C15.9125 3 16.2656 3.14688 16.5594 3.44063C16.8531 3.73438 17 4.0875 17 4.5V15.5C17 15.9125 16.8531 16.2656 16.5594 16.5594C16.2656 16.8531 15.9125 17 15.5 17H4.5ZM4.5 15.5H15.5V4.5H4.5V15.5ZM10 4C10.1444 4 10.2639 3.95278 10.3583 3.85833C10.4528 3.76389 10.5 3.64444 10.5 3.5C10.5 3.35556 10.4528 3.23611 10.3583 3.14167C10.2639 3.04722 10.1444 3 10 3C9.85556 3 9.73611 3.04722 9.64167 3.14167C9.54722 3.23611 9.5 3.35556 9.5 3.5C9.5 3.64444 9.54722 3.76389 9.64167 3.85833C9.73611 3.95278 9.85556 4 10 4Z" fill="#C2C2C2"/>
</svg>
