<svg width="20" height="20" viewBox="0 0 20 20" fill="none" xmlns="http://www.w3.org/2000/svg">
<path d="M5.07292 17.8123C4.26736 17.8123 3.58507 17.5328 3.02604 16.9738C2.46701 16.4148 2.1875 15.7325 2.1875 14.9269C2.1875 14.1214 2.46701 13.4391 3.02604 12.88C3.58507 12.321 4.26736 12.0415 5.07292 12.0415C5.87847 12.0415 6.56076 12.321 7.11979 12.88C7.67882 13.4391 7.95833 14.1214 7.95833 14.9269C7.95833 15.7325 7.67882 16.4148 7.11979 16.9738C6.56076 17.5328 5.87847 17.8123 5.07292 17.8123ZM14.9271 17.8123C14.1215 17.8123 13.4392 17.5328 12.8802 16.9738C12.3212 16.4148 12.0417 15.7325 12.0417 14.9269C12.0417 14.1214 12.3212 13.4391 12.8802 12.88C13.4392 12.321 14.1215 12.0415 14.9271 12.0415C15.7326 12.0415 16.4149 12.321 16.974 12.88C17.533 13.4391 17.8125 14.1214 17.8125 14.9269C17.8125 15.7325 17.533 16.4148 16.974 16.9738C16.4149 17.5328 15.7326 17.8123 14.9271 17.8123ZM5.07729 16.4165C5.48813 16.4165 5.8384 16.2702 6.12812 15.9775C6.41771 15.685 6.5625 15.3334 6.5625 14.9225C6.5625 14.5117 6.41618 14.1614 6.12354 13.8717C5.83104 13.5821 5.47937 13.4373 5.06854 13.4373C4.65771 13.4373 4.30743 13.5837 4.01771 13.8763C3.72813 14.1688 3.58333 14.5205 3.58333 14.9313C3.58333 15.3421 3.72965 15.6924 4.02229 15.9821C4.31479 16.2717 4.66646 16.4165 5.07729 16.4165ZM14.9315 16.4165C15.3423 16.4165 15.6926 16.2702 15.9823 15.9775C16.2719 15.685 16.4167 15.3334 16.4167 14.9225C16.4167 14.5117 16.2703 14.1614 15.9777 13.8717C15.6852 13.5821 15.3335 13.4373 14.9227 13.4373C14.5119 13.4373 14.1616 13.5837 13.8719 13.8763C13.5823 14.1688 13.4375 14.5205 13.4375 14.9313C13.4375 15.3421 13.5838 15.6924 13.8765 15.9821C14.169 16.2717 14.5206 16.4165 14.9315 16.4165ZM10.0046 13.1665C9.60236 13.1665 9.26146 13.0282 8.98188 12.7517C8.70229 12.4752 8.5625 12.1358 8.5625 11.7336C8.5625 11.3314 8.70076 10.9905 8.97729 10.7109C9.25382 10.4313 9.59319 10.2915 9.99542 10.2915C10.3976 10.2915 10.7385 10.4298 11.0181 10.7063C11.2977 10.9828 11.4375 11.3222 11.4375 11.7244C11.4375 12.1266 11.2992 12.4675 11.0227 12.7471C10.7462 13.0267 10.4068 13.1665 10.0046 13.1665ZM10 8.95817C9.1875 8.95817 8.50174 8.67866 7.94271 8.11963C7.38368 7.5606 7.10417 6.87484 7.10417 6.06234C7.10417 5.24984 7.38368 4.56407 7.94271 4.00505C8.50174 3.44602 9.1875 3.1665 10 3.1665C10.8125 3.1665 11.4983 3.44602 12.0573 4.00505C12.6163 4.56407 12.8958 5.24984 12.8958 6.06234C12.8958 6.87484 12.6163 7.5606 12.0573 8.11963C11.4983 8.67866 10.8125 8.95817 10 8.95817ZM10.0044 7.56234C10.4181 7.56234 10.7708 7.41505 11.0625 7.12046C11.3542 6.82588 11.5 6.47171 11.5 6.05796C11.5 5.64421 11.3527 5.2915 11.0581 4.99984C10.7635 4.70817 10.4094 4.56234 9.99563 4.56234C9.58188 4.56234 9.22917 4.70963 8.9375 5.00421C8.64583 5.2988 8.5 5.65296 8.5 6.06671C8.5 6.48046 8.64729 6.83317 8.94187 7.12484C9.23646 7.4165 9.59062 7.56234 10.0044 7.56234Z" fill="#C2C2C2"/>
</svg>
