<svg width="20" height="20" viewBox="0 0 20 20" fill="none" xmlns="http://www.w3.org/2000/svg">
<path d="M6.11458 18.7918C5.73069 18.7918 5.40208 18.6552 5.12875 18.3818C4.85542 18.1085 4.71875 17.7799 4.71875 17.396V2.60433C4.71875 2.17461 4.84396 1.83454 5.09437 1.58412C5.34479 1.33371 5.68486 1.2085 6.11458 1.2085H13.9271C14.311 1.2085 14.6396 1.34516 14.9129 1.6185C15.1863 1.89183 15.3229 2.22044 15.3229 2.60433V5.65641C15.5938 5.64252 15.8229 5.72857 16.0104 5.91454C16.1979 6.10051 16.2917 6.32697 16.2917 6.59391V8.50975C16.2917 8.77419 16.1979 9.0019 16.0104 9.19287C15.8229 9.38384 15.5938 9.47239 15.3229 9.4585V17.396C15.3229 17.7799 15.1863 18.1085 14.9129 18.3818C14.6396 18.6552 14.311 18.7918 13.9271 18.7918H6.11458ZM6.11458 17.396H13.9271V2.60433H6.11458V17.396ZM10.0165 5.00016C10.2069 5.00016 10.3715 4.93218 10.5104 4.79621C10.6493 4.66023 10.7188 4.49704 10.7188 4.30662C10.7188 4.1162 10.6508 3.95155 10.5148 3.81266C10.3788 3.67377 10.2156 3.60433 10.0252 3.60433C9.83479 3.60433 9.67014 3.67232 9.53125 3.80829C9.39236 3.94426 9.32292 4.10745 9.32292 4.29787C9.32292 4.48829 9.3909 4.65294 9.52688 4.79183C9.66285 4.93072 9.82604 5.00016 10.0165 5.00016Z" fill="#C2C2C2"/>
</svg>
