<svg width="20" height="20" viewBox="0 0 20 20" fill="none" xmlns="http://www.w3.org/2000/svg">
<path d="M2.22917 12L1 11.125L5 4.625L7.5 7.625L11 2.125L13.5 5.625L16.5417 1L17.75 1.875L13.5417 8.27083L11.0625 4.8125L7.66667 10.1667L5.1875 7.1875L2.22917 12ZM11.9952 15C12.554 15 13.0278 14.8072 13.4167 14.4215C13.8056 14.0356 14 13.5634 14 13.0048C14 12.446 13.8072 11.9722 13.4215 11.5833C13.0356 11.1944 12.5634 11 12.0048 11C11.446 11 10.9722 11.1928 10.5833 11.5785C10.1944 11.9644 10 12.4366 10 12.9952C10 13.554 10.1928 14.0278 10.5785 14.4167C10.9644 14.8056 11.4366 15 11.9952 15ZM15.9375 18L13.8958 15.9583C13.6193 16.1389 13.3198 16.2743 12.9973 16.3646C12.6748 16.4549 12.3424 16.5 12 16.5C11.0278 16.5 10.2014 16.1597 9.52083 15.4792C8.84028 14.7986 8.5 13.9722 8.5 13C8.5 12.0278 8.84028 11.2014 9.52083 10.5208C10.2014 9.84028 11.0278 9.5 12 9.5C12.9722 9.5 13.7986 9.84028 14.4792 10.5208C15.1597 11.2014 15.5 12.0278 15.5 13C15.5 13.3424 15.4549 13.6748 15.3646 13.9973C15.2743 14.3198 15.1389 14.6193 14.9583 14.8958L17 16.9375L15.9375 18Z" fill="#C2C2C2"/>
</svg>
