<svg width="20" height="20" viewBox="0 0 20 20" fill="none" xmlns="http://www.w3.org/2000/svg">
<path d="M10 18C8.125 17.5417 6.57292 16.4792 5.34375 14.8125C4.11458 13.1458 3.5 11.2986 3.5 9.27083V4.5L10 2L16.5 4.5V9.27083C16.5 11.2986 15.8854 13.1458 14.6562 14.8125C13.4271 16.4792 11.875 17.5417 10 18ZM10 16.4375C11.3472 16.0208 12.4688 15.2188 13.3646 14.0312C14.2604 12.8438 14.7847 11.5 14.9375 10H10V3.60417L5 5.52083V9.27083C5 9.39583 5.00694 9.51736 5.02083 9.63542C5.03472 9.75347 5.04861 9.875 5.0625 10H10V16.4375Z" fill="#C2C2C2"/>
</svg>
