<svg width="20" height="20" viewBox="0 0 20 20" fill="none" xmlns="http://www.w3.org/2000/svg">
<path d="M9 17V15.5H15.5V9.9375C15.5 8.40972 14.9668 7.10764 13.9004 6.03125C12.834 4.95486 11.5354 4.41667 10.0046 4.41667C8.47375 4.41667 7.17361 4.95486 6.10417 6.03125C5.03472 7.10764 4.5 8.40972 4.5 9.9375V14.6667H3.5C3.0875 14.6667 2.73438 14.5157 2.44063 14.2138C2.14688 13.9118 2 13.5489 2 13.125V11.5833C2 11.2639 2.09028 10.9792 2.27083 10.7292C2.45139 10.4792 2.69444 10.3194 3 10.25L3.0625 9.1875C3.1875 8.3125 3.45139 7.49653 3.85417 6.73958C4.25694 5.98264 4.76736 5.32639 5.38542 4.77083C6.00347 4.21528 6.70826 3.78125 7.49979 3.46875C8.29132 3.15625 9.12465 3 9.99979 3C10.8749 3 11.7069 3.15667 12.4958 3.47C13.2849 3.78319 13.9897 4.21722 14.6104 4.77208C15.2312 5.32681 15.7431 5.97917 16.1458 6.72917C16.5486 7.47917 16.8125 8.29167 16.9375 9.16667L17 10.25C17.2917 10.3194 17.5312 10.4688 17.7188 10.6979C17.9062 10.9271 18 11.1944 18 11.5V13.25C18 13.5556 17.9062 13.8229 17.7188 14.0521C17.5312 14.2812 17.2917 14.4306 17 14.5V15.5C17 15.9125 16.8531 16.2656 16.5594 16.5594C16.2656 16.8531 15.9125 17 15.5 17H9ZM7.75437 11.5C7.54313 11.5 7.36458 11.4285 7.21875 11.2856C7.07292 11.1427 7 10.9656 7 10.7544C7 10.5431 7.07146 10.3646 7.21438 10.2188C7.35729 10.0729 7.53438 10 7.74563 10C7.95688 10 8.13542 10.0715 8.28125 10.2144C8.42708 10.3573 8.5 10.5344 8.5 10.7456C8.5 10.9569 8.42854 11.1354 8.28562 11.2812C8.14271 11.4271 7.96562 11.5 7.75437 11.5ZM12.2544 11.5C12.0431 11.5 11.8646 11.4285 11.7188 11.2856C11.5729 11.1427 11.5 10.9656 11.5 10.7544C11.5 10.5431 11.5715 10.3646 11.7144 10.2188C11.8573 10.0729 12.0344 10 12.2456 10C12.4569 10 12.6354 10.0715 12.7812 10.2144C12.9271 10.3573 13 10.5344 13 10.7456C13 10.9569 12.9285 11.1354 12.7856 11.2812C12.6427 11.4271 12.4656 11.5 12.2544 11.5ZM5.52083 10.4583C5.39583 9.11111 5.78264 7.94792 6.68125 6.96875C7.57986 5.98958 8.7 5.5 10.0417 5.5C11.1806 5.5 12.1701 5.88194 13.0104 6.64583C13.8507 7.40972 14.3333 8.36111 14.4583 9.5C13.2778 9.5 12.2049 9.17708 11.2396 8.53125C10.2743 7.88542 9.52778 7.04167 9 6C8.80556 6.98611 8.40625 7.87153 7.80208 8.65625C7.19792 9.44097 6.4375 10.0417 5.52083 10.4583Z" fill="#C2C2C2"/>
</svg>
