<svg width="20" height="20" viewBox="0 0 20 20" fill="none" xmlns="http://www.w3.org/2000/svg">
<path d="M7.60664 9.69072L9.53789 7.7676L8.14039 6.35718L7.15789 7.31885L6.40477 6.56572L7.37435 5.58322L5.8631 4.09281L3.93997 6.01593L7.60664 9.69072ZM13.9754 16.0511L15.8983 14.128L14.4287 12.6376L13.4464 13.6072L12.6933 12.8541L13.6629 11.8718L12.2398 10.4613L10.3085 12.3926L13.9754 16.0511ZM6.14685 16.5832H3.41602V13.8524L6.84081 10.4486L2.41602 6.01593L5.8631 2.56885L10.2958 6.99343L13.5427 3.73385C13.6581 3.61843 13.7793 3.5367 13.9064 3.48864C14.0335 3.44058 14.1676 3.41656 14.3087 3.41656C14.4497 3.41656 14.5837 3.44058 14.7108 3.48864C14.838 3.5367 14.9593 3.61843 15.0746 3.73385L16.2654 4.94072C16.3808 5.056 16.4612 5.17725 16.5064 5.30447C16.5519 5.43156 16.5746 5.56558 16.5746 5.70656C16.5746 5.84767 16.5519 5.98176 16.5064 6.10885C16.4612 6.23593 16.3808 6.35718 16.2654 6.4726L13.0137 9.70343L17.4304 14.1361L13.9833 17.5832L9.5506 13.1584L6.14685 16.5832ZM4.49935 15.4999H5.6981L13.5185 7.67135L12.3279 6.48072L4.49935 14.3011V15.4999ZM12.9337 7.0576L12.3279 6.48072L13.5185 7.67135L12.9337 7.0576Z" fill="#C2C2C2"/>
</svg>
