<svg width="20" height="20" viewBox="0 0 20 20" fill="none" xmlns="http://www.w3.org/2000/svg">
<path d="M10.0058 18C8.90472 18 7.86806 17.7917 6.89583 17.375C5.92361 16.9583 5.07292 16.3854 4.34375 15.6562C3.61458 14.9271 3.04167 14.0767 2.625 13.105C2.20833 12.1333 2 11.0951 2 9.99042C2 8.88569 2.20833 7.85069 2.625 6.88542C3.04167 5.92014 3.61458 5.07292 4.34375 4.34375C5.07292 3.61458 5.92333 3.04167 6.895 2.625C7.86667 2.20833 8.90486 2 10.0096 2C11.1143 2 12.1493 2.20833 13.1146 2.625C14.0799 3.04167 14.9271 3.61458 15.6562 4.34375C16.3854 5.07292 16.9583 5.92167 17.375 6.89C17.7917 7.85847 18 8.89319 18 9.99417C18 11.0953 17.7917 12.1319 17.375 13.1042C16.9583 14.0764 16.3854 14.9271 15.6562 15.6562C14.9271 16.3854 14.0783 16.9583 13.11 17.375C12.1415 17.7917 11.1068 18 10.0058 18ZM10.0071 16.5C10.7663 16.5 11.4861 16.375 12.1667 16.125C12.8472 15.875 13.4653 15.5278 14.0208 15.0833L12.9583 14C12.5468 14.3182 12.0892 14.5644 11.5856 14.7385C11.0819 14.9128 10.5533 15 10 15C8.61111 15 7.43056 14.5139 6.45833 13.5417C5.48611 12.5694 5 11.3889 5 10C5 8.61111 5.48611 7.43056 6.45833 6.45833C7.43056 5.48611 8.61111 5 10 5C11.3889 5 12.5694 5.48611 13.5417 6.45833C14.5139 7.43056 15 8.61111 15 10C15 10.5556 14.9132 11.0833 14.7396 11.5833C14.566 12.0833 14.3194 12.5417 14 12.9583L15.0833 14.0208C15.5278 13.4635 15.875 12.845 16.125 12.1654C16.375 11.4857 16.5 10.7663 16.5 10.0071C16.5 8.19056 15.8681 6.65188 14.6042 5.39104C13.3403 4.13035 11.8056 3.5 10 3.5C8.19444 3.5 6.65972 4.13194 5.39583 5.39583C4.13194 6.65972 3.5 8.19444 3.5 10C3.5 11.8056 4.13035 13.3403 5.39104 14.6042C6.65188 15.8681 8.19056 16.5 10.0071 16.5ZM10 13.5C10.3472 13.5 10.6771 13.4514 10.9896 13.3542C11.3021 13.2569 11.5972 13.1181 11.875 12.9375L10.375 11.4375C10.3125 11.4653 10.25 11.4826 10.1875 11.4896C10.125 11.4965 10.0625 11.5 10 11.5C9.5875 11.5 9.23438 11.3527 8.94063 11.0581C8.64687 10.7634 8.5 10.4107 8.5 10C8.5 9.5875 8.64729 9.23438 8.94187 8.94063C9.23646 8.64688 9.59062 8.5 10.0044 8.5C10.4181 8.5 10.7708 8.64611 11.0625 8.93833C11.3542 9.23056 11.5 9.58188 11.5 9.99229C11.5 10.0669 11.4931 10.1319 11.4792 10.1875C11.4653 10.2431 11.4514 10.3056 11.4375 10.375L12.9375 11.875C13.1168 11.6006 13.2554 11.3071 13.3533 10.9946C13.4511 10.6821 13.5 10.3506 13.5 10C13.5 9.02778 13.1597 8.20139 12.4792 7.52083C11.7986 6.84028 10.9722 6.5 10 6.5C9.02778 6.5 8.20139 6.84028 7.52083 7.52083C6.84028 8.20139 6.5 9.02778 6.5 10C6.5 10.9722 6.84028 11.7986 7.52083 12.4792C8.20139 13.1597 9.02778 13.5 10 13.5Z" fill="#C2C2C2"/>
</svg>
