<svg width="20" height="20" viewBox="0 0 20 20" fill="none" xmlns="http://www.w3.org/2000/svg">
<path d="M9.30208 15.9897V10.4272L4.58333 7.68766V13.2502L9.30208 15.9897ZM10.6979 15.9897L15.4167 13.271V7.71891L10.6979 10.4168V15.9897ZM10 9.2085L14.8646 6.40641L9.97917 3.60433L5.13542 6.40641L10 9.2085ZM3.88542 14.4793C3.66181 14.356 3.48958 14.1889 3.36875 13.9781C3.24792 13.7674 3.1875 13.5352 3.1875 13.2814V6.71891C3.1875 6.46516 3.24792 6.2312 3.36875 6.01704C3.48958 5.80273 3.66181 5.63391 3.88542 5.51058L9.28125 2.396C9.50347 2.271 9.74306 2.2085 10 2.2085C10.2569 2.2085 10.4965 2.271 10.7188 2.396L16.1146 5.51058C16.3382 5.63391 16.5104 5.80273 16.6313 6.01704C16.7521 6.2312 16.8125 6.46516 16.8125 6.71891V13.2814C16.8125 13.5352 16.7521 13.7691 16.6313 13.9833C16.5104 14.1976 16.3382 14.3664 16.1146 14.4897L10.6979 17.6252C10.4739 17.7502 10.2408 17.8127 9.99854 17.8127C9.75646 17.8127 9.52431 17.7502 9.30208 17.6252L3.88542 14.4793Z" fill="#C2C2C2"/>
</svg>
