<svg xmlns="http://www.w3.org/2000/svg" width="24" height="24" viewBox="0 0 24 24" fill="none">
  <path d="M13.0271 2.00195C14.1525 2.00381 14.7228 2.00977 15.2156 2.02444L15.4097 2.03078C15.6339 2.03875 15.8551 2.04875 16.1218 2.06125C17.1859 2.11042 17.9118 2.27875 18.5493 2.52625C19.2084 2.78042 19.7651 3.12375 20.3209 3.67959C20.8759 4.23542 21.2193 4.79375 21.4743 5.45125C21.7209 6.08792 21.8893 6.81459 21.9393 7.87875C21.9512 8.14542 21.9608 8.36662 21.9687 8.59086L21.975 8.78495C21.9896 9.27769 21.9963 9.84808 21.9984 10.9735L21.9992 11.7191C21.9993 11.8102 21.9993 11.9042 21.9993 12.0012L21.9992 12.2833L21.9986 13.029C21.9967 14.1544 21.9908 14.7248 21.9761 15.2175L21.9697 15.4116C21.9618 15.6359 21.9518 15.8571 21.9393 16.1237C21.8901 17.1879 21.7209 17.9137 21.4743 18.5512C21.2201 19.2104 20.8759 19.7671 20.3209 20.3229C19.7651 20.8779 19.2059 21.2212 18.5493 21.4762C17.9118 21.7229 17.1859 21.8912 16.1218 21.9412C15.8551 21.9531 15.6339 21.9628 15.4097 21.9706L15.2156 21.9769C14.7228 21.9916 14.1525 21.9982 13.0271 22.0004L12.2814 22.0012C12.1903 22.0012 12.0963 22.0012 11.9993 22.0012H11.7172L10.9715 22.0005C9.84612 21.9987 9.27574 21.9927 8.78299 21.978L8.58891 21.9717C8.36466 21.9637 8.14346 21.9537 7.8768 21.9412C6.81263 21.8921 6.08763 21.7229 5.4493 21.4762C4.79096 21.2221 4.23346 20.8779 3.67763 20.3229C3.1218 19.7671 2.7793 19.2079 2.5243 18.5512C2.2768 17.9137 2.1093 17.1879 2.0593 16.1237C2.04742 15.8571 2.03773 15.6359 2.02988 15.4116L2.02359 15.2175C2.00896 14.7248 2.00229 14.1544 2.00013 13.029L2 10.9735C2.00186 9.84808 2.00781 9.27769 2.02248 8.78495L2.02883 8.59086C2.0368 8.36662 2.0468 8.14542 2.0593 7.87875C2.10846 6.81375 2.2768 6.08875 2.5243 5.45125C2.77846 4.79292 3.1218 4.23542 3.67763 3.67959C4.23346 3.12375 4.7918 2.78125 5.4493 2.52625C6.0868 2.27875 6.8118 2.11125 7.8768 2.06125C8.14346 2.04938 8.36466 2.03969 8.58891 2.03184L8.78299 2.02555C9.27574 2.01091 9.84612 2.00424 10.9715 2.00208L13.0271 2.00195ZM11.9993 7.00125C9.2364 7.00125 6.9993 9.24078 6.9993 12.0012C6.9993 14.7641 9.23883 17.0012 11.9993 17.0012C14.7622 17.0012 16.9993 14.7617 16.9993 12.0012C16.9993 9.23835 14.7597 7.00125 11.9993 7.00125ZM11.9993 9.00125C13.6562 9.00125 14.9993 10.3439 14.9993 12.0012C14.9993 13.6581 13.6566 15.0012 11.9993 15.0012C10.3424 15.0012 8.9993 13.6586 8.9993 12.0012C8.9993 10.3443 10.3419 9.00125 11.9993 9.00125ZM17.2493 5.50125C16.56 5.50125 15.9993 6.06116 15.9993 6.7504C15.9993 7.43965 16.5592 8.00042 17.2493 8.00042C17.9385 8.00042 18.4993 7.44052 18.4993 6.7504C18.4993 6.06116 17.9376 5.50039 17.2493 5.50125Z" fill="white"/>
</svg>