<svg xmlns="http://www.w3.org/2000/svg" width="22" height="22" viewBox="0 0 22 22" fill="none">
  <path d="M10.9583 13.2917L2.79167 21.4583C2.48611 21.7639 2.09722 21.9167 1.625 21.9167C1.15278 21.9167 0.763889 21.7639 0.458333 21.4583C0.152778 21.1528 0 20.7639 0 20.2917C0 19.8194 0.152778 19.4306 0.458333 19.125L8.625 10.9583L0.458333 2.79167C0.152778 2.48611 0 2.09722 0 1.625C0 1.15278 0.152778 0.763889 0.458333 0.458333C0.763889 0.152778 1.15278 0 1.625 0C2.09722 0 2.48611 0.152778 2.79167 0.458333L10.9583 8.625L19.125 0.458333C19.4306 0.152778 19.8194 0 20.2917 0C20.7639 0 21.1528 0.152778 21.4583 0.458333C21.7639 0.763889 21.9167 1.15278 21.9167 1.625C21.9167 2.09722 21.7639 2.48611 21.4583 2.79167L13.2917 10.9583L21.4583 19.125C21.7639 19.4306 21.9167 19.8194 21.9167 20.2917C21.9167 20.7639 21.7639 21.1528 21.4583 21.4583C21.1528 21.7639 20.7639 21.9167 20.2917 21.9167C19.8194 21.9167 19.4306 21.7639 19.125 21.4583L10.9583 13.2917Z" fill="white"/>
</svg>