<svg width="64" height="64" viewBox="0 0 64 64" fill="none" xmlns="http://www.w3.org/2000/svg">
<circle cx="32" cy="32" r="32" fill="#141414"/>
<circle cx="32" cy="32" r="31.5068" stroke="white" stroke-opacity="0.1" stroke-width="0.986487"/>
<path d="M21.7424 42C21.0688 42 20.4987 41.7667 20.032 41.3C19.5654 40.8333 19.332 40.2632 19.332 39.5897V24.4103C19.332 23.7368 19.5654 23.1667 20.032 22.7C20.4987 22.2333 21.0688 22 21.7424 22H42.255C42.9286 22 43.4987 22.2333 43.9654 22.7C44.432 23.1667 44.6654 23.7368 44.6654 24.4103V39.5897C44.6654 40.2632 44.432 40.8333 43.9654 41.3C43.4987 41.7667 42.9286 42 42.255 42H21.7424ZM42.6654 25.923L32.6474 32.336C32.5449 32.394 32.4389 32.4397 32.3294 32.473C32.22 32.5063 32.1098 32.523 31.9987 32.523C31.8876 32.523 31.7774 32.5063 31.668 32.473C31.5585 32.4397 31.4525 32.394 31.35 32.336L21.332 25.923V39.5897C21.332 39.7094 21.3705 39.8078 21.4474 39.8847C21.5243 39.9616 21.6226 40 21.7424 40H42.255C42.3748 40 42.4731 39.9616 42.55 39.8847C42.6269 39.8078 42.6654 39.7094 42.6654 39.5897V25.923ZM31.9987 30.6667L42.4604 24H21.537L31.9987 30.6667ZM21.332 26.2307V24.7063V24.746V24.7037V26.2307Z" fill="#E8EAED"/>
</svg>
