<svg width="22" height="24" viewBox="0 0 22 24" fill="none" xmlns="http://www.w3.org/2000/svg">
<path d="M9.75 1.08334C10.0359 1.08334 10.3187 1.09833 10.5985 1.12249C10.2293 1.77086 9.96883 2.48899 9.841 3.25213C9.81067 3.25177 9.78033 3.25002 9.75 3.25002C5.56035 3.25002 2.16689 6.64375 2.16667 10.8334C2.16667 15.0232 5.56021 18.4167 9.75 18.4167C11.8036 18.4167 13.666 17.6011 15.0312 16.2765L15.1931 16.1147C16.5176 14.7494 17.3333 12.8868 17.3333 10.8334C17.3333 10.8027 17.3305 10.7719 17.3302 10.7413C18.0936 10.6136 18.8112 10.3531 19.4598 9.98385C19.484 10.2638 19.5 10.5472 19.5 10.8334C19.5 13.1342 18.7018 15.2505 17.3671 16.9187L22.0063 21.5578L20.4743 23.0897L15.8353 18.4505C14.1671 19.7853 12.051 20.5834 9.75 20.5834C4.368 20.5834 0 16.2154 0 10.8334C0.0002275 5.45153 4.36814 1.08334 9.75 1.08334ZM15.7401 0.345958C15.9314 -0.115313 16.5687 -0.115326 16.7599 0.345958L17.0339 1.00823C17.5019 2.13792 18.3751 3.04003 19.4725 3.52825L20.2501 3.8742C20.6945 4.07226 20.6945 4.71922 20.2501 4.91733L19.427 5.28338C18.357 5.75927 17.4995 6.62943 17.0234 7.72194L16.7557 8.3345C16.5603 8.78314 15.9398 8.78314 15.7443 8.3345L15.4777 7.72194C15.0016 6.62926 14.1431 5.75932 13.073 5.28338L12.2499 4.91733C11.8055 4.71923 11.8055 4.07225 12.2499 3.8742L13.0275 3.52825C14.125 3.04003 14.9982 2.13794 15.4661 1.00823L15.7401 0.345958Z" fill="white"/>
</svg>
