<svg width="20" height="20" viewBox="0 0 20 20" fill="none" xmlns="http://www.w3.org/2000/svg">
<path d="M8.22917 17C7.57639 17 7.02083 16.7847 6.5625 16.3542C6.10417 15.9236 5.84028 15.3889 5.77083 14.75C4.97917 14.6667 4.31944 14.3333 3.79167 13.75C3.26389 13.1667 3 12.4721 3 11.6663C3 11.3888 3.03125 11.1007 3.09375 10.8021C3.15625 10.5035 3.26389 10.2361 3.41667 10C3.27778 9.76292 3.17361 9.51271 3.10417 9.24937C3.03472 8.9859 3 8.71292 3 8.43042C3 7.64722 3.25694 6.97 3.77083 6.39875C4.28472 5.82736 4.9375 5.48611 5.72917 5.375C5.75694 4.70833 6.01417 4.14583 6.50083 3.6875C6.9875 3.22917 7.56382 3 8.22979 3C8.56271 3 8.88194 3.0625 9.1875 3.1875C9.49306 3.3125 9.76708 3.49306 10.0096 3.72917C10.2393 3.49306 10.5023 3.3125 10.7985 3.1875C11.0948 3.0625 11.4103 3 11.7452 3C12.4151 3 12.9931 3.22917 13.4792 3.6875C13.9653 4.14583 14.2222 4.70833 14.25 5.375C15.0417 5.47222 15.6979 5.81055 16.2188 6.39C16.7396 6.96944 17 7.65194 17 8.4375C17 8.72833 16.9618 9.0059 16.8854 9.27021C16.809 9.53451 16.7014 9.78472 16.5625 10.0208C16.7292 10.2986 16.8438 10.5764 16.9062 10.8542C16.9688 11.1319 17 11.4061 17 11.6767C17 12.4756 16.7326 13.1701 16.1979 13.7604C15.6632 14.3507 15 14.6806 14.2083 14.75C14.1389 15.3889 13.875 15.9236 13.4167 16.3542C12.9583 16.7847 12.4009 17 11.7444 17C11.4226 17 11.1104 16.941 10.8079 16.8229C10.5054 16.7049 10.2361 16.5278 10 16.2917C9.76389 16.5139 9.49285 16.6875 9.18688 16.8125C8.8809 16.9375 8.56167 17 8.22917 17ZM10.75 5.51458V14.5063C10.75 14.7799 10.8467 15.0174 11.04 15.2188C11.2333 15.4201 11.47 15.5208 11.75 15.5208C12.0278 15.5208 12.2569 15.4236 12.4375 15.2292C12.6181 15.0347 12.7153 14.7986 12.7292 14.5208C12.4653 14.4097 12.2217 14.2685 11.9985 14.0973C11.7753 13.9262 11.5744 13.7201 11.3958 13.4792C11.2708 13.3058 11.2257 13.1201 11.2604 12.9221C11.2951 12.724 11.3993 12.5625 11.5729 12.4375C11.7465 12.3125 11.9339 12.2656 12.135 12.2967C12.336 12.3276 12.4993 12.4301 12.625 12.6042C12.7715 12.8129 12.9581 12.9728 13.1846 13.0837C13.411 13.1946 13.6574 13.25 13.924 13.25C14.3635 13.25 14.7361 13.0972 15.0417 12.7917C15.3472 12.4861 15.5 12.1111 15.5 11.6667C15.5 11.5694 15.4931 11.4792 15.4792 11.3958C15.4653 11.3125 15.4444 11.2292 15.4167 11.1458C15.1958 11.2708 14.9588 11.3646 14.7056 11.4271C14.4524 11.4896 14.1894 11.5208 13.9167 11.5208C13.7042 11.5208 13.526 11.4494 13.3823 11.3065C13.2385 11.1635 13.1667 10.9865 13.1667 10.7752C13.1667 10.564 13.2385 10.3854 13.3823 10.2396C13.526 10.0938 13.7042 10.0208 13.9167 10.0208C14.3611 10.0208 14.7361 9.86806 15.0417 9.5625C15.3472 9.25694 15.5 8.88521 15.5 8.44729C15.5 8.00951 15.3472 7.63799 15.0417 7.33271C14.7361 7.02757 14.349 6.86806 13.8802 6.85417C13.724 7.09028 13.5382 7.29861 13.3229 7.47917C13.1076 7.65972 12.8611 7.79861 12.5833 7.89583C12.3889 7.96528 12.1979 7.95653 12.0104 7.86958C11.8229 7.7825 11.6944 7.63958 11.625 7.44083C11.5556 7.24194 11.566 7.04931 11.6562 6.86292C11.7465 6.67653 11.892 6.54861 12.0927 6.47917C12.2809 6.40972 12.4375 6.28896 12.5625 6.11687C12.6875 5.94479 12.75 5.74625 12.75 5.52125C12.75 5.24319 12.6533 5.00347 12.46 4.80208C12.2667 4.60069 12.03 4.5 11.75 4.5C11.47 4.5 11.2333 4.60069 11.04 4.80208C10.8467 5.00347 10.75 5.24097 10.75 5.51458ZM9.25 14.5V5.51438C9.25 5.2409 9.14931 5.00347 8.94792 4.80208C8.74653 4.60069 8.50618 4.5 8.22688 4.5C7.94743 4.5 7.71132 4.59917 7.51854 4.7975C7.32563 4.99583 7.22917 5.23861 7.22917 5.52583C7.22917 5.74472 7.29167 5.94097 7.41667 6.11458C7.54167 6.28819 7.69826 6.40972 7.88646 6.47917C8.08715 6.54861 8.23264 6.67618 8.32292 6.86188C8.41319 7.04757 8.42361 7.23944 8.35417 7.4375C8.28472 7.63194 8.15625 7.77431 7.96875 7.86458C7.78125 7.95486 7.59028 7.96528 7.39583 7.89583C7.11806 7.79861 6.87153 7.65972 6.65625 7.47917C6.44097 7.29861 6.25514 7.09028 6.09875 6.85417C5.64403 6.86806 5.26389 7.02778 4.95833 7.33333C4.65278 7.63889 4.5 8.00708 4.5 8.43792C4.5 8.88208 4.65278 9.25694 4.95833 9.5625C5.26389 9.86806 5.63889 10.0208 6.08333 10.0208C6.29583 10.0208 6.47396 10.0923 6.61771 10.2352C6.76146 10.3781 6.83333 10.5552 6.83333 10.7665C6.83333 10.9777 6.76146 11.1562 6.61771 11.3021C6.47396 11.4479 6.29583 11.5208 6.08333 11.5208C5.81111 11.5208 5.54861 11.4861 5.29583 11.4167C5.04306 11.3472 4.80556 11.25 4.58333 11.125C4.55556 11.2083 4.53472 11.2963 4.52083 11.389C4.50694 11.4815 4.5 11.574 4.5 11.6667C4.5 12.1111 4.65278 12.4861 4.95833 12.7917C5.26389 13.0972 5.63646 13.25 6.07604 13.25C6.34257 13.25 6.58903 13.1946 6.81542 13.0837C7.04194 12.9728 7.22847 12.8129 7.375 12.6042C7.50403 12.42 7.67167 12.3115 7.87792 12.2785C8.08431 12.2456 8.27083 12.2917 8.4375 12.4167C8.60417 12.5417 8.70486 12.7083 8.73958 12.9167C8.77431 13.125 8.7309 13.3146 8.60938 13.4854C8.43924 13.7174 8.23958 13.9236 8.01042 14.1042C7.78125 14.2847 7.52778 14.4306 7.25 14.5417C7.26389 14.8194 7.36111 15.0486 7.54167 15.2292C7.72222 15.4097 7.94938 15.5 8.22312 15.5C8.51062 15.5 8.75368 15.4033 8.95229 15.21C9.15076 15.0167 9.25 14.78 9.25 14.5Z" fill="#C2C2C2"/>
</svg>
