<svg width="20" height="20" viewBox="0 0 20 20" fill="none" xmlns="http://www.w3.org/2000/svg">
<path d="M9.25 15.5H10.75V13.25H13V11.75H10.75V9.5H9.25V11.75H7V13.25H9.25V15.5ZM5.49417 18C5.08139 18 4.72917 17.8531 4.4375 17.5594C4.14583 17.2656 4 16.9125 4 16.5V8.5C4 8.0875 4.14687 7.73438 4.44062 7.44063C4.73437 7.14688 5.0875 7 5.5 7H6V5C6 3.89333 6.39049 2.95 7.17146 2.17C7.95229 1.39 8.89674 1 10.0048 1C11.1127 1 12.0556 1.39 12.8333 2.17C13.6111 2.95 14 3.89333 14 5V7H14.5C14.9125 7 15.2656 7.14688 15.5594 7.44063C15.8531 7.73438 16 8.0875 16 8.5V16.5C16 16.9125 15.8531 17.2656 15.5592 17.5594C15.2653 17.8531 14.9119 18 14.4992 18H5.49417ZM5.5 16.5H14.5V8.5H5.5V16.5ZM7.5 7H12.5V5C12.5 4.30556 12.2569 3.71528 11.7708 3.22917C11.2847 2.74306 10.6944 2.5 10 2.5C9.30556 2.5 8.71528 2.74306 8.22917 3.22917C7.74306 3.71528 7.5 4.30556 7.5 5V7Z" fill="#C2C2C2"/>
</svg>
