<svg width="20" height="20" viewBox="0 0 20 20" fill="none" xmlns="http://www.w3.org/2000/svg">
<path d="M4.5625 15.4375C4.07639 14.8264 3.69444 14.1458 3.41667 13.3958C3.13889 12.6458 3 11.8472 3 11C3 9.05556 3.68056 7.40278 5.04167 6.04167C6.40278 4.68056 8.05556 4 10 4H10.125L8.9375 2.8125L10 1.75L13 4.75L10 7.75L8.9375 6.6875L10.125 5.5H10C8.47222 5.5 7.17361 6.03472 6.10417 7.10417C5.03472 8.17361 4.5 9.47222 4.5 11C4.5 11.625 4.60069 12.2222 4.80208 12.7917C5.00347 13.3611 5.28472 13.8819 5.64583 14.3542L4.5625 15.4375ZM9.25 15C9.25 14.7083 9.15278 14.4201 8.95833 14.1354C8.76389 13.8507 8.55208 13.559 8.32292 13.2604C8.09375 12.9618 7.88194 12.6458 7.6875 12.3125C7.49306 11.9792 7.39583 11.625 7.39583 11.25C7.39583 10.5 7.64236 9.88889 8.13542 9.41667C8.62847 8.94444 9.25 8.70833 10 8.70833C10.75 8.70833 11.3715 8.94444 11.8646 9.41667C12.3576 9.88889 12.6042 10.5 12.6042 11.25C12.6042 11.625 12.5069 11.9792 12.3125 12.3125C12.1181 12.6458 11.9062 12.9618 11.6771 13.2604C11.4479 13.559 11.2361 13.8507 11.0417 14.1354C10.8472 14.4201 10.75 14.7083 10.75 15H9.25ZM9.25 17V16H10.75V17H9.25ZM15.4167 15.4167L14.3542 14.3542C14.7153 13.8819 14.9965 13.3646 15.1979 12.8021C15.3993 12.2396 15.5 11.6389 15.5 11C15.5 10.1806 15.3368 9.42014 15.0104 8.71875C14.684 8.01736 14.2361 7.41667 13.6667 6.91667L14.7292 5.85417C15.4375 6.49306 15.9931 7.25347 16.3958 8.13542C16.7986 9.01736 17 9.97222 17 11C17 11.8472 16.8611 12.6424 16.5833 13.3854C16.3056 14.1285 15.9167 14.8056 15.4167 15.4167Z" fill="#C2C2C2"/>
</svg>
