<svg width="20" height="20" viewBox="0 0 20 20" fill="none" xmlns="http://www.w3.org/2000/svg">
<path d="M9.25 17H4.5C4.09722 17 3.74653 16.8507 3.44792 16.5521C3.14931 16.2535 3 15.9028 3 15.5V4.5C3 4.0875 3.14931 3.73438 3.44792 3.44063C3.74653 3.14688 4.09722 3 4.5 3H9.25V17ZM7.75 15.5V4.5H4.5V15.5H7.75ZM10.75 9.25V3H15.5C15.9125 3 16.2656 3.14688 16.5594 3.44063C16.8531 3.73438 17 4.0875 17 4.5V9.25H10.75ZM12.25 7.75H15.5V4.5H12.25V7.75ZM10.75 17V10.75H17V15.5C17 15.9028 16.8531 16.2535 16.5594 16.5521C16.2656 16.8507 15.9125 17 15.5 17H10.75ZM12.2917 15.5H15.5V12.2708H12.2917V15.5Z" fill="#C2C2C2"/>
</svg>
