<svg width="20" height="20" viewBox="0 0 20 20" fill="none" xmlns="http://www.w3.org/2000/svg">
<path d="M5 16C3.88889 16 2.94444 15.6076 2.16667 14.8229C1.38889 14.0382 1 13.0903 1 11.9792C1 10.9236 1.35764 10.0104 2.07292 9.23958C2.78819 8.46875 3.67361 8.05556 4.72917 8C5.05458 6.80903 5.70528 5.84465 6.68125 5.10688C7.65736 4.36896 8.76361 4 10 4C11.4861 4 12.7743 4.47569 13.8646 5.42708C14.9549 6.37847 15.5 7.56944 15.5 9C16.4722 9 17.2986 9.34028 17.9792 10.0208C18.6597 10.7014 19 11.5208 19 12.4792C19 13.4572 18.6597 14.2885 17.9792 14.9731C17.2986 15.6577 16.4722 16 15.5 16H10.75C10.3375 16 9.98438 15.8531 9.69063 15.5594C9.39688 15.2656 9.25 14.9125 9.25 14.5V10.875L8.0625 12.0625L7 11L10 8L13 11L11.9375 12.0625L10.75 10.875V14.5H15.5C16.06 14.5 16.5333 14.3072 16.92 13.9215C17.3067 13.5356 17.5 13.0634 17.5 12.5048C17.5 11.946 17.3067 11.4722 16.92 11.0833C16.5333 10.6944 16.06 10.5 15.5 10.5H14V9C14 7.98611 13.6007 7.14931 12.8021 6.48958C12.0035 5.82986 11.066 5.5 9.98958 5.5C8.91319 5.5 8 5.89236 7.25 6.67708C6.5 7.46181 6.04861 8.40278 5.89583 9.5H5C4.30958 9.5 3.72028 9.74444 3.23208 10.2333C2.74403 10.7222 2.5 11.3125 2.5 12.0042C2.5 12.6958 2.74403 13.2847 3.23208 13.7708C3.72028 14.2569 4.30958 14.5 5 14.5H7.75V16H5Z" fill="#C2C2C2"/>
</svg>
