<svg xmlns="http://www.w3.org/2000/svg" viewBox="0 0 245.55 58.11"><title>Logo</title><g id="Layer_2" data-name="Layer 2"><g id="Layer_1-2" data-name="Layer 1"><path d="M80.5,46.81a7.79,7.79,0,1,1,0-4.64H78.43a5.82,5.82,0,0,0-9.46-2,6,6,0,0,0-1.66,4.23,5.7,5.7,0,0,0,5.78,5.85,5.55,5.55,0,0,0,5.31-3.48Z" style="fill:#fff"/><path d="M82.41,37.11h1.9v2.4A5,5,0,0,1,89,36.7v2h-.2c-2.83,0-4.41,1.78-4.41,5.1v8h-2Z" style="fill:#fff"/><path d="M90.36,45a5.58,5.58,0,0,0,5.72,5.42,5.43,5.43,0,0,0,5-3h2.1a7.64,7.64,0,0,1-7.14,4.77,7.57,7.57,0,0,1-7.74-7.71,7.7,7.7,0,1,1,15.37.55Zm11.36-1.61a5.71,5.71,0,0,0-11.33,0Z" style="fill:#fff"/><path d="M120.59,51.76h-2v-3a6.51,6.51,0,0,1-6,3.43,7.46,7.46,0,0,1-7.6-7.73,7.48,7.48,0,0,1,7.6-7.74,6.44,6.44,0,0,1,6,3.48V37.11h2ZM107,44.46a5.72,5.72,0,0,0,5.89,5.83,5.48,5.48,0,0,0,5.28-3.56,5.59,5.59,0,0,0,.49-2.32,5.31,5.31,0,0,0-.46-2.35,5.66,5.66,0,0,0-5.37-3.51A5.76,5.76,0,0,0,107,44.44Z" style="fill:#fff"/><path d="M125,38.71h-2.88v-1.6H125v-5.5h2v5.5h3.22v1.6H127v13h-2Z" style="fill:#fff"/><path d="M131.7,37.11h2V51.76h-2Z" style="fill:#fff"/><path d="M136.37,37.11h1.91c0,.82,0,1.63,0,2.61.84-1.9,2.83-3.07,5.44-3,4.56,0,6.16,3.16,6.16,6.73v8.33h-2V43.84c0-3.17-1.41-5.32-4.71-5.26-3,0-4.77,1.85-4.77,4.9v8.28h-2Z" style="fill:#fff"/><path d="M167.33,50.07a7.54,7.54,0,0,1-2.18,5.78,8.24,8.24,0,0,1-5.56,2.26,7.42,7.42,0,0,1-7.25-4.73h2.32a5.66,5.66,0,0,0,1.74,1.93,5.8,5.8,0,0,0,3.24,1.06,5.68,5.68,0,0,0,5.67-5.83V48.66a6.35,6.35,0,0,1-5.91,3.51,7.49,7.49,0,0,1-7.66-7.71,7.51,7.51,0,0,1,7.66-7.76,6.5,6.5,0,0,1,5.94,3.43v-3h2Zm-13.57-5.63a5.69,5.69,0,0,0,5.88,5.85,5.6,5.6,0,0,0,4.12-1.69,6.13,6.13,0,0,0,1.63-4.14,6.34,6.34,0,0,0-1.34-3.84,5.38,5.38,0,0,0-4.46-2,5.7,5.7,0,0,0-5.83,5.83Z" style="fill:#fff"/><path d="M187.7,51.76h-1.94v-3a6.45,6.45,0,0,1-6,3.43,7.45,7.45,0,0,1-7.57-7.76,7.43,7.43,0,0,1,7.54-7.71,6.46,6.46,0,0,1,6,3.38V31.61h2Zm-13.56-7.32A5.7,5.7,0,0,0,180,50.29a5.81,5.81,0,0,0,4.17-1.72,5.7,5.7,0,0,0,1.63-4.21,5.62,5.62,0,0,0-1.69-4.12,5.87,5.87,0,0,0-10,4.17Z" style="fill:#26aae1"/><path d="M190.72,31.61h2v2.8h-2Zm0,5.5h2V51.76h-2Z" style="fill:#26aae1"/><path d="M210.73,50.07a7.5,7.5,0,0,1-2.18,5.78A8.24,8.24,0,0,1,203,58.11a7.42,7.42,0,0,1-7.25-4.73h2.32a5.66,5.66,0,0,0,1.74,1.93A5.8,5.8,0,0,0,203,56.37a5.68,5.68,0,0,0,5.67-5.83V48.66a6.34,6.34,0,0,1-5.91,3.51,7.49,7.49,0,0,1-7.66-7.71,7.5,7.5,0,0,1,7.66-7.76,6.5,6.5,0,0,1,5.94,3.43v-3h2Zm-13.57-5.63A5.69,5.69,0,0,0,203,50.29a5.62,5.62,0,0,0,4.12-1.69,6.13,6.13,0,0,0,1.63-4.14,6.34,6.34,0,0,0-1.34-3.84,5.4,5.4,0,0,0-4.46-2,5.7,5.7,0,0,0-5.83,5.83Z" style="fill:#26aae1"/><path d="M213.45,31.61h2v2.8h-2Zm0,5.5h2V51.76h-2Z" style="fill:#26aae1"/><path d="M220.46,38.71h-2.89v-1.6h2.89v-5.5h2v5.5h3.22v1.6h-3.22v13h-2Z" style="fill:#26aae1"/><path d="M241,51.76h-2v-3a6.49,6.49,0,0,1-6,3.43,7.46,7.46,0,0,1-7.61-7.73A7.5,7.5,0,0,1,233,36.7a6.44,6.44,0,0,1,6,3.48V37.11h2Zm-13.62-7.3a5.71,5.71,0,0,0,5.88,5.83,5.5,5.5,0,0,0,5.29-3.56,5.75,5.75,0,0,0,.49-2.32,5.31,5.31,0,0,0-.46-2.35,5.66,5.66,0,0,0-5.37-3.51,5.75,5.75,0,0,0-5.83,5.89Z" style="fill:#26aae1"/><path d="M243.53,31.61h2V51.76h-2Z" style="fill:#26aae1"/><rect x="131.7" y="31.61" width="2.02" height="2.8" style="fill:#fff"/><path d="M29.11,0a27,27,0,0,1,10.8,2.2,29.18,29.18,0,0,1,9,6,28.88,28.88,0,0,1,6.18,9,27.19,27.19,0,0,1,2.31,11.18h-9.7a20.1,20.1,0,0,0-1.41-7.54,19.63,19.63,0,0,0-3.86-6.18,18.33,18.33,0,0,0-5.88-4.21,17.77,17.77,0,0,0-7.42-1.55,18.41,18.41,0,0,0-7.47,1.55A20.07,20.07,0,0,0,11.25,20.81a18.94,18.94,0,0,0,0,15A19.8,19.8,0,0,0,15.46,42a20.43,20.43,0,0,0,6.18,4.16,18.25,18.25,0,0,0,7.47,1.56v8.87A29.37,29.37,0,0,1,8.6,48.4a28.72,28.72,0,0,1-6.29-9A26.78,26.78,0,0,1,0,28.35,27.19,27.19,0,0,1,2.31,17.17a28,28,0,0,1,6.29-9,30.08,30.08,0,0,1,9.25-6A28.84,28.84,0,0,1,29.11,0Z" style="fill:#26aae1"/><path d="M44.5,31.54a12.82,12.82,0,0,1,4.75.83,14.53,14.53,0,0,1,3.83,2.29V31.54h4.3V44.41A12.8,12.8,0,0,1,53.45,53a13,13,0,0,1-4,2.59,12.81,12.81,0,0,1-4.93,1,11.87,11.87,0,0,1-4.73-1,13.13,13.13,0,0,1-4-2.65,12.54,12.54,0,0,1-2.74-4,11.85,11.85,0,0,1-1-4.9,12.06,12.06,0,0,1,1-4.93,12.58,12.58,0,0,1,2.74-4,13.13,13.13,0,0,1,4-2.65A11.87,11.87,0,0,1,44.5,31.54Zm8.58,11.68a8.63,8.63,0,0,0-.86-3,8.36,8.36,0,0,0-1.83-2.49,8.45,8.45,0,0,0-5.89-2.29,7.79,7.79,0,0,0-3.25.68A8.11,8.11,0,0,0,38.65,38a8.69,8.69,0,0,0-1.71,2.74,9,9,0,0,0-.62,3.33,8.86,8.86,0,0,0,.62,3.31,8.71,8.71,0,0,0,1.71,2.72,7.94,7.94,0,0,0,2.6,1.86,7.64,7.64,0,0,0,3.25.69,8.14,8.14,0,0,0,3.33-.69,9,9,0,0,0,2.73-1.8,8.82,8.82,0,0,0,1.85-2.63,7.49,7.49,0,0,0,.67-3.1Z" style="fill:#26aae1"/></g></g></svg>