<?xml version="1.0" encoding="utf-8"?>
<!-- Generator: Adobe Illustrator 15.0.0, SVG Export Plug-In . SVG Version: 6.00 Build 0)  -->
<!DOCTYPE svg PUBLIC "-//W3C//DTD SVG 1.1//EN" "http://www.w3.org/Graphics/SVG/1.1/DTD/svg11.dtd">
<svg version="1.1" id="Layer_1" xmlns="http://www.w3.org/2000/svg" xmlns:xlink="http://www.w3.org/1999/xlink" x="0px" y="0px"
	 width="574px" height="268.46px" viewBox="0 0 574 268.46" enable-background="new 0 0 574 268.46" xml:space="preserve">
<g>
	<path fill="#4161AB" d="M100.461,50.141H72.069v54.737H55.467V50.141H29l0.007,104.265l26.459,32.659V133.27H72.31l-0.006,50.891
		l28.087-22.726L100.461,50.141L100.461,50.141z M156.071,141.393l-16.121,13.624V50.141h-27.67v108.755l26.796,32.591
		l43.242-34.925l-0.051-106.421h-26.196V141.393L156.071,141.393z"/>
	<g>
		<path fill="#BC961F" stroke="#BC961F" stroke-miterlimit="10" d="M225.156,94.761l0.01-0.613h0.775
			c2.129,0,3.86-1.694,3.925-3.808V74.468h-25.083v15.826c0.04,2.135,1.781,3.854,3.926,3.854h0.775l0.01,0.613h-13.411l0.01-0.613
			h0.775c2.145,0,3.886-1.719,3.926-3.854V56.291c-0.053-2.123-1.789-3.829-3.925-3.829h-0.775l-0.01-0.611h13.409l-0.01,0.611
			h-0.775c-2.132,0-3.865,1.699-3.925,3.816v16.351h25.083v-16.39c-0.08-2.1-1.804-3.778-3.924-3.778h-0.775l-0.01-0.611h13.409
			l-0.01,0.611h-0.775c-2.146,0-3.886,1.719-3.925,3.854v33.977c0.04,2.135,1.78,3.854,3.926,3.854h0.775l0.01,0.613L225.156,94.761
			z"/>
		<path fill="#BC961F" stroke="#BC961F" stroke-miterlimit="10" d="M289.36,73.307c0,13.387-8.996,22.311-22.031,22.311
			c-13.035,0-22.031-8.924-22.031-22.311s8.996-22.311,22.031-22.311C280.364,50.996,289.36,59.92,289.36,73.307z M284.662,73.307
			c0-12.286-6.933-20.477-17.333-20.477s-17.333,8.191-17.333,20.477s6.933,20.477,17.333,20.477S284.662,85.593,284.662,73.307z"/>
		<path fill="#BC961F" stroke="#BC961F" stroke-miterlimit="10" d="M311.354,51.853c7.428,0,11.98,4.377,11.98,11.52
			c0,5.934-4.519,11.687-10.413,11.687c1.315,0.607,3.199,2.636,4.387,4.313c0,0,5.284,7.545,7.657,10.137
			c2.466,2.693,4.734,4.606,8.336,4.635v0.615h-3.362c-5.704,0-8.767-3.073-10.694-5.374c-0.696-0.832-7.604-10.881-8.074-11.473
			c-1.603-2.013-3.391-4.136-5.629-4.136v-0.567c0,0,1.394,0.03,3.238-0.02c3.18-0.086,7.827-0.844,9.567-6.364
			c0.27-0.859,0.426-2.327,0.39-3.67c-0.151-5.543-3.04-9.094-7.604-9.344c-3.125-0.171-6.835-0.019-7.631-0.048v36.532
			c0.04,2.135,1.78,3.854,3.926,3.854h0.775l0.01,0.613h-13.391l0.01-0.613h0.775c2.136,0,3.871-1.703,3.925-3.825V56.317
			c-0.041-2.135-1.781-3.854-3.927-3.854h-0.775l-0.01-0.609L311.354,51.853z"/>
		<path fill="#BC961F" stroke="#BC961F" stroke-miterlimit="10" d="M360.501,94.761h-25.41l0.01-0.613h0.775
			c2.146,0,3.887-1.719,3.927-3.854V55.973c-0.209-1.973-1.876-3.511-3.905-3.511h-0.775l-0.01-0.609h17.912
			c2.642-0.025,6.171-0.636,7.308-1.115v1.795v1.023v4.922l-0.619-0.009v-1.092c0-1.944-1.518-3.532-3.433-3.648h-12.496v18.95
			h10.359c1.642-0.031,2.965-1.369,2.965-3.02v-0.903l0.599-0.008v9.701l-0.599-0.007v-0.903c0-1.629-1.289-2.955-2.901-3.019
			h-10.423v18.366h8.791c6.495,0,8.989-3.359,10.881-8.026h0.613L360.501,94.761z"/>
		<path fill="#BC961F" stroke="#BC961F" stroke-miterlimit="10" d="M409.086,76.87l-0.747,9.621
			c-3.23,5.28-8.713,9.129-17.225,9.129c-12.818-0.061-21.89-8.826-21.89-22.373c0-13.301,8.765-22.25,22.25-22.25
			c6.007,0,10.91,1.778,14.498,4.14l1.236,8.657h-0.51c-1.862-7.156-7.869-10.956-15.235-10.96c-10.776,0-17.642,8.152-17.642,20.35
			c0,12.32,6.987,20.35,17.293,20.599c8.703-0.026,16.067-4.359,17.461-16.912L409.086,76.87z"/>
	</g>
	<g>
		<path fill="#BC961F" stroke="#BC961F" stroke-miterlimit="10" d="M449.924,90.288c1.239,2.729,3.507,3.859,5.384,3.859h0.513
			v0.613h-13.803v-0.607h0.539c1.583,0,3.224-1.395,2.329-3.848l-3.92-10.439h-16.51l-4.106,10.477
			c-0.865,2.43,0.769,3.811,2.343,3.811h0.539v0.607h-12.337v-0.613h0.552c1.863,0,4.13-1.13,5.369-3.855l13.9-32.983
			c0,0,2.27-4.965,2.27-6.313h0.553L449.924,90.288z M440.274,78.026l-7.388-19.672l-7.71,19.672H440.274z"/>
	</g>
	<g>
		<path fill="#BC961F" stroke="#BC961F" stroke-miterlimit="10" d="M242.057,109.783v0.619h-0.539c-1.868,0-4.125,1.101-5.369,3.797
			l-14.739,33.043c0,0-2.27,4.966-2.27,6.313h-0.552l-17.226-39.311c-1.239-2.73-3.507-3.844-5.408-3.844h-0.491v-0.619h13.803
			v0.613h-0.539c-1.582,0-3.208,1.375-2.315,3.825l12.843,32.111l13.333-32.107c0.895-2.453-0.747-3.829-2.33-3.829h-0.539v-0.613
			L242.057,109.783z"/>
		<path fill="#BC961F" stroke="#BC961F" stroke-miterlimit="10" d="M287.64,131.244c0,13.387-8.997,22.312-22.031,22.312
			c-13.035,0-22.031-8.925-22.031-22.312s8.996-22.311,22.031-22.311C278.643,108.933,287.64,117.857,287.64,131.244z
			 M282.94,131.245c0-12.286-6.933-20.477-17.332-20.477s-17.333,8.191-17.333,20.477c0,12.286,6.933,20.477,17.333,20.477
			S282.94,143.53,282.94,131.245z"/>
	</g>
	<g>
		<path fill="#BC961F" stroke="#BC961F" stroke-miterlimit="10" d="M339.001,131.244c0,13.387-8.996,22.312-22.031,22.312
			c-13.034,0-22.03-8.925-22.03-22.312s8.996-22.311,22.03-22.311C330.005,108.933,339.001,117.857,339.001,131.244z
			 M334.303,131.245c0-12.286-6.934-20.477-17.333-20.477c-10.398,0-17.332,8.191-17.332,20.477
			c0,12.286,6.934,20.477,17.332,20.477C327.369,151.722,334.303,143.53,334.303,131.245z"/>
		<path fill="#BC961F" stroke="#BC961F" stroke-miterlimit="10" d="M361.423,109.79c7.428,0,11.98,4.377,11.98,11.52
			c0,5.934-4.519,11.687-10.413,11.687c1.315,0.607,3.199,2.636,4.387,4.313c0,0,5.284,7.545,7.657,10.137
			c2.466,2.692,4.734,4.605,8.336,4.635v0.614h-3.362c-5.704,0-8.768-3.072-10.694-5.373c-0.696-0.832-7.604-10.882-8.074-11.474
			c-1.603-2.013-3.391-4.136-5.629-4.136v-0.567c0,0,1.394,0.03,3.238-0.02c3.18-0.086,7.827-0.844,9.567-6.364
			c0.27-0.859,0.426-2.327,0.39-3.67c-0.151-5.543-3.04-9.094-7.604-9.344c-3.125-0.171-6.835-0.019-7.631-0.048v36.533
			c0.04,2.135,1.78,3.854,3.926,3.854h0.775l0.01,0.613h-13.391l0.01-0.613h0.775c2.136,0,3.87-1.703,3.925-3.824v-34.007
			c-0.041-2.135-1.781-3.854-3.927-3.854h-0.775l-0.01-0.609L361.423,109.79z"/>
		<path fill="#BC961F" stroke="#BC961F" stroke-miterlimit="10" d="M406.335,109.798c13.092,0,22.014,8.587,22.014,21.47
			c0,12.857-8.922,21.432-22.014,21.432h-20.751l0.01-0.613h0.775c2.144,0,3.882-1.715,3.927-3.846v-34.333
			c0-1.971-1.877-3.507-3.904-3.507h-0.775l-0.01-0.607L406.335,109.798z M394.287,150.838h12.048
			c10.506,0,17.416-7.828,17.416-19.57c0-11.777-6.972-19.628-17.416-19.628h-12.048V150.838z"/>
		<path fill="#BC961F" stroke="#BC961F" stroke-miterlimit="10" d="M459.662,152.698h-25.41l0.01-0.612h0.775
			c2.146,0,3.887-1.72,3.927-3.854v-34.321c-0.209-1.973-1.876-3.511-3.905-3.511h-0.775l-0.01-0.609h17.912
			c2.643-0.025,6.171-0.636,7.308-1.115v1.795v1.023v4.922l-0.619-0.009v-1.092c0-1.944-1.518-3.532-3.433-3.648h-12.496v18.95
			h10.359c1.642-0.031,2.965-1.369,2.965-3.02v-0.903l0.599-0.008v9.701l-0.599-0.007v-0.903c0-1.629-1.289-2.955-2.901-3.019
			h-10.423v18.366h8.791c6.495,0,8.989-3.359,10.881-8.026h0.613L459.662,152.698z"/>
		<path fill="#BC961F" stroke="#BC961F" stroke-miterlimit="10" d="M494.229,152.698h-25.41l0.01-0.612h0.775
			c2.146,0,3.887-1.72,3.927-3.854v-34.321c-0.209-1.973-1.876-3.511-3.905-3.511h-0.775l-0.01-0.609h17.912
			c2.642-0.025,6.171-0.636,7.308-1.115v1.795v1.023v4.922l-0.619-0.009v-1.092c0-1.944-1.518-3.532-3.433-3.648h-12.496v18.95
			h10.359c1.642-0.031,2.965-1.369,2.965-3.02v-0.903l0.599-0.008v9.701l-0.599-0.007v-0.903c0-1.629-1.289-2.955-2.901-3.019
			h-10.423v18.366h8.791c6.495,0,8.989-3.359,10.881-8.026h0.613L494.229,152.698z"/>
		<path fill="#BC961F" stroke="#BC961F" stroke-miterlimit="10" d="M532.368,142.797l-3.573,9.901h-25.41l0.01-0.612h0.775
			c2.146,0,3.886-1.72,3.925-3.854v-33.97c-0.04-2.135-1.781-3.854-3.926-3.854h-0.775l-0.01-0.613h13.409l-0.01,0.613h-0.775
			c-2.145,0-3.886,1.719-3.926,3.854v36.561h8.79c6.495,0,8.989-3.359,10.882-8.026L532.368,142.797z"/>
	</g>
	<polygon fill="none" stroke="#BC961F" stroke-width="3" points="106.566,171.727 68.688,202.145 99.469,240.103 137.154,209.542 
		106.566,171.727 	"/>
	<g>
		<path fill="#BC961F" d="M105.217,184.053l19.565,24.161l-24.162,19.565l-19.565-24.161L105.217,184.053 M105.661,179.833
			l-28.824,23.342l23.341,28.824l28.824-23.342L105.661,179.833L105.661,179.833z"/>
	</g>
	<polyline fill="none" stroke="#BC961F" stroke-width="3" points="146.65,200.304 187.195,167.428 528.637,167.59 	"/>
	<g>
		<path fill="#4161AB" stroke="#4161AB" stroke-width="1.5" stroke-miterlimit="10" d="M205.651,195.971
			c-1.917,0-3.454-0.342-4.613-1.025c-1.397-0.847-2.095-2.169-2.095-3.967V190.6h0.802v0.29c0,2.896,1.976,4.346,5.928,4.346
			c1.352,0,2.481-0.208,3.387-0.624c1.218-0.564,1.828-1.441,1.828-2.63c0-0.817-0.223-1.441-0.668-1.872
			c-0.372-0.371-0.988-0.684-1.85-0.936c-0.446-0.134-1.508-0.379-3.187-0.736c-1.887-0.4-3.165-0.771-3.833-1.114
			c-1.278-0.683-1.917-1.679-1.917-2.985c0-2.526,1.931-3.789,5.794-3.789c4.041,0,6.091,1.546,6.151,4.636h-0.802
			c-0.089-1.545-0.654-2.607-1.694-3.188c-0.817-0.475-2.036-0.713-3.655-0.713c-3.328,0-4.992,1.018-4.992,3.054
			c0,1.01,0.468,1.768,1.404,2.272c0.609,0.327,1.649,0.624,3.12,0.892c2.689,0.49,4.479,1.011,5.371,1.56
			c1.04,0.624,1.56,1.62,1.56,2.986c0,1.382-0.706,2.422-2.117,3.12C208.489,195.703,207.181,195.971,205.651,195.971z"/>
		<path fill="#4161AB" stroke="#4161AB" stroke-width="1.5" stroke-miterlimit="10" d="M230.722,195.814l-2.162-4.858h-8.29
			l-2.207,4.858h-0.936l6.953-15.109h0.825l6.686,15.109H230.722z M224.505,181.819l-3.878,8.401h7.622L224.505,181.819z"/>
		<path fill="#4161AB" stroke="#4161AB" stroke-width="1.5" stroke-miterlimit="10" d="M252.473,195.814V182.02l-6.842,13.795
			h-0.735l-6.842-13.795v13.795h-0.802v-15.109h1.025l6.975,14.062l6.998-14.062h1.025v15.109H252.473z"/>
		<path fill="#4161AB" stroke="#4161AB" stroke-width="1.5" stroke-miterlimit="10" d="M260.183,195.814v-15.109h11.165v0.735
			h-10.385v6.128h9.204v0.714h-9.204v6.797h10.497v0.735H260.183z"/>
		<path fill="#4161AB" stroke="#4161AB" stroke-width="1.5" stroke-miterlimit="10" d="M289.421,195.814l-11.187-14.018v14.018
			h-0.802v-15.109h0.936c1.248,1.635,3.112,3.967,5.593,6.997c2.57,3.15,4.442,5.476,5.616,6.976v-13.973h0.803v15.109H289.421z"/>
		<path fill="#4161AB" stroke="#4161AB" stroke-width="1.5" stroke-miterlimit="10" d="M314.894,195.814h-5.059v-15.109h5.905
			c2.437,0,4.279,0.676,5.527,2.027c1.218,1.293,1.827,3.143,1.827,5.55c0,2.466-0.766,4.354-2.295,5.66
			C319.358,195.19,317.39,195.814,314.894,195.814z M320.688,183.268c-1.114-1.218-2.771-1.827-4.97-1.827h-5.081v13.639h4.323
			c2.287,0,4.081-0.575,5.382-1.728c1.3-1.15,1.95-2.841,1.95-5.069C322.293,186.083,321.758,184.412,320.688,183.268z"/>
		<path fill="#4161AB" stroke="#4161AB" stroke-width="1.5" stroke-miterlimit="10" d="M329.669,195.814v-15.109h11.165v0.735
			h-10.385v6.128h9.204v0.714h-9.204v6.797h10.496v0.735H329.669z"/>
		<path fill="#4161AB" stroke="#4161AB" stroke-width="1.5" stroke-miterlimit="10" d="M366.373,195.814h-7.065v-15.109h7.354
			c1.382,0,2.511,0.297,3.388,0.892c0.995,0.684,1.493,1.686,1.493,3.008c0,1.575-0.943,2.675-2.83,3.299
			c2.213,0.476,3.32,1.738,3.32,3.788c0,1.441-0.617,2.526-1.85,3.254C369.203,195.524,367.933,195.814,366.373,195.814z
			 M366.618,181.44h-6.508v6.128h6.485c1.129,0,2.064-0.229,2.808-0.69c0.892-0.535,1.337-1.329,1.337-2.385
			c0-1.055-0.445-1.85-1.337-2.385C368.675,181.663,367.747,181.44,366.618,181.44z M366.551,188.305h-6.44v6.774h6.529
			c1.248,0,2.288-0.245,3.12-0.735c0.995-0.594,1.493-1.471,1.493-2.63c0-1.218-0.513-2.117-1.537-2.696
			C368.913,188.542,367.858,188.305,366.551,188.305z"/>
		<path fill="#4161AB" stroke="#4161AB" stroke-width="1.5" stroke-miterlimit="10" d="M378.474,195.814v-15.109h11.165v0.735
			h-10.385v6.128h9.204v0.714h-9.204v6.797h10.496v0.735H378.474z"/>
		<path fill="#4161AB" stroke="#4161AB" stroke-width="1.5" stroke-miterlimit="10" d="M401.963,195.971
			c-1.917,0-3.454-0.342-4.613-1.025c-1.396-0.847-2.095-2.169-2.095-3.967V190.6h0.802v0.29c0,2.896,1.976,4.346,5.929,4.346
			c1.352,0,2.48-0.208,3.387-0.624c1.219-0.564,1.828-1.441,1.828-2.63c0-0.817-0.224-1.441-0.669-1.872
			c-0.372-0.371-0.988-0.684-1.85-0.936c-0.446-0.134-1.508-0.379-3.188-0.736c-1.887-0.4-3.164-0.771-3.833-1.114
			c-1.277-0.683-1.916-1.679-1.916-2.985c0-2.526,1.931-3.789,5.794-3.789c4.041,0,6.092,1.546,6.151,4.636h-0.803
			c-0.089-1.545-0.654-2.607-1.693-3.188c-0.817-0.475-2.036-0.713-3.655-0.713c-3.328,0-4.992,1.018-4.992,3.054
			c0,1.01,0.469,1.768,1.404,2.272c0.609,0.327,1.649,0.624,3.12,0.892c2.688,0.49,4.479,1.011,5.371,1.56
			c1.039,0.624,1.56,1.62,1.56,2.986c0,1.382-0.706,2.422-2.117,3.12C404.8,195.703,403.492,195.971,401.963,195.971z"/>
		<path fill="#4161AB" stroke="#4161AB" stroke-width="1.5" stroke-miterlimit="10" d="M420.08,181.44v14.374h-0.803V181.44h-5.794
			v-0.735h12.368v0.735H420.08z"/>
		<path fill="#4161AB" stroke="#4161AB" stroke-width="1.5" stroke-miterlimit="10" d="M431.535,195.814v-15.109H442.7v0.735
			h-10.385v6.128h9.204v0.714h-9.204v6.797h10.496v0.735H431.535z"/>
		<path fill="#4161AB" stroke="#4161AB" stroke-width="1.5" stroke-miterlimit="10" d="M466.411,195.814h-5.059v-15.109h5.905
			c2.437,0,4.279,0.676,5.527,2.027c1.218,1.293,1.827,3.143,1.827,5.55c0,2.466-0.766,4.354-2.295,5.66
			C470.876,195.19,468.907,195.814,466.411,195.814z M472.206,183.268c-1.114-1.218-2.771-1.827-4.97-1.827h-5.081v13.639h4.323
			c2.287,0,4.081-0.575,5.382-1.728c1.3-1.15,1.95-2.841,1.95-5.069C473.811,186.083,473.275,184.412,472.206,183.268z"/>
		<path fill="#4161AB" stroke="#4161AB" stroke-width="1.5" stroke-miterlimit="10" d="M481.187,195.814v-15.109h11.165v0.735
			h-10.385v6.128h9.204v0.714h-9.204v6.797h10.496v0.735H481.187z"/>
		<path fill="#4161AB" stroke="#4161AB" stroke-width="1.5" stroke-miterlimit="10" d="M510.76,195.814l-2.162-4.858h-8.29
			l-2.206,4.858h-0.937l6.953-15.109h0.825l6.686,15.109H510.76z M504.542,181.819l-3.878,8.401h7.622L504.542,181.819z"/>
		<path fill="#4161AB" stroke="#4161AB" stroke-width="1.5" stroke-miterlimit="10" d="M517.288,195.814v-15.109h0.803v14.374h9.538
			v0.735H517.288z"/>
	</g>
</g>
</svg>

