<?xml version="1.0" encoding="utf-8"?>
<!-- Generator: Adobe Illustrator 24.0.1, SVG Export Plug-In . SVG Version: 6.00 Build 0)  -->
<svg version="1.1" id="logo" xmlns="http://www.w3.org/2000/svg" xmlns:xlink="http://www.w3.org/1999/xlink" x="0px" y="0px"
	 viewBox="0 0 111 50" enable-background="new 0 0 111 50" xml:space="preserve">
<g>
	<path fill-rule="evenodd" clip-rule="evenodd" fill="#457896" d="M0,1h10.9v38.3H0V1z M39.8,29.1c0-13.2-21.6-8.3-21.6-19.1
		c0-4.7,4.9-6.7,8.9-6.7c3.9,0,8.2,1.2,8.3,5.9h3.7c-0.8-7.4-7.4-9.1-12.5-9.1c-6,0-12.2,3.7-12.2,10.3c0,8.3,9.4,10.2,15.6,12.3
		c3.2,1.1,6,2.9,6,6.7c0,4.9-4.9,7.4-9.2,7.4c-5.1,0-9.5-1.7-9.6-7.6h-3.7C13.7,35.6,18.8,40,24.9,40C32.6,40,39.8,37.5,39.8,29.1z
		 M86.2,39.2H73.4l-2.3-2.5c-2.4,1.4-5.7,3.2-13,3.2c-3.5,0-10.5-0.6-13.8-4.8C43.4,34,42,31.8,42,28.7c0-6.5,5.7-8.9,9-10.3
		c-1.7-1.5-5.3-4.5-5.3-9.1c0-6.6,6.7-9.3,14.4-9.3C63.7,0,74,0.6,74,9.4c0,5.4-3.9,8-7.2,10.2l5.5,5.4c2.6-3.3,2.7-5.9,2.8-6.9h9.2
		c-0.2,4.8-1.4,8.4-5.7,12.9L86.2,39.2z M56.1,9c0,0.9,0.1,2,3.8,5c0.9-0.5,4.1-2.5,4.1-5c0-2-1.9-3.1-4-3.1
		C57.9,5.8,56.1,7.1,56.1,9z M65,31.1l-7.1-7c-3.8,1.7-4.8,3.2-4.8,4.9c0,2,1.8,4.5,6.1,4.5C61.3,33.4,63.6,32.8,65,31.1z
		 M88.4,39.2h10.7V8.5H111V1H76.7v7.6h11.7V39.2z"/>
	<path fill="#363636" d="M43.2,42.2h0.9l2.2,6.6h0l2.2-6.6h0.8l2.2,6.6h0l2.2-6.6h0.9l-2.6,7.6h-1.2l-2-6.3h0l-2,6.3h-1.2L43.2,42.2
		z M55.4,49.9h5v-0.7h-4.1v-2.8h3.9v-0.7h-3.9v-2.7h4.1v-0.7h-5V49.9z M67.8,46.4v0.7h5.1c-0.3,1.1-1.7,2.3-3.7,2.3
		c-2.3,0-4-1.5-4-3.2c0-1.7,1.7-3.3,4-3.3c1.5,0,2.7,0.7,3.2,1.5h1.1c-0.4-0.8-1.9-2.2-4.3-2.2c-2.9,0-4.9,2-4.9,3.9
		c0,2.1,2.2,3.9,4.9,3.9c2.2,0,4.6-1.4,4.8-3.6H67.8z M75.1,49.9h5v-0.7H76v-2.8h3.9v-0.7H76v-2.7H80v-0.7h-5V49.9z M83.3,49.9h0.9
		v-6.9h2.7v-0.7h-6.3v0.7h2.7V49.9z M90.5,49.9h0.9v-7.6h-0.9V49.9z M95,49.9h0.9v-6.9h2.7v-0.7h-6.3v0.7H95V49.9z M98.7,49.9h0.9
		v-1.3h-0.9V49.9z"/>
</g>
</svg>
