<svg width="161" height="36" viewBox="0 0 161 36" fill="none" xmlns="http://www.w3.org/2000/svg">
<g clip-path="url(#clip0_2439_3241)">
<path d="M16.0809 18.8978C16.6356 18.7518 17.1674 18.5737 17.6696 18.3614C19.2925 17.6744 20.5548 16.6541 21.4564 15.305C22.358 13.956 22.81 12.2966 22.81 10.3313C22.81 8.36594 22.3695 6.71106 21.4929 5.31639C20.6141 3.92173 19.3838 2.85347 17.802 2.11163C16.2201 1.36978 14.3758 1 12.2667 1H1.32391C0.593475 1 0 1.59348 0 2.32391V3.35564C0 3.71173 0.143804 4.05183 0.394889 4.30064L14.8894 18.5418C15.1793 18.8248 15.581 18.9618 15.9827 18.9115L16.0809 18.9001V18.8978Z" fill="#47178A"/>
<path d="M8.69441 29.0007H20.1919C21.3765 29.0007 21.9654 27.5627 21.1186 26.7318L1.55217 7.52606C0.974669 6.95997 0 7.36856 0 8.1766V20.4227C0 20.9728 0.221412 21.5024 0.614019 21.8882L7.2541 28.4118C7.63757 28.7885 8.15572 29.0007 8.69441 29.0007Z" fill="#47178A"/>
</g>
<path d="M30.8833 29V7.33234H39.4319C41.0683 7.33234 42.4648 7.62505 43.6215 8.21047C44.7853 8.78884 45.6705 9.61055 46.2771 10.6756C46.8907 11.7336 47.1976 12.9785 47.1976 14.4103C47.1976 15.8492 46.8872 17.087 46.2665 18.1239C45.6458 19.1537 44.7465 19.9436 43.5686 20.4938C42.3978 21.0439 40.9801 21.319 39.3155 21.319H33.5918V17.6372H38.5749C39.4495 17.6372 40.176 17.5173 40.7544 17.2775C41.3328 17.0377 41.763 16.6779 42.0451 16.1983C42.3343 15.7187 42.4789 15.1227 42.4789 14.4103C42.4789 13.6909 42.3343 13.0843 42.0451 12.5906C41.763 12.0968 41.3292 11.723 40.7438 11.4691C40.1654 11.2081 39.4354 11.0776 38.5538 11.0776H35.4644V29H30.8833ZM42.5847 19.1395L47.9699 29H42.9127L37.6439 19.1395H42.5847Z" fill="#47178A"/>
<path d="M50.0525 29V12.7493H54.5595V29H50.0525ZM52.3166 10.6544C51.6465 10.6544 51.0717 10.4323 50.592 9.9879C50.1195 9.53649 49.8832 8.99691 49.8832 8.36917C49.8832 7.74848 50.1195 7.21596 50.592 6.7716C51.0717 6.32019 51.6465 6.09448 52.3166 6.09448C52.9866 6.09448 53.5579 6.32019 54.0305 6.7716C54.5101 7.21596 54.7499 7.74848 54.7499 8.36917C54.7499 8.99691 54.5101 9.53649 54.0305 9.9879C53.5579 10.4323 52.9866 10.6544 52.3166 10.6544Z" fill="#47178A"/>
<path d="M71.3931 17.3833L67.267 17.6372C67.1964 17.2845 67.0448 16.9671 66.812 16.685C66.5793 16.3958 66.2724 16.1666 65.8916 15.9973C65.5177 15.821 65.0699 15.7328 64.5479 15.7328C63.8496 15.7328 63.2607 15.8809 62.7811 16.1772C62.3014 16.4663 62.0616 16.8543 62.0616 17.341C62.0616 17.7289 62.2168 18.0569 62.5272 18.3249C62.8375 18.5929 63.37 18.808 64.1247 18.9703L67.0659 19.5627C68.6459 19.8872 69.8238 20.4091 70.5996 21.1286C71.3755 21.848 71.7634 22.7932 71.7634 23.964C71.7634 25.029 71.4496 25.9636 70.8218 26.7677C70.2011 27.5718 69.3477 28.1995 68.2615 28.6509C67.1823 29.0953 65.9374 29.3174 64.5268 29.3174C62.3755 29.3174 60.6616 28.8696 59.3849 27.9738C58.1153 27.071 57.3712 25.8437 57.1525 24.292L61.5855 24.0592C61.7195 24.7152 62.044 25.216 62.5589 25.5616C63.0738 25.9001 63.7333 26.0694 64.5373 26.0694C65.3273 26.0694 65.9621 25.9178 66.4417 25.6145C66.9284 25.3041 67.1753 24.9056 67.1823 24.4189C67.1753 24.0098 67.0025 23.6748 66.6639 23.4138C66.3253 23.1458 65.8034 22.9413 65.0981 22.8002L62.2838 22.2395C60.6968 21.9221 59.5154 21.3719 58.7395 20.589C57.9707 19.8061 57.5863 18.808 57.5863 17.5949C57.5863 16.551 57.8685 15.6517 58.4327 14.897C59.004 14.1423 59.8046 13.5604 60.8344 13.1513C61.8712 12.7422 63.0844 12.5377 64.4739 12.5377C66.5264 12.5377 68.1416 12.9714 69.3195 13.839C70.5044 14.7066 71.1956 15.888 71.3931 17.3833Z" fill="#47178A"/>
<path d="M81.6461 29.3174C79.9815 29.3174 78.5497 28.9648 77.3506 28.2595C76.1586 27.5471 75.2417 26.5596 74.5998 25.2971C73.965 24.0345 73.6476 22.5816 73.6476 20.9381C73.6476 19.2736 73.9685 17.8135 74.6104 16.558C75.2593 15.2955 76.1798 14.3116 77.3718 13.6062C78.5638 12.8939 79.9815 12.5377 81.6249 12.5377C83.0426 12.5377 84.284 12.7951 85.349 13.31C86.4141 13.8249 87.2569 14.5479 87.8776 15.4789C88.4983 16.4099 88.8404 17.5032 88.9039 18.7587H84.6508C84.5308 17.9475 84.2134 17.2951 83.6986 16.8014C83.1907 16.3006 82.5242 16.0502 81.699 16.0502C81.0007 16.0502 80.3906 16.2406 79.8686 16.6215C79.3537 16.9953 78.9517 17.542 78.6625 18.2614C78.3733 18.9808 78.2287 19.8519 78.2287 20.8747C78.2287 21.9115 78.3698 22.7931 78.6519 23.5196C78.9411 24.2461 79.3467 24.7998 79.8686 25.1807C80.3906 25.5616 81.0007 25.752 81.699 25.752C82.2138 25.752 82.6758 25.6462 83.0849 25.4346C83.5011 25.223 83.8432 24.9162 84.1112 24.5142C84.3863 24.1051 84.5661 23.6149 84.6508 23.0435H88.9039C88.8334 24.2849 88.4948 25.3782 87.8882 26.3233C87.2887 27.2614 86.4599 27.995 85.4019 28.5239C84.3439 29.0529 83.092 29.3174 81.6461 29.3174Z" fill="#47178A"/>
<path d="M98.8341 29.3174C97.1907 29.3174 95.7695 28.9683 94.5704 28.27C93.3784 27.5647 92.4579 26.5843 91.809 25.3288C91.1601 24.0663 90.8357 22.6027 90.8357 20.9381C90.8357 19.2595 91.1601 17.7924 91.809 16.5369C92.4579 15.2743 93.3784 14.2939 94.5704 13.5957C95.7695 12.8903 97.1907 12.5377 98.8341 12.5377C100.478 12.5377 101.895 12.8903 103.087 13.5957C104.286 14.2939 105.21 15.2743 105.859 16.5369C106.508 17.7924 106.833 19.2595 106.833 20.9381C106.833 22.6027 106.508 24.0663 105.859 25.3288C105.21 26.5843 104.286 27.5647 103.087 28.27C101.895 28.9683 100.478 29.3174 98.8341 29.3174ZM98.8553 25.8261C99.6029 25.8261 100.227 25.6145 100.728 25.1913C101.229 24.761 101.606 24.1756 101.86 23.435C102.121 22.6944 102.251 21.8515 102.251 20.9064C102.251 19.9613 102.121 19.1184 101.86 18.3778C101.606 17.6372 101.229 17.0518 100.728 16.6215C100.227 16.1913 99.6029 15.9761 98.8553 15.9761C98.1006 15.9761 97.4658 16.1913 96.9509 16.6215C96.443 17.0518 96.0586 17.6372 95.7977 18.3778C95.5437 19.1184 95.4168 19.9613 95.4168 20.9064C95.4168 21.8515 95.5437 22.6944 95.7977 23.435C96.0586 24.1756 96.443 24.761 96.9509 25.1913C97.4658 25.6145 98.1006 25.8261 98.8553 25.8261Z" fill="#47178A"/>
<path d="M122.986 17.3833L118.86 17.6372C118.79 17.2845 118.638 16.9671 118.405 16.685C118.173 16.3958 117.866 16.1666 117.485 15.9973C117.111 15.821 116.663 15.7328 116.141 15.7328C115.443 15.7328 114.854 15.8809 114.374 16.1772C113.895 16.4663 113.655 16.8543 113.655 17.341C113.655 17.7289 113.81 18.0569 114.12 18.3249C114.431 18.5929 114.963 18.808 115.718 18.9703L118.659 19.5627C120.239 19.8872 121.417 20.4091 122.193 21.1286C122.969 21.848 123.357 22.7932 123.357 23.964C123.357 25.029 123.043 25.9636 122.415 26.7677C121.794 27.5718 120.941 28.1995 119.855 28.6509C118.776 29.0953 117.531 29.3174 116.12 29.3174C113.969 29.3174 112.255 28.8696 110.978 27.9738C109.709 27.071 108.964 25.8437 108.746 24.292L113.179 24.0592C113.313 24.7152 113.637 25.216 114.152 25.5616C114.667 25.9001 115.327 26.0694 116.131 26.0694C116.921 26.0694 117.555 25.9178 118.035 25.6145C118.522 25.3041 118.769 24.9056 118.776 24.4189C118.769 24.0098 118.596 23.6748 118.257 23.4138C117.919 23.1458 117.397 22.9413 116.691 22.8002L113.877 22.2395C112.29 21.9221 111.109 21.3719 110.333 20.589C109.564 19.8061 109.18 18.808 109.18 17.5949C109.18 16.551 109.462 15.6517 110.026 14.897C110.597 14.1423 111.398 13.5604 112.428 13.1513C113.464 12.7422 114.678 12.5377 116.067 12.5377C118.12 12.5377 119.735 12.9714 120.913 13.839C122.098 14.7066 122.789 15.888 122.986 17.3833Z" fill="#47178A"/>
<path d="M125.897 29V12.7493H130.404V29H125.897ZM128.161 10.6544C127.491 10.6544 126.916 10.4323 126.436 9.9879C125.964 9.53649 125.728 8.99691 125.728 8.36917C125.728 7.74848 125.964 7.21596 126.436 6.7716C126.916 6.32019 127.491 6.09448 128.161 6.09448C128.831 6.09448 129.402 6.32019 129.875 6.7716C130.355 7.21596 130.594 7.74848 130.594 8.36917C130.594 8.99691 130.355 9.53649 129.875 9.9879C129.402 10.4323 128.831 10.6544 128.161 10.6544Z" fill="#47178A"/>
<path d="M142.36 12.7493V16.1348H132.574V12.7493H142.36ZM134.796 8.85585H139.303V24.0063C139.303 24.4225 139.366 24.7469 139.493 24.9797C139.62 25.2054 139.796 25.3641 140.022 25.4558C140.255 25.5475 140.523 25.5933 140.826 25.5933C141.038 25.5933 141.249 25.5757 141.461 25.5404C141.672 25.4981 141.835 25.4663 141.948 25.4452L142.656 28.799C142.431 28.8696 142.113 28.9507 141.704 29.0424C141.295 29.1411 140.798 29.2011 140.212 29.2222C139.126 29.2645 138.174 29.12 137.356 28.7884C136.545 28.4569 135.913 27.9421 135.462 27.2438C135.011 26.5455 134.788 25.6638 134.796 24.5988V8.85585Z" fill="#47178A"/>
<path d="M147.781 35.0941C147.209 35.0941 146.673 35.0482 146.173 34.9566C145.679 34.8719 145.27 34.7626 144.945 34.6286L145.961 31.2642C146.49 31.4264 146.966 31.5145 147.389 31.5287C147.819 31.5428 148.19 31.444 148.5 31.2324C148.818 31.0208 149.075 30.6611 149.272 30.1533L149.537 29.4656L143.707 12.7493H148.447L151.812 24.6834H151.981L155.377 12.7493H160.149L153.832 30.7563C153.529 31.6309 153.117 32.3927 152.595 33.0416C152.08 33.6975 151.427 34.2018 150.637 34.5545C149.847 34.9142 148.895 35.0941 147.781 35.0941Z" fill="#47178A"/>
<defs>
<clipPath id="clip0_2439_3241">
<rect width="22.81" height="28.0006" fill="white" transform="translate(0 1)"/>
</clipPath>
</defs>
</svg>
