<svg xmlns="http://www.w3.org/2000/svg" id="Layer_1" viewBox="0 0 283.5 128.7"><defs><style>      .st0 {        fill: #231f20;      }    </style></defs><path class="st0" d="M5.9,0v28.5h65.8L0,100.2v28.5h91.9v-28.5h-51.6l51.6-51.6v31.1c0,7.9,1.3,14.9,3.9,21,2.6,6.1,6.2,11.3,10.7,15.5,4.5,4.2,9.8,7.3,15.9,9.4,6,2.1,12.5,3.1,19.4,3.1s13.4-1,19.4-3.1c6.1-2.1,11.4-5.2,15.9-9.4,4.5-4.2,8.1-9.4,10.7-15.5,2.6-6.1,3.9-13.2,3.9-21V28.5h31.7v100.2h28.5V28.5h31.7V0h-120.3v77.4c0,7.6-1.9,13.3-5.7,17.1-3.8,3.8-9,5.7-15.7,5.7s-11.9-1.9-15.7-5.7c-3.8-3.8-5.7-9.5-5.7-17.1V14.2c0-7.9-6.4-14.2-14.2-14.2H5.9Z"></path></svg>